  0
SECTION
  2
HEADER
  9
$ACADVER
  1
AC1009
  9
$INSBASE
 10
0.0
 20
0.0
 30
0.0
  9
$EXTMIN
 10
471152.0737674389965832
 20
9853038.0799738653004169
 30
0.0
  9
$EXTMAX
 10
475126.4989303047768772
 20
9856296.0917292833328247
 30
0.0
  9
$LIMMIN
 10
0.0
 20
0.0
  9
$LIMMAX
 10
420.0
 20
297.0
  9
$ORTHOMODE
 70
     0
  9
$REGENMODE
 70
     1
  9
$FILLMODE
 70
     1
  9
$QTEXTMODE
 70
     0
  9
$MIRRTEXT
 70
     0
  9
$DRAGMODE
 70
     2
  9
$LTSCALE
 40
1.0
  9
$OSMODE
 70
  2103
  9
$ATTMODE
 70
     1
  9
$TEXTSIZE
 40
2.0
  9
$TRACEWID
 40
1.0
  9
$TEXTSTYLE
  7
EICAD
  9
$CLAYER
  8
0A
  9
$CELTYPE
  6
BYLAYER
  9
$CECOLOR
 62
     2
  9
$DIMSCALE
 40
1.0
  9
$DIMASZ
 40
2.5
  9
$DIMEXO
 40
0.625
  9
$DIMDLI
 40
3.75
  9
$DIMRND
 40
0.0
  9
$DIMDLE
 40
0.0
  9
$DIMEXE
 40
1.25
  9
$DIMTP
 40
0.0
  9
$DIMTM
 40
0.0
  9
$DIMTXT
 40
2.5
  9
$DIMCEN
 40
2.5
  9
$DIMTSZ
 40
0.0
  9
$DIMTOL
 70
     0
  9
$DIMLIM
 70
     0
  9
$DIMTIH
 70
     0
  9
$DIMTOH
 70
     0
  9
$DIMSE1
 70
     0
  9
$DIMSE2
 70
     0
  9
$DIMTAD
 70
     1
  9
$DIMZIN
 70
     8
  9
$DIMBLK
  1

  9
$DIMASO
 70
     1
  9
$DIMSHO
 70
     1
  9
$DIMPOST
  1

  9
$DIMAPOST
  1

  9
$DIMALT
 70
     0
  9
$DIMALTD
 70
     3
  9
$DIMALTF
 40
0.03937007874016
  9
$DIMLFAC
 40
1.0
  9
$DIMTOFL
 70
     1
  9
$DIMTVP
 40
0.0
  9
$DIMTIX
 70
     0
  9
$DIMSOXD
 70
     0
  9
$DIMSAH
 70
     0
  9
$DIMBLK1
  1

  9
$DIMBLK2
  1

  9
$DIMSTYLE
  2
ISO-25
  9
$DIMCLRD
 70
     0
  9
$DIMCLRE
 70
     0
  9
$DIMCLRT
 70
     0
  9
$DIMTFAC
 40
1.0
  9
$DIMGAP
 40
0.625
  9
$LUNITS
 70
     2
  9
$LUPREC
 70
     4
  9
$SKETCHINC
 40
1.0
  9
$FILLETRAD
 40
0.0
  9
$AUNITS
 70
     0
  9
$AUPREC
 70
     0
  9
$MENU
  1
.
  9
$ELEVATION
 40
0.0
  9
$PELEVATION
 40
0.0
  9
$THICKNESS
 40
0.0
  9
$LIMCHECK
 70
     0
  9
$BLIPMODE
 70
     0
  9
$CHAMFERA
 40
0.0
  9
$CHAMFERB
 40
0.0
  9
$SKPOLY
 70
     0
  9
$TDCREATE
 40
2458840.929976852145046
  9
$TDUPDATE
 40
2459088.3806481477804482
  9
$TDINDWG
 40
5.4865383218000003
  9
$TDUSRTIMER
 40
5.4865382986000002
  9
$USRTIMER
 70
     1
  9
$ANGBASE
 50
0.0
  9
$ANGDIR
 70
     0
  9
$PDMODE
 70
     0
  9
$PDSIZE
 40
0.0
  9
$PLINEWID
 40
1.0
  9
$COORDS
 70
     1
  9
$SPLFRAME
 70
     0
  9
$SPLINETYPE
 70
     6
  9
$SPLINESEGS
 70
     8
  9
$ATTDIA
 70
     1
  9
$ATTREQ
 70
     1
  9
$HANDLING
 70
     1
  9
$HANDSEED
  5
53EA
  9
$SURFTAB1
 70
     6
  9
$SURFTAB2
 70
     6
  9
$SURFTYPE
 70
     6
  9
$SURFU
 70
     6
  9
$SURFV
 70
     6
  9
$UCSNAME
  2

  9
$UCSORG
 10
0.0
 20
0.0
 30
0.0
  9
$UCSXDIR
 10
1.0
 20
0.0
 30
0.0
  9
$UCSYDIR
 10
0.0
 20
1.0
 30
0.0
  9
$PUCSNAME
  2

  9
$PUCSORG
 10
0.0
 20
0.0
 30
0.0
  9
$PUCSXDIR
 10
1.0
 20
0.0
 30
0.0
  9
$PUCSYDIR
 10
0.0
 20
1.0
 30
0.0
  9
$USERI1
 70
     0
  9
$USERI2
 70
     0
  9
$USERI3
 70
     0
  9
$USERI4
 70
     0
  9
$USERI5
 70
     0
  9
$USERR1
 40
0.0
  9
$USERR2
 40
0.0
  9
$USERR3
 40
0.0
  9
$USERR4
 40
0.0
  9
$USERR5
 40
0.0
  9
$WORLDVIEW
 70
     1
  9
$SHADEDGE
 70
     3
  9
$SHADEDIF
 70
    70
  9
$TILEMODE
 70
     1
  9
$MAXACTVP
 70
    64
  9
$PLIMCHECK
 70
     0
  9
$PEXTMIN
 10
354.2491499573121132
 20
76.0699725244460296
 30
0.0
  9
$PEXTMAX
 10
5394.2491499573097826
 20
373.0699725244459728
 30
0.0
  9
$PLIMMIN
 10
358.6922453408909064
 20
79.2407057961922447
  9
$PLIMMAX
 10
769.8060664713333381
 20
369.8992273550995264
  9
$UNITMODE
 70
     0
  9
$VISRETAIN
 70
     1
  9
$PLINEGEN
 70
     0
  9
$PSLTSCALE
 70
     1
  0
ENDSEC
  0
SECTION
  2
TABLES
  0
TABLE
  2
VPORT
 70
     1
  0
VPORT
  2
*ACTIVE
 70
     0
 10
0.0
 20
0.0
 11
1.0
 21
1.0
 12
477866.1188327551935799
 22
9853742.3595820367336273
 13
0.0
 23
0.0
 14
10.0
 24
10.0
 15
10.0
 25
10.0
 16
0.0
 26
0.0
 36
1.0
 17
0.0
 27
0.0
 37
0.0
 40
13446.0470607595507317
 41
2.0808625336927218
 42
50.0
 43
0.0
 44
0.0
 50
0.0
 51
0.0
 71
     0
 72
  1000
 73
     1
 74
     3
 75
     0
 76
     0
 77
     0
 78
     0
  0
ENDTAB
  0
TABLE
  2
LTYPE
 70
     3
  0
LTYPE
  2
CONTINUOUS
 70
     0
  3
Solid line
 72
    65
 73
     0
 40
0.0
  0
LTYPE
  2
XREF|CENTER
 70
    48
  3
Center ____ _ ____ _ ____ _ ____ _ ____ _ ____
 72
    65
 73
     4
 40
2.0
 49
1.25
 49
-0.25
 49
0.25
 49
-0.25
  0
LTYPE
  2
XREF|DASHED
 70
    48
  3
Dashed __ __ __ __ __ __ __ __ __ __ __ __ __ _
 72
    65
 73
     2
 40
0.75
 49
0.5
 49
-0.25
  0
ENDTAB
  0
TABLE
  2
LAYER
 70
    23
  0
LAYER
  2
0
 70
     0
 62
     7
  6
CONTINUOUS
  0
LAYER
  2
0A
 70
     0
 62
     2
  6
CONTINUOUS
  0
LAYER
  2
DEFPOINTS
 70
     0
 62
    -7
  6
CONTINUOUS
  0
LAYER
  2
道路偏置线_A4-3
 70
     0
 62
     1
  6
CONTINUOUS
  0
LAYER
  2
XREF|中心线
 70
    48
 62
     1
  6
XREF|CENTER
  0
LAYER
  2
XREF|SJX
 70
    48
 62
     1
  6
CONTINUOUS
  0
LAYER
  2
XREF|PIER
 70
    48
 62
     6
  6
CONTINUOUS
  0
LAYER
  2
XREF|CAPBEAM
 70
    48
 62
     6
  6
CONTINUOUS
  0
LAYER
  2
XREF|粗实线
 70
    48
 62
     3
  6
CONTINUOUS
  0
LAYER
  2
XREF|细实线
 70
    48
 62
     4
  6
CONTINUOUS
  0
LAYER
  2
XREF|虚线
 70
    48
 62
     2
  6
XREF|DASHED
  0
LAYER
  2
XREF|粗线
 70
    48
 62
     4
  6
CONTINUOUS
  0
LAYER
  2
XREF|细线
 70
    48
 62
     2
  6
CONTINUOUS
  0
LAYER
  2
XREF|桥墩平面$0$PIER
 70
    48
 62
     6
  6
CONTINUOUS
  0
LAYER
  2
XREF|桥墩平面$0$CAPBEAM
 70
    48
 62
     6
  6
CONTINUOUS
  0
LAYER
  2
XREF|桥墩平面$0$中心线
 70
    48
 62
     1
  6
CONTINUOUS
  0
LAYER
  2
XREF|桥墩平面$0$SEWER_LINE
 70
    48
 62
    92
  6
CONTINUOUS
  0
ENDTAB
  0
TABLE
  2
STYLE
 70
    13
  0
STYLE
  2
STANDARD
 70
     0
 40
0.0
 41
1.0
 50
0.0
 71
     0
 42
2.0
  3
txt
  4

  0
STYLE
  2
EICAD
 70
     0
 40
2.0
 41
0.7
 50
0.0
 71
     0
 42
2.0
  3
txt
  4

  0
ENDTAB
  0
TABLE
  2
VIEW
 70
     0
  0
ENDTAB
  0
TABLE
  2
UCS
 70
     0
  0
ENDTAB
  0
TABLE
  2
APPID
 70
    54
  0
APPID
  2
ACAD
 70
     0
  0
APPID
  2
ACADANNOTATIVE
 70
     0
  0
APPID
  2
ACAD_PSEXT
 70
     0
  0
APPID
  2
EICADPM
 70
     0
  0
APPID
  2
EICADREL
 70
     0
  0
APPID
  2
ACAECLAYERSTANDARD
 70
     0
  0
APPID
  2
ACCMTRANSPARENCY
 70
     0
  0
APPID
  2
ACAD_NAV_VCDISPLAY
 70
     0
  0
APPID
  2
ACADCODEPAGEINFO
 70
     0
  0
APPID
  2
ADE_PROJECTION
 70
     0
  0
APPID
  2
AECCLAND130
 70
     0
  0
APPID
  2
ACAD_MLEADERVER
 70
     0
  0
APPID
  2
ACADANNOPO
 70
     0
  0
APPID
  2
ACAD_DSTYLE_DIMJAG
 70
     0
  0
APPID
  2
ACAD_DSTYLE_DIMTALN
 70
     0
  0
APPID
  2
ACXREFLAYERPROPERTYOVERRIDE
 70
     0
  0
APPID
  2
ACDBDYNAMICBLOCKGUID
 70
     0
  0
APPID
  2
ACDBBLOCKREPETAG
 70
     0
  0
APPID
  2
ACDBATTR
 70
     0
  0
APPID
  2
SOUTH
 70
     0
  0
APPID
  2
ATTRIBUTE
 70
     0
  0
APPID
  2
EXPLODE
 70
     0
  0
APPID
  2
ACAD_EXEMPT_FROM_CAD_STANDARDS
 70
     0
  0
APPID
  2
ACAUTHENVIRON
 70
     0
  0
APPID
  2
ACDBDYNAMICBLOCKTRUENAME
 70
     0
  0
APPID
  2
ACAD_DSTYLE_DIMJOGGED_JOGA
 70
     0
  0
APPID
  2
EICAD_RAMPPROFILE
 70
     0
  0
APPID
  2
EICAD_BASEASSEMBLY
 70
     0
  0
APPID
  2
EICAD_HTNOSE
 70
     0
  0
APPID
  2
DICAD_PRO_LHB_YJ_NEW
 70
     0
  0
APPID
  2
E3_LISTELV
 70
     0
  0
APPID
  2
EICAD3_OFFCOLOR
 70
     0
  0
APPID
  2
ACAD_DSTYLE_DIMRADIAL_EXTENSION
 70
     0
  0
APPID
  2
HINTCAD_TEMPLATE_TK
 70
     0
  0
APPID
  2
EICAD_PMFT
 70
     0
  0
APPID
  2
EICAD_BOUNDARY
 70
     0
  0
APPID
  2
ACAD_OBJECT_CHANGE_GUID
 70
     0
  0
APPID
  2
NAME
 70
     0
  0
APPID
  2
CODE
 70
     0
  0
APPID
  2
ENDPOLE
 70
     0
  0
APPID
  2
ADE
 70
     0
  0
APPID
  2
EICAD_ZDT_PARA_V1
 70
     0
  0
APPID
  2
AECGUIBASE
 70
     0
  0
APPID
  2
GRADIENTCOLOR1ACI
 70
     0
  0
APPID
  2
ET_ROADBX
 70
     0
  0
APPID
  2
ACADANNOTATIVEDECOMPOSITION
 70
     0
  0
APPID
  2
ACAD_DSTYLE_DIMBREAK
 70
     0
  0
APPID
  2
ACAD_DSTYLE_DIMEXT_ENABLED
 70
     0
  0
APPID
  2
ACAD_DSTYLE_DIMEXT_LENGTH
 70
     0
  0
APPID
  2
ACAD_DSTYLE_DIM_LINETYPE
 70
     0
  0
APPID
  2
DCO15
 70
     0
  0
APPID
  2
AEC_XDATA_BOUND_SPACE
 70
     0
  0
APPID
  2
_LAYERMANAGE
 70
     0
  0
APPID
  2
ACADSTRINGINFO
 70
     0
  0
ENDTAB
  0
TABLE
  2
DIMSTYLE
 70
    11
  0
DIMSTYLE
  2
STANDARD
 70
     0
  3

  4

  5

  6

  7

 40
1.0
 41
0.18
 42
0.0625
 43
0.38
 44
0.18
 45
0.0
 46
0.0
 47
0.0
 48
0.0
140
0.18
141
0.09
142
0.0
143
25.3999999999999986
144
1.0
145
0.0
146
1.0
147
0.09
 71
     0
 72
     0
 73
     1
 74
     1
 75
     0
 76
     0
 77
     0
 78
     0
170
     0
171
     2
172
     0
173
     0
174
     0
175
     0
176
     0
177
     0
178
     0
  0
DIMSTYLE
  2
ISO-25
 70
     0
  3

  4

  5

  6

  7

 40
1.0
 41
2.5
 42
0.625
 43
3.75
 44
1.25
 45
0.0
 46
0.0
 47
0.0
 48
0.0
140
2.5
141
2.5
142
0.0
143
0.03937007874016
144
1.0
145
0.0
146
1.0
147
0.625
 71
     0
 72
     0
 73
     0
 74
     0
 75
     0
 76
     0
 77
     1
 78
     8
170
     0
171
     3
172
     1
173
     0
174
     0
175
     0
176
     0
177
     0
178
     0
  0
ENDTAB
  0
ENDSEC
  0
SECTION
  2
BLOCKS
  0
BLOCK
  8
0
  2
$MODEL_SPACE
 70
     0
 10
0.0
 20
0.0
 30
0.0
  3
$MODEL_SPACE
  1

  0
ENDBLK
  5
42DF
  8
0
  0
BLOCK
 67
     1
  8
0
  2
$PAPER_SPACE
 70
     0
 10
0.0
 20
0.0
 30
0.0
  3
$PAPER_SPACE
  1

  0
ENDBLK
  5
42DB
 67
     1
  8
0
  0
BLOCK
  8
0
 62
     2
  2
XREF
 70
    36
 10
0.0
 20
0.0
 30
0.0
  3
XREF
  1
C:\Users\IBD2\Desktop\SEC205~206开工段\桥墩平面-更新HSI02方案.dwg
  0
ENDBLK
  5
538F
  8
0
 62
     2
  0
ENDSEC
  0
SECTION
  2
ENTITIES
  0
LINE
  5
AA
  8
0A
 10
474588.3357393767219037
 20
9853180.6452838238328695
 30
0.0
 11
474467.251055542496033
 21
9853243.5047605074942112
 31
0.0
  0
ARC
  5
AB
  8
0A
 10
477234.7420629931730218
 20
9858574.4554987642914057
 30
0.0
 40
6006.4999999999990905
 50
242.0949908653209093
 51
242.5645273692520902
  0
ARC
  5
AC
  8
0A
 10
471011.3702576811192557
 20
9848360.3523509837687016
 30
0.0
 40
6006.4999999999990905
 50
58.1709201421546211
 51
58.2137220330546867
  0
LINE
  5
AD
  8
0A
 10
473122.4925009795115329
 20
9854081.6897153630852699
 30
0.0
 11
473122.6440910267992876
 21
9854081.6067383121699095
 31
0.0
  0
ARC
  5
AE
  8
0A
 10
472754.6098663639859296
 20
9853565.6033510267734528
 30
0.0
 40
595.0
 50
56.0538317470738718
 51
59.6030163525752528
  0
ARC
  5
AF
  8
0A
 10
471724.1322389133856632
 20
9851421.8751395996659994
 30
0.0
 40
3005.0
 50
62.26747929278865
 51
62.4654215385539331
  0
ARC
  5
B0
  8
0A
 10
472568.5361909157945774
 20
9855426.9569685775786638
 30
0.0
 40
889.2000000000000455
 50
209.53719802931559
 51
233.9600382859987917
  0
ARC
  5
B1
  8
0A
 10
472615.8334033684805036
 20
9855582.29964280128479
 30
0.0
 40
995.5
 50
205.3529643362315937
 51
211.8200560201119913
  0
ARC
  5
B2
  8
0A
 10
469910.882129343226552
 20
9853903.847663713619113
 30
0.0
 40
2187.8885155532329918
 50
31.3757850506025413
 51
31.8200560201120908
  0
ARC
  5
B4
  8
0A
 10
475095.0484741564141586
 20
9853991.8615834638476372
 30
0.0
 40
925.7000000000000455
 50
245.3935471766644127
 51
271.8886144392928941
  0
LINE
  5
B5
  8
0A
 10
473144.9096266502165236
 20
9854056.7257503792643547
 30
0.0
 11
474073.9058386203250848
 21
9853511.7526479866355658
 31
0.0
  0
ARC
  5
2E4
  8
0A
 62
     2
 10
472775.5707127618952654
 20
9855571.3482409883290529
 30
0.0
 40
1167.2285232760868894
 50
215.8784603595051976
 51
227.3820398497321094
  0
LINE
  5
2E9
  8
0A
 62
     2
 10
473122.6440910265082493
 20
9854081.6067383121699095
 30
0.0
 11
473117.9875867724185809
 21
9854073.0998116191476583
 31
0.0
  0
LINE
  5
2EA
  8
0A
 62
     2
 10
473117.9875867724185809
 20
9854073.0998116191476583
 30
0.0
 11
473122.0558120582718402
 21
9854070.132386576384306
 31
0.0
  0
LINE
  5
2EB
  8
0A
 62
     2
 10
473122.0558120582718402
 20
9854070.132386576384306
 30
0.0
 11
474169.074349666305352
 21
9853455.9243485368788242
 31
0.0
  0
LINE
  5
2EC
  8
0A
 62
     2
 10
474169.074349666305352
 20
9853455.9243485368788242
 30
0.0
 11
474175.3110767417238094
 21
9853465.9885252024978399
 31
0.0
  0
LINE
  5
5B7
  8
0A
 10
474415.2255207527196035
 20
9853271.166217315942049
 30
0.0
 11
474421.7757326088030823
 21
9853282.6397845931351185
 31
0.0
  0
ARC
  5
5B8
  8
0A
 10
474421.2323792891111225
 20
9853281.8002804722636938
 30
0.0
 40
0.999999999553443
 50
57.0877930374662697
 51
59.6030147181494314
  0
LINE
  5
5B9
  8
0A
 10
474421.7383676696917973
 20
9853282.66282076574862
 30
0.0
 11
473147.7387890490936115
 21
9854030.0237829126417637
 31
0.0
  0
LINE
  5
5BA
  8
0A
 10
473147.7387890490936115
 20
9854030.0237829126417637
 30
0.0
 11
473141.4162981028202921
 21
9854020.8166284803301096
 31
0.0
  0
LINE
  5
5BB
  8
0A
 10
473113.2952019568183459
 20
9854086.5048065688461065
 30
0.0
 11
473021.0425502969883382
 21
9854134.5992823299020529
 31
0.0
  0
LINE
  5
5BC
  8
0A
 10
473021.0425502969883382
 20
9854134.5992823299020529
 30
0.0
 11
472949.9809006314026192
 21
9854171.0759610645473003
 31
0.0
  0
LINE
  5
5BD
  8
0A
 10
472204.1314824193250388
 20
9854613.2479020915925503
 30
0.0
 11
472230.0077227893052623
 21
9854598.0682331044226885
 31
0.0
  0
LINE
  5
5BE
  8
0A
 10
472230.0077227893052623
 20
9854598.0682331044226885
 30
0.0
 11
472288.3615908892825246
 21
9854559.1988868527114391
 31
0.0
  0
LINE
  5
5BF
  8
0A
 10
472288.3615908892825246
 20
9854559.1988868527114391
 30
0.0
 11
472949.9809006003779359
 21
9854171.0759610868990421
 31
0.0
  0
ARC
  5
5C0
  8
0A
 10
472144.0645367144024931
 20
9853923.5636984147131443
 30
0.0
 40
595.5000000005782113
 50
61.9903404287463005
 51
69.6800801076151686
  0
LINE
  5
5C2
  8
0A
 10
472357.6189866358763538
 20
9854493.5284069739282131
 30
0.0
 11
472171.8306057705194689
 21
9854602.5166557971388102
 31
0.0
  0
LINE
  5
5C3
  8
0A
 10
472171.8306057705194689
 20
9854602.5166557971388102
 30
0.0
 11
472169.2426912030787207
 21
9854604.0348317846655846
 31
0.0
  0
LINE
  5
5C4
  8
0A
 10
472169.2426912030787207
 20
9854604.0348317846655846
 30
0.0
 11
472166.6542568550794385
 21
9854605.5535446535795927
 31
0.0
  0
LINE
  5
5C5
  8
0A
 10
472166.6542568550794385
 20
9854605.5535446535795927
 30
0.0
 11
472164.0654040775261819
 21
9854607.072967080399394
 31
0.0
  0
LINE
  5
5C6
  8
0A
 10
472164.0654040775261819
 20
9854607.072967080399394
 30
0.0
 11
472161.4762343614711426
 21
9854608.593271816149354
 31
0.0
  0
LINE
  5
5C7
  8
0A
 10
472161.4762343614711426
 20
9854608.593271816149354
 30
0.0
 11
472158.8868493760819547
 21
9854610.1146316770464182
 31
0.0
  0
LINE
  5
5C8
  8
0A
 10
472158.8868493760819547
 20
9854610.1146316770464182
 30
0.0
 11
472156.2973510008887388
 21
9854611.6372195202857256
 31
0.0
  0
LINE
  5
5C9
  8
0A
 10
472156.2973510008887388
 20
9854611.6372195202857256
 30
0.0
 11
472153.7078413616982289
 21
9854613.1612082328647375
 31
0.0
  0
LINE
  5
5CA
  8
0A
 10
472153.7078413616982289
 20
9854613.1612082328647375
 30
0.0
 11
472151.1184228640049696
 21
9854614.6867706924676895
 31
0.0
  0
LINE
  5
5CB
  8
0A
 10
472151.1184228640049696
 20
9854614.6867706924676895
 30
0.0
 11
472148.5291982284979895
 21
9854616.2140797637403011
 31
0.0
  0
LINE
  5
5CC
  8
0A
 10
472148.5291982284979895
 20
9854616.2140797637403011
 30
0.0
 11
472145.9402705262764357
 21
9854617.7433082722127438
 31
0.0
  0
LINE
  5
5CD
  8
0A
 10
472145.9402705262764357
 20
9854617.7433082722127438
 30
0.0
 11
472143.351743211504072
 21
9854619.274628983810544
 31
0.0
  0
LINE
  5
5CE
  8
0A
 10
472143.351743211504072
 20
9854619.274628983810544
 30
0.0
 11
472140.7637201576144435
 21
9854620.8082145825028419
 31
0.0
  0
LINE
  5
5CF
  8
0A
 10
472140.7637201576144435
 20
9854620.8082145825028419
 30
0.0
 11
472138.1763056918862276
 21
9854622.3442376498132944
 31
0.0
  0
LINE
  5
5D0
  8
0A
 10
472138.1763056918862276
 20
9854622.3442376498132944
 30
0.0
 11
472135.5896046286216006
 21
9854623.8828706368803978
 31
0.0
  0
LINE
  5
5D1
  8
0A
 10
472135.5896046286216006
 20
9854623.8828706368803978
 30
0.0
 11
472133.0037223052931949
 21
9854625.4242858644574881
 31
0.0
  0
LINE
  5
5D2
  8
0A
 10
472133.0037223052931949
 20
9854625.4242858644574881
 30
0.0
 11
472130.4187646158970892
 21
9854626.9686554726213217
 31
0.0
  0
LINE
  5
5D3
  8
0A
 10
472130.4187646158970892
 20
9854626.9686554726213217
 30
0.0
 11
472127.8348380455281585
 21
9854628.5161514133214951
 31
0.0
  0
LINE
  5
5D4
  8
0A
 10
472127.8348380455281585
 20
9854628.5161514133214951
 30
0.0
 11
472125.2520497040823102
 21
9854630.0669454429298639
 31
0.0
  0
LINE
  5
5D5
  8
0A
 10
472125.2520497040823102
 20
9854630.0669454429298639
 30
0.0
 11
472122.6705073628108948
 21
9854631.6212090719491243
 31
0.0
  0
LINE
  5
5D6
  8
0A
 10
472122.6705073628108948
 20
9854631.6212090719491243
 30
0.0
 11
472120.0903194856946357
 21
9854633.1791135463863611
 31
0.0
  0
LINE
  5
5D7
  8
0A
 10
472120.0903194856946357
 20
9854633.1791135463863611
 30
0.0
 11
472117.5115952646010555
 21
9854634.7408298552036285
 31
0.0
  0
LINE
  5
5D8
  8
0A
 10
472117.5115952646010555
 20
9854634.7408298552036285
 30
0.0
 11
472114.934444653976243
 21
9854636.3065286725759506
 31
0.0
  0
LINE
  5
5D9
  8
0A
 10
472114.934444653976243
 20
9854636.3065286725759506
 30
0.0
 11
472112.3589784036739729
 21
9854637.8763803634792566
 31
0.0
  0
LINE
  5
5DA
  8
0A
 10
472112.3589784036739729
 20
9854637.8763803634792566
 30
0.0
 11
472109.7853080932982266
 21
9854639.4505549296736717
 31
0.0
  0
LINE
  5
5DB
  8
0A
 10
472109.7853080932982266
 20
9854639.4505549296736717
 30
0.0
 11
472107.2135461652069353
 21
9854641.0292220078408718
 31
0.0
  0
LINE
  5
5DC
  8
0A
 10
472107.2135461652069353
 20
9854641.0292220078408718
 30
0.0
 11
472104.6438059597276151
 21
9854642.6125508323311806
 31
0.0
  0
LINE
  5
5DD
  8
0A
 10
472104.6438059597276151
 20
9854642.6125508323311806
 30
0.0
 11
472102.0762017460074276
 21
9854644.2007102388888597
 31
0.0
  0
LINE
  5
5DE
  8
0A
 10
472102.0762017460074276
 20
9854644.2007102388888597
 30
0.0
 11
472099.5108487568795681
 21
9854645.7938685808330774
 31
0.0
  0
LINE
  5
5DF
  8
0A
 10
472099.5108487568795681
 20
9854645.7938685808330774
 30
0.0
 11
472096.947863222216256
 21
9854647.3921937923878431
 31
0.0
  0
LINE
  5
5E0
  8
0A
 10
472096.947863222216256
 20
9854647.3921937923878431
 30
0.0
 11
472094.3873624007101171
 21
9854648.9958532713353634
 31
0.0
  0
LINE
  5
5E1
  8
0A
 10
472094.3873624007101171
 20
9854648.9958532713353634
 30
0.0
 11
472091.8294646128197201
 21
9854650.6050139237195253
 31
0.0
  0
LINE
  5
5E2
  8
0A
 10
472091.8294646128197201
 20
9854650.6050139237195253
 30
0.0
 11
472089.274289274471812
 21
9854652.2198421005159616
 31
0.0
  0
LINE
  5
5E3
  8
0A
 10
472089.274289274471812
 20
9854652.2198421005159616
 30
0.0
 11
472086.7219569283770397
 21
9854653.8405035529285669
 31
0.0
  0
LINE
  5
5E4
  8
0A
 10
472086.7219569283770397
 20
9854653.8405035529285669
 30
0.0
 11
472084.1725892765098251
 21
9854655.4671634919941425
 31
0.0
  0
LINE
  5
5E5
  8
0A
 10
472084.1725892765098251
 20
9854655.4671634919941425
 30
0.0
 11
472081.6263092117151245
 21
9854657.0999864544719458
 31
0.0
  0
LINE
  5
5E6
  8
0A
 10
472081.6263092117151245
 20
9854657.0999864544719458
 30
0.0
 11
472079.0832408497808501
 21
9854658.7391363400965929
 31
0.0
  0
LINE
  5
5E7
  8
0A
 10
472079.0832408497808501
 20
9854658.7391363400965929
 30
0.0
 11
472076.5435095619759522
 21
9854660.3847763687372208
 31
0.0
  0
LINE
  5
5E8
  8
0A
 10
472076.5435095619759522
 20
9854660.3847763687372208
 30
0.0
 11
472074.0072420036885887
 21
9854662.037069046869874
 31
0.0
  0
LINE
  5
5E9
  8
0A
 10
472074.0072420036885887
 20
9854662.037069046869874
 30
0.0
 11
472071.4745661484193988
 21
9854663.6961761526763439
 31
0.0
  0
LINE
  5
5EA
  8
0A
 10
472071.4745661484193988
 20
9854663.6961761526763439
 30
0.0
 11
472068.9456113165942952
 21
9854665.3622586820274591
 31
0.0
  0
LINE
  5
5EB
  8
0A
 10
472068.9456113165942952
 20
9854665.3622586820274591
 30
0.0
 11
472066.4205082067055628
 21
9854667.0354768391698599
 31
0.0
  0
LINE
  5
5EC
  8
0A
 10
472066.4205082067055628
 20
9854667.0354768391698599
 30
0.0
 11
472063.8993889255798422
 21
9854668.7159900162369013
 31
0.0
  0
LINE
  5
5ED
  8
0A
 10
472063.8993889255798422
 20
9854668.7159900162369013
 30
0.0
 11
472061.3823870182968676
 21
9854670.4039567280560732
 31
0.0
  0
LINE
  5
5EE
  8
0A
 10
472061.3823870182968676
 20
9854670.4039567280560732
 30
0.0
 11
472058.8696374978171661
 21
9854672.0995346084237099
 31
0.0
  0
LINE
  5
5EF
  8
0A
 10
472058.8696374978171661
 20
9854672.0995346084237099
 30
0.0
 11
472056.361276873620227
 21
9854673.802880372852087
 31
0.0
  0
LINE
  5
5F0
  8
0A
 10
472056.361276873620227
 20
9854673.802880372852087
 30
0.0
 11
472053.8574431817978621
 21
9854675.5141497869044542
 31
0.0
  0
LINE
  5
5F1
  8
0A
 10
472053.8574431817978621
 20
9854675.5141497869044542
 30
0.0
 11
472051.3582760125282221
 21
9854677.2334976345300674
 31
0.0
  0
LINE
  5
5F2
  8
0A
 10
472051.3582760125282221
 20
9854677.2334976345300674
 30
0.0
 11
472048.8639165398199111
 21
9854678.961077656596899
 31
0.0
  0
LINE
  5
5F3
  8
0A
 10
472048.8639165398199111
 20
9854678.961077656596899
 30
0.0
 11
472046.3745075471815653
 21
9854680.6970425918698311
 31
0.0
  0
LINE
  5
5F4
  8
0A
 10
472046.3745075471815653
 20
9854680.6970425918698311
 30
0.0
 11
472043.8901934580062516
 21
9854682.4415440559387207
 31
0.0
  0
ARC
  5
5F6
  8
0A
 10
472542.7638117806054652
 20
9855279.426538597792387
 30
0.0
 40
745.4999999661246193
 50
230.8397736915401879
 51
236.1652694466172022
  0
LINE
  5
5F7
  8
0A
 10
471712.4097869857796468
 20
9855104.2733291648328304
 30
0.0
 11
471152.0737674389965832
 21
9856286.8427515029907227
 31
0.0
  0
LINE
  5
615
  8
0A
 10
471716.2128819883801043
 20
9855156.0330976471304893
 30
0.0
 11
471678.3428712881286629
 21
9855226.6148477680981159
 31
0.0
  0
LINE
  5
616
  8
0A
 10
471678.3428712881286629
 20
9855226.6148477680981159
 30
0.0
 11
471171.5934090879745781
 21
9856296.0917292833328247
 31
0.0
  0
ARC
  5
656
  8
0A
 10
475095.0484741576947272
 20
9853991.8615834638476372
 30
0.0
 40
954.3000000001317176
 50
245.3935471765765044
 51
271.8886144392099027
  0
ARC
  5
657
  8
0A
 10
475095.0484761167899705
 20
9853991.8615835029631853
 30
0.0
 40
954.3000008496495639
 50
245.3935470705787907
 51
245.421026253370087
  0
LINE
  5
7A8
  8
0A
 10
471806.8810105806915089
 20
9854920.2613733056932688
 30
0.0
 11
471804.3165623837267049
 21
9854924.6575179118663073
 31
0.0
  0
LINE
  5
7A9
  8
0A
 10
471804.3165623837267049
 20
9854924.6575179118663073
 30
0.0
 11
471801.7774448018171825
 21
9854929.0665126778185368
 31
0.0
  0
LINE
  5
7AA
  8
0A
 10
471801.7774448018171825
 20
9854929.0665126778185368
 30
0.0
 11
471799.2637214381829835
 21
9854933.4882118925452232
 31
0.0
  0
LINE
  5
7AB
  8
0A
 10
471799.2637214381829835
 20
9854933.4882118925452232
 30
0.0
 11
471796.7754550580284558
 21
9854937.9224695079028606
 31
0.0
  0
LINE
  5
7AC
  8
0A
 10
471796.7754550580284558
 20
9854937.9224695079028606
 30
0.0
 11
471794.3127075883094221
 21
9854942.3691391870379448
 31
0.0
  0
LINE
  5
7AD
  8
0A
 10
471794.3127075883094221
 20
9854942.3691391870379448
 30
0.0
 11
471791.8755401159869507
 21
9854946.828074287623167
 31
0.0
  0
LINE
  5
7AE
  8
0A
 10
471791.8755401159869507
 20
9854946.828074287623167
 30
0.0
 11
471789.4640128861065023
 21
9854951.2991278767585754
 31
0.0
  0
LINE
  5
7AF
  8
0A
 10
471789.4640128861065023
 20
9854951.2991278767585754
 30
0.0
 11
471787.0781853013904765
 21
9854955.782152721658349
 31
0.0
  0
LINE
  5
7B0
  8
0A
 10
471787.0781853013904765
 20
9854955.782152721658349
 30
0.0
 11
471784.7181159203173593
 21
9854960.2770013231784105
 31
0.0
  0
LINE
  5
7B1
  8
0A
 10
471784.7181159203173593
 20
9854960.2770013231784105
 30
0.0
 11
471782.3838624553172849
 21
9854964.7835258655250072
 31
0.0
  0
LINE
  5
7B2
  8
0A
 10
471782.3838624553172849
 20
9854964.7835258655250072
 30
0.0
 11
471780.0754817717825063
 21
9854969.3015782926231623
 31
0.0
  0
LINE
  5
7B3
  8
0A
 10
471780.0754817717825063
 20
9854969.3015782926231623
 30
0.0
 11
471777.7934094259981066
 21
9854973.8300521802157164
 31
0.0
  0
LINE
  5
7B4
  8
0A
 10
471777.7934094259981066
 20
9854973.8300521802157164
 30
0.0
 11
471775.537504744308535
 21
9854978.3675598111003637
 31
0.0
  0
LINE
  5
7B5
  8
0A
 10
471775.537504744308535
 20
9854978.3675598111003637
 30
0.0
 11
471773.3069052204955369
 21
9854982.9136298075318336
 31
0.0
  0
LINE
  5
7B6
  8
0A
 10
473055.6729391168919392
 20
9854078.8148339707404375
 30
0.0
 11
472973.2239522159798071
 21
9854127.1815329939126968
 31
0.0
1001
ACADCODEPAGEINFO
1000
CodePage
1070
    39
  0
LINE
  5
7B8
  8
0A
 10
472973.2239522159798071
 20
9854127.1815329939126968
 30
0.0
 11
472971.5639272467233241
 21
9854128.3044077455997467
 31
0.0
1001
ACADCODEPAGEINFO
1000
CodePage
1070
    39
  0
LINE
  5
7B9
  8
0A
 10
472971.5639272467233241
 20
9854128.3044077455997467
 30
0.0
 11
472970.7339147620950826
 21
9854128.8658451233059168
 31
0.0
1001
ACADCODEPAGEINFO
1000
CodePage
1070
    39
  0
LINE
  5
7BA
  8
0A
 10
472970.7339147620950826
 20
9854128.8658451233059168
 30
0.0
 11
472969.9039022776996717
 21
9854129.4272824991494417
 31
0.0
1001
ACADCODEPAGEINFO
1000
CodePage
1070
    39
  0
LINE
  5
7BB
  8
0A
 10
472969.9039022776996717
 20
9854129.4272824991494417
 30
0.0
 11
472968.243877308384981
 21
9854130.5501572582870722
 31
0.0
1001
ACADCODEPAGEINFO
1000
CodePage
1070
    39
  0
LINE
  5
7BC
  8
0A
 10
472968.243877308384981
 20
9854130.5501572582870722
 30
0.0
 11
472967.4138648236985318
 21
9854131.1115946378558874
 31
0.0
1001
ACADCODEPAGEINFO
1000
CodePage
1070
    39
  0
LINE
  5
7BD
  8
0A
 10
472967.4138648236985318
 20
9854131.1115946378558874
 30
0.0
 11
472966.5838523390120827
 21
9854131.6730320118367672
 31
0.0
1001
ACADCODEPAGEINFO
1000
CodePage
1070
    39
  0
LINE
  5
7BE
  8
0A
 10
472966.5838523390120827
 20
9854131.6730320118367672
 30
0.0
 11
472965.7538398543256335
 21
9854132.2344693876802921
 31
0.0
1001
ACADCODEPAGEINFO
1000
CodePage
1070
    39
  0
LINE
  5
7BF
  8
0A
 10
472965.7538398543256335
 20
9854132.2344693876802921
 30
0.0
 11
472964.923827369872015
 21
9854132.7959067653864622
 31
0.0
1001
ACADCODEPAGEINFO
1000
CodePage
1070
    39
  0
LINE
  5
7C0
  8
0A
 10
472964.923827369872015
 20
9854132.7959067653864622
 30
0.0
 11
472964.0938148851855658
 21
9854133.3573441412299871
 31
0.0
1001
ACADCODEPAGEINFO
1000
CodePage
1070
    39
  0
LINE
  5
7C1
  8
0A
 10
472964.0938148851855658
 20
9854133.3573441412299871
 30
0.0
 11
472963.2638024006737396
 21
9854133.9187815207988024
 31
0.0
1001
ACADCODEPAGEINFO
1000
CodePage
1070
    39
  0
LINE
  5
7C2
  8
0A
 10
472963.2638024006737396
 20
9854133.9187815207988024
 30
0.0
 11
472962.4337899161037058
 21
9854134.4802188966423273
 31
0.0
1001
ACADCODEPAGEINFO
1000
CodePage
1070
    39
  0
LINE
  5
7C3
  8
0A
 10
472962.4337899161037058
 20
9854134.4802188966423273
 30
0.0
 11
472959.9437524623936042
 21
9854136.1645310316234827
 31
0.0
1001
ACADCODEPAGEINFO
1000
CodePage
1070
    39
  0
LINE
  5
7C4
  8
0A
 10
472959.9437524623936042
 20
9854136.1645310316234827
 30
0.0
 11
472959.1137399775907397
 21
9854136.7259684018790722
 31
0.0
1001
ACADCODEPAGEINFO
1000
CodePage
1070
    39
  0
LINE
  5
7C5
  8
0A
 10
472959.1137399775907397
 20
9854136.7259684018790722
 30
0.0
 11
472958.2837274930207059
 21
9854137.2874057833105326
 31
0.0
1001
ACADCODEPAGEINFO
1000
CodePage
1070
    39
  0
LINE
  5
7C6
  8
0A
 10
472958.2837274930207059
 20
9854137.2874057833105326
 30
0.0
 11
472957.453715008276049
 21
9854137.8488431591540575
 31
0.0
1001
ACADCODEPAGEINFO
1000
CodePage
1070
    39
  0
LINE
  5
7C7
  8
0A
 10
472957.453715008276049
 20
9854137.8488431591540575
 30
0.0
 11
472956.6237025238224305
 21
9854138.4102805368602276
 31
0.0
1001
ACADCODEPAGEINFO
1000
CodePage
1070
    39
  0
LINE
  5
7C8
  8
0A
 10
472956.6237025238224305
 20
9854138.4102805368602276
 30
0.0
 11
472955.7936900389031507
 21
9854138.9717179127037525
 31
0.0
1001
ACADCODEPAGEINFO
1000
CodePage
1070
    39
  0
LINE
  5
7C9
  8
0A
 10
472955.7936900389031507
 20
9854138.9717179127037525
 30
0.0
 11
472954.9636775546241552
 21
9854139.5331552866846323
 31
0.0
1001
ACADCODEPAGEINFO
1000
CodePage
1070
    39
  0
LINE
  5
7CA
  8
0A
 10
472954.9636775546241552
 20
9854139.5331552866846323
 30
0.0
 11
472954.133665070286952
 21
9854140.0945926681160927
 31
0.0
1001
ACADCODEPAGEINFO
1000
CodePage
1070
    39
  0
LINE
  5
7CB
  8
0A
 10
472954.133665070286952
 20
9854140.0945926681160927
 30
0.0
 11
472951.6436276162858121
 21
9854141.7789048030972481
 31
0.0
1001
ACADCODEPAGEINFO
1000
CodePage
1070
    39
  0
LINE
  5
7CC
  8
0A
 10
472951.6436276162858121
 20
9854141.7789048030972481
 30
0.0
 11
472950.8136151314829476
 21
9854142.3403421770781279
 31
0.0
1001
ACADCODEPAGEINFO
1000
CodePage
1070
    39
  0
LINE
  5
7CD
  8
0A
 10
472950.8136151314829476
 20
9854142.3403421770781279
 30
0.0
 11
472949.1535901622264646
 21
9854143.4632169306278229
 31
0.0
1001
ACADCODEPAGEINFO
1000
CodePage
1070
    39
  0
LINE
  5
7CE
  8
0A
 10
472949.1535901622264646
 20
9854143.4632169306278229
 30
0.0
 11
472947.4935651932028122
 21
9854144.5860916841775179
 31
0.0
1001
ACADCODEPAGEINFO
1000
CodePage
1070
    39
  0
LINE
  5
7CF
  8
0A
 10
472947.4935651932028122
 20
9854144.5860916841775179
 30
0.0
 11
472945.8335402242955752
 21
9854145.7089664395898581
 31
0.0
1001
ACADCODEPAGEINFO
1000
CodePage
1070
    39
  0
LINE
  5
7D0
  8
0A
 10
472945.8335402242955752
 20
9854145.7089664395898581
 30
0.0
 11
472944.1735152546898462
 21
9854146.8318411987274885
 31
0.0
1001
ACADCODEPAGEINFO
1000
CodePage
1070
    39
  0
LINE
  5
7D1
  8
0A
 10
472944.1735152546898462
 20
9854146.8318411987274885
 30
0.0
 11
472943.34350277017802
 21
9854147.3932785671204329
 31
0.0
1001
ACADCODEPAGEINFO
1000
CodePage
1070
    39
  0
LINE
  5
7D2
  8
0A
 10
472943.34350277017802
 20
9854147.3932785671204329
 30
0.0
 11
472940.8534653161768802
 21
9854149.0775907021015882
 31
0.0
1001
ACADCODEPAGEINFO
1000
CodePage
1070
    39
  0
LINE
  5
7D3
  8
0A
 10
472940.8534653161768802
 20
9854149.0775907021015882
 30
0.0
 11
472940.023452831490431
 21
9854149.6390280835330486
 31
0.0
1001
ACADCODEPAGEINFO
1000
CodePage
1070
    39
  0
LINE
  5
7D4
  8
0A
 10
472940.023452831490431
 20
9854149.6390280835330486
 30
0.0
 11
472939.1934403472114354
 21
9854150.2004654575139284
 31
0.0
1001
ACADCODEPAGEINFO
1000
CodePage
1070
    39
  0
LINE
  5
7D5
  8
0A
 10
472939.1934403472114354
 20
9854150.2004654575139284
 30
0.0
 11
472937.5334153781877831
 21
9854151.3233402073383331
 31
0.0
1001
ACADCODEPAGEINFO
1000
CodePage
1070
    39
  0
LINE
  5
7D6
  8
0A
 10
472937.5334153781877831
 20
9854151.3233402073383331
 30
0.0
 11
472935.8733904088148847
 21
9854152.4462149664759636
 31
0.0
1001
ACADCODEPAGEINFO
1000
CodePage
1070
    39
  0
LINE
  5
7D7
  8
0A
 10
472935.8733904088148847
 20
9854152.4462149664759636
 30
0.0
 11
472935.0433779241284356
 21
9854153.0076523404568434
 31
0.0
1001
ACADCODEPAGEINFO
1000
CodePage
1070
    39
  0
LINE
  5
7D8
  8
0A
 10
472935.0433779241284356
 20
9854153.0076523404568434
 30
0.0
 11
472932.553340470418334
 21
9854154.6919644773006439
 31
0.0
1001
ACADCODEPAGEINFO
1000
CodePage
1070
    39
  0
LINE
  5
7D9
  8
0A
 10
472932.553340470418334
 20
9854154.6919644773006439
 30
0.0
 11
472931.7233279856154695
 21
9854155.2534018531441689
 31
0.0
1001
ACADCODEPAGEINFO
1000
CodePage
1070
    39
  0
LINE
  5
7DA
  8
0A
 10
472931.7233279856154695
 20
9854155.2534018531441689
 30
0.0
 11
472930.8933155012200586
 21
9854155.8148392271250486
 31
0.0
1001
ACADCODEPAGEINFO
1000
CodePage
1070
    39
  0
LINE
  5
7DB
  8
0A
 10
472930.8933155012200586
 20
9854155.8148392271250486
 30
0.0
 11
472930.0633030164754018
 21
9854156.3762766066938639
 31
0.0
1001
ACADCODEPAGEINFO
1000
CodePage
1070
    39
  0
LINE
  5
7DC
  8
0A
 10
472930.0633030164754018
 20
9854156.3762766066938639
 30
0.0
 11
472929.233290531905368
 21
9854156.9377139825373888
 31
0.0
1001
ACADCODEPAGEINFO
1000
CodePage
1070
    39
  0
LINE
  5
7DD
  8
0A
 10
472929.233290531905368
 20
9854156.9377139825373888
 30
0.0
 11
472928.4032780472771265
 21
9854157.4991513602435589
 31
0.0
1001
ACADCODEPAGEINFO
1000
CodePage
1070
    39
  0
LINE
  5
7DE
  8
0A
 10
472928.4032780472771265
 20
9854157.4991513602435589
 30
0.0
 11
472927.5732655627070926
 21
9854158.0605887342244387
 31
0.0
1001
ACADCODEPAGEINFO
1000
CodePage
1070
    39
  0
LINE
  5
7DF
  8
0A
 10
472927.5732655627070926
 20
9854158.0605887342244387
 30
0.0
 11
472926.7432530780788511
 21
9854158.6220261119306087
 31
0.0
1001
ACADCODEPAGEINFO
1000
CodePage
1070
    39
  0
LINE
  5
7E0
  8
0A
 10
472926.7432530780788511
 20
9854158.6220261119306087
 30
0.0
 11
472925.0832281088223681
 21
9854159.7449008654803038
 31
0.0
1001
ACADCODEPAGEINFO
1000
CodePage
1070
    39
  0
LINE
  5
7E1
  8
0A
 10
472925.0832281088223681
 20
9854159.7449008654803038
 30
0.0
 11
472924.2532156243105419
 21
9854160.3063382469117641
 31
0.0
1001
ACADCODEPAGEINFO
1000
CodePage
1070
    39
  0
LINE
  5
7E2
  8
0A
 10
472924.2532156243105419
 20
9854160.3063382469117641
 30
0.0
 11
472923.4232031396823004
 21
9854160.8677756246179342
 31
0.0
1001
ACADCODEPAGEINFO
1000
CodePage
1070
    39
  0
LINE
  5
7E3
  8
0A
 10
472923.4232031396823004
 20
9854160.8677756246179342
 30
0.0
 11
472922.5931906549958512
 21
9854161.4292130004614592
 31
0.0
1001
ACADCODEPAGEINFO
1000
CodePage
1070
    39
  0
LINE
  5
7E4
  8
0A
 10
472922.5931906549958512
 20
9854161.4292130004614592
 30
0.0
 11
472921.763178170484025
 21
9854161.9906503800302744
 31
0.0
1001
ACADCODEPAGEINFO
1000
CodePage
1070
    39
  0
LINE
  5
7E5
  8
0A
 10
472921.763178170484025
 20
9854161.9906503800302744
 30
0.0
 11
472920.1031532012857497
 21
9854163.1135251298546791
 31
0.0
1001
ACADCODEPAGEINFO
1000
CodePage
1070
    39
  0
LINE
  5
7E6
  8
0A
 10
472920.1031532012857497
 20
9854163.1135251298546791
 30
0.0
 11
472919.2731407167739235
 21
9854163.6749625094234943
 31
0.0
1001
ACADCODEPAGEINFO
1000
CodePage
1070
    39
  0
LINE
  5
7E7
  8
0A
 10
472919.2731407167739235
 20
9854163.6749625094234943
 30
0.0
 11
472918.4431282320874743
 21
9854164.2363998834043741
 31
0.0
1001
ACADCODEPAGEINFO
1000
CodePage
1070
    39
  0
LINE
  5
7E8
  8
0A
 10
472918.4431282320874743
 20
9854164.2363998834043741
 30
0.0
 11
472916.7831032627727836
 21
9854165.3592746425420046
 31
0.0
1001
ACADCODEPAGEINFO
1000
CodePage
1070
    39
  0
LINE
  5
7E9
  8
0A
 10
472916.7831032627727836
 20
9854165.3592746425420046
 30
0.0
 11
472915.9530907780863345
 21
9854165.9207120183855295
 31
0.0
1001
ACADCODEPAGEINFO
1000
CodePage
1070
    39
  0
LINE
  5
7EA
  8
0A
 10
472915.9530907780863345
 20
9854165.9207120183855295
 30
0.0
 11
472915.1230782938073389
 21
9854166.4821493923664093
 31
0.0
1001
ACADCODEPAGEINFO
1000
CodePage
1070
    39
  0
LINE
  5
7EB
  8
0A
 10
472915.1230782938073389
 20
9854166.4821493923664093
 30
0.0
 11
472538.0578529700287618
 21
9854387.678321136161685
 31
0.0
1001
ACADCODEPAGEINFO
1000
CodePage
1070
    39
  0
LINE
  5
7EC
  8
0A
 10
472538.0578529700287618
 20
9854387.678321136161685
 30
0.0
 11
472467.0307031685952097
 21
9854424.7072119358927011
 31
0.0
1001
ACADCODEPAGEINFO
1000
CodePage
1070
    39
  0
LINE
  5
7ED
  8
0A
 10
472467.0307031685952097
 20
9854424.7072119358927011
 30
0.0
 11
472464.3358107018866576
 21
9854426.2879087645560503
 31
0.0
1001
ACADCODEPAGEINFO
1000
CodePage
1070
    39
  0
LINE
  5
7EE
  8
0A
 10
472464.3358107018866576
 20
9854426.2879087645560503
 30
0.0
 11
472461.6416676404187456
 21
9854427.8669875767081976
 31
0.0
1001
ACADCODEPAGEINFO
1000
CodePage
1070
    39
  0
LINE
  5
7EF
  8
0A
 10
472461.6416676404187456
 20
9854427.8669875767081976
 30
0.0
 11
472458.9477614213246852
 21
9854429.4435721598565578
 31
0.0
1001
ACADCODEPAGEINFO
1000
CodePage
1070
    39
  0
LINE
  5
7F0
  8
0A
 10
472458.9477614213246852
 20
9854429.4435721598565578
 30
0.0
 11
472456.2535819173208438
 21
9854431.0167865715920925
 31
0.0
1001
ACADCODEPAGEINFO
1000
CodePage
1070
    39
  0
LINE
  5
7F1
  8
0A
 10
472456.2535819173208438
 20
9854431.0167865715920925
 30
0.0
 11
472453.5586222892161459
 21
9854432.5857545733451843
 31
0.0
1001
ACADCODEPAGEINFO
1000
CodePage
1070
    39
  0
LINE
  5
7F2
  8
0A
 10
472453.5586222892161459
 20
9854432.5857545733451843
 30
0.0
 11
472450.8623798427870497
 21
9854434.1495991870760918
 31
0.0
1001
ACADCODEPAGEINFO
1000
CodePage
1070
    39
  0
LINE
  5
7F3
  8
0A
 10
472450.8623798427870497
 20
9854434.1495991870760918
 30
0.0
 11
472448.1643568830913864
 21
9854435.7074422035366297
 31
0.0
1001
ACADCODEPAGEINFO
1000
CodePage
1070
    39
  0
LINE
  5
7F4
  8
0A
 10
472448.1643568830913864
 20
9854435.7074422035366297
 30
0.0
 11
472445.4640615744865499
 21
9854437.2584037072956562
 31
0.0
1001
ACADCODEPAGEINFO
1000
CodePage
1070
    39
  0
LINE
  5
7F5
  8
0A
 10
472445.4640615744865499
 20
9854437.2584037072956562
 30
0.0
 11
472442.7610088000074029
 21
9854438.8016015943139791
 31
0.0
1001
ACADCODEPAGEINFO
1000
CodePage
1070
    39
  0
LINE
  5
7F6
  8
0A
 10
472442.7610088000074029
 20
9854438.8016015943139791
 30
0.0
 11
472440.054721026099287
 21
9854440.3361511435359716
 31
0.0
1001
ACADCODEPAGEINFO
1000
CodePage
1070
    39
  0
LINE
  5
7F7
  8
0A
 10
472440.054721026099287
 20
9854440.3361511435359716
 30
0.0
 11
472437.3447291717748158
 21
9854441.861164566129446
 31
0.0
1001
ACADCODEPAGEINFO
1000
CodePage
1070
    39
  0
LINE
  5
7F8
  8
0A
 10
472437.3447291717748158
 20
9854441.861164566129446
 30
0.0
 11
472434.6305734817287885
 21
9854443.3757505640387535
 31
0.0
1001
ACADCODEPAGEINFO
1000
CodePage
1070
    39
  0
LINE
  5
7F9
  8
0A
 10
472434.6305734817287885
 20
9854443.3757505640387535
 30
0.0
 11
472431.9118044038768858
 21
9854444.8790139276534319
 31
0.0
1001
ACADCODEPAGEINFO
1000
CodePage
1070
    39
  0
LINE
  5
7FA
  8
0A
 10
472431.9118044038768858
 20
9854444.8790139276534319
 30
0.0
 11
472429.1879834776045755
 21
9854446.3700551521033049
 31
0.0
1001
ACADCODEPAGEINFO
1000
CodePage
1070
    39
  0
LINE
  5
7FB
  8
0A
 10
472429.1879834776045755
 20
9854446.3700551521033049
 30
0.0
 11
472426.4586842209100723
 21
9854447.8479700181633234
 31
0.0
1001
ACADCODEPAGEINFO
1000
CodePage
1070
    39
  0
LINE
  5
7FC
  8
0A
 10
472426.4586842209100723
 20
9854447.8479700181633234
 30
0.0
 11
472423.7234930329723284
 21
9854449.3118492905050516
 31
0.0
1001
ACADCODEPAGEINFO
1000
CodePage
1070
    39
  0
LINE
  5
7FD
  8
0A
 10
471829.8097679098136723
 20
9854887.2732007056474686
 30
0.0
 11
471828.0027688820264302
 21
9854889.7784722242504358
 31
0.0
1001
ACADCODEPAGEINFO
1000
CodePage
1070
    39
  0
LINE
  5
7FE
  8
0A
 10
471828.0027688820264302
 20
9854889.7784722242504358
 30
0.0
 11
471826.2023995270137675
 21
9854892.2888248171657324
 31
0.0
1001
ACADCODEPAGEINFO
1000
CodePage
1070
    39
  0
LINE
  5
7FF
  8
0A
 10
471826.2023995270137675
 20
9854892.2888248171657324
 30
0.0
 11
471824.4088161052786745
 21
9854894.8043421991169453
 31
0.0
1001
ACADCODEPAGEINFO
1000
CodePage
1070
    39
  0
LINE
  5
800
  8
0A
 10
471824.4088161052786745
 20
9854894.8043421991169453
 30
0.0
 11
471822.6221757021266967
 21
9854897.3251068871468306
 31
0.0
1001
ACADCODEPAGEINFO
1000
CodePage
1070
    39
  0
LINE
  5
801
  8
0A
 10
471822.6221757021266967
 20
9854897.3251068871468306
 30
0.0
 11
471820.842636238608975
 21
9854899.8512001801282167
 31
0.0
1001
ACADCODEPAGEINFO
1000
CodePage
1070
    39
  0
LINE
  5
802
  8
0A
 10
471820.842636238608975
 20
9854899.8512001801282167
 30
0.0
 11
471819.0703564824070781
 21
9854902.3827021233737469
 31
0.0
1001
ACADCODEPAGEINFO
1000
CodePage
1070
    39
  0
LINE
  5
803
  8
0A
 10
471819.0703564824070781
 20
9854902.3827021233737469
 30
0.0
 11
471817.3054960569716059
 21
9854904.9196914862841368
 31
0.0
1001
ACADCODEPAGEINFO
1000
CodePage
1070
    39
  0
LINE
  5
804
  8
0A
 10
471817.3054960569716059
 20
9854904.9196914862841368
 30
0.0
 11
471815.5482154513010755
 21
9854907.4622457250952721
 31
0.0
1001
ACADCODEPAGEINFO
1000
CodePage
1070
    39
  0
LINE
  5
805
  8
0A
 10
471815.5482154513010755
 20
9854907.4622457250952721
 30
0.0
 11
471813.798676029604394
 21
9854910.0104409623891115
 31
0.0
1001
ACADCODEPAGEINFO
1000
CodePage
1070
    39
  0
LINE
  5
806
  8
0A
 10
471813.798676029604394
 20
9854910.0104409623891115
 30
0.0
 11
471812.0570400392753072
 21
9854912.5643519554287195
 31
0.0
1001
ACADCODEPAGEINFO
1000
CodePage
1070
    39
  0
LINE
  5
807
  8
0A
 10
471812.0570400392753072
 20
9854912.5643519554287195
 30
0.0
 11
471810.3234706207877025
 21
9854915.124052045866847
 31
0.0
1001
ACADCODEPAGEINFO
1000
CodePage
1070
    39
  0
LINE
  5
808
  8
0A
 10
471810.3234706207877025
 20
9854915.124052045866847
 30
0.0
 11
471808.5981318135163747
 21
9854917.6896131578832865
 31
0.0
1001
ACADCODEPAGEINFO
1000
CodePage
1070
    39
  0
LINE
  5
809
  8
0A
 10
471808.5981318135163747
 20
9854917.6896131578832865
 30
0.0
 11
471806.8811885648756288
 21
9854920.2611057590693235
 31
0.0
1001
ACADCODEPAGEINFO
1000
CodePage
1070
    39
  0
LINE
  5
80A
  8
0A
 10
472204.131482420314569
 20
9854613.2479020915925503
 30
0.0
 11
472201.544153988303151
 21
9854614.7657728642225266
 31
0.0
1001
ACADCODEPAGEINFO
1000
CodePage
1070
    39
  0
LINE
  5
80B
  8
0A
 10
472201.544153988303151
 20
9854614.7657728642225266
 30
0.0
 11
472198.9575454395962879
 21
9854616.2836849167943001
 31
0.0
1001
ACADCODEPAGEINFO
1000
CodePage
1070
    39
  0
LINE
  5
80C
  8
0A
 10
472198.9575454395962879
 20
9854616.2836849167943001
 30
0.0
 11
472196.3718591597862542
 21
9854617.8019828516989946
 31
0.0
1001
ACADCODEPAGEINFO
1000
CodePage
1070
    39
  0
LINE
  5
80D
  8
0A
 10
472196.3718591597862542
 20
9854617.8019828516989946
 30
0.0
 11
472193.7872976884245872
 21
9854619.3210109118372202
 31
0.0
1001
ACADCODEPAGEINFO
1000
CodePage
1070
    39
  0
LINE
  5
80E
  8
0A
 10
472193.7872976884245872
 20
9854619.3210109118372202
 30
0.0
 11
472191.2040638569160365
 21
9854620.8411128837615252
 31
0.0
1001
ACADCODEPAGEINFO
1000
CodePage
1070
    39
  0
LINE
  5
80F
  8
0A
 10
472191.2040638569160365
 20
9854620.8411128837615252
 30
0.0
 11
472188.6223609255976044
 21
9854622.3626320082694292
 31
0.0
1001
ACADCODEPAGEINFO
1000
CodePage
1070
    39
  0
LINE
  5
810
  8
0A
 10
472188.6223609255976044
 20
9854622.3626320082694292
 30
0.0
 11
472186.0423927204101346
 21
9854623.8859109431505203
 31
0.0
1001
ACADCODEPAGEINFO
1000
CodePage
1070
    39
  0
LINE
  5
811
  8
0A
 10
472186.0423927204101346
 20
9854623.8859109431505203
 30
0.0
 11
472183.4643637698027305
 21
9854625.4112916253507137
 31
0.0
1001
ACADCODEPAGEINFO
1000
CodePage
1070
    39
  0
LINE
  5
812
  8
0A
 10
472183.4643637698027305
 20
9854625.4112916253507137
 30
0.0
 11
472180.8884794389014132
 21
9854626.9391152244061232
 31
0.0
1001
ACADCODEPAGEINFO
1000
CodePage
1070
    39
  0
LINE
  5
813
  8
0A
 10
472180.8884794389014132
 20
9854626.9391152244061232
 30
0.0
 11
472178.3149460685090162
 21
9854628.4697220623493195
 31
0.0
1001
ACADCODEPAGEINFO
1000
CodePage
1070
    39
  0
LINE
  5
814
  8
0A
 10
472178.3149460685090162
 20
9854628.4697220623493195
 30
0.0
 11
472175.7439711056067608
 21
9854630.0034514963626862
 31
0.0
1001
ACADCODEPAGEINFO
1000
CodePage
1070
    39
  0
LINE
  5
815
  8
0A
 10
472175.7439711056067608
 20
9854630.0034514963626862
 30
0.0
 11
472173.1757632410735823
 21
9854631.5406418591737747
 31
0.0
1001
ACADCODEPAGEINFO
1000
CodePage
1070
    39
  0
LINE
  5
816
  8
0A
 10
472173.1757632410735823
 20
9854631.5406418591737747
 30
0.0
 11
472170.6105325415846892
 21
9854633.0816303882747889
 31
0.0
1001
ACADCODEPAGEINFO
1000
CodePage
1070
    39
  0
LINE
  5
817
  8
0A
 10
472170.6105325415846892
 20
9854633.0816303882747889
 30
0.0
 11
472168.0484905823832378
 21
9854634.6267530992627144
 31
0.0
1001
ACADCODEPAGEINFO
1000
CodePage
1070
    39
  0
LINE
  5
818
  8
0A
 10
472168.0484905823832378
 20
9854634.6267530992627144
 30
0.0
 11
472165.4898505809833296
 21
9854636.1763447374105453
 31
0.0
1001
ACADCODEPAGEINFO
1000
CodePage
1070
    39
  0
LINE
  5
819
  8
0A
 10
472165.4898505809833296
 20
9854636.1763447374105453
 30
0.0
 11
472162.9348275241791271
 21
9854637.7307386659085751
 31
0.0
1001
ACADCODEPAGEINFO
1000
CodePage
1070
    39
  0
LINE
  5
81A
  8
0A
 10
472162.9348275241791271
 20
9854637.7307386659085751
 30
0.0
 11
472160.3836383037269115
 21
9854639.2902667876332998
 31
0.0
1001
ACADCODEPAGEINFO
1000
CodePage
1070
    39
  0
LINE
  5
81B
  8
0A
 10
472160.3836383037269115
 20
9854639.2902667876332998
 30
0.0
 11
472157.8365018418990076
 21
9854640.8552594538778067
 31
0.0
1001
ACADCODEPAGEINFO
1000
CodePage
1070
    39
  0
LINE
  5
81C
  8
0A
 10
472157.8365018418990076
 20
9854640.8552594538778067
 30
0.0
 11
472155.29363921971526
 21
9854642.4260453600436449
 31
0.0
1001
ACADCODEPAGEINFO
1000
CodePage
1070
    39
  0
LINE
  5
81D
  8
0A
 10
472155.29363921971526
 20
9854642.4260453600436449
 30
0.0
 11
472152.7552738062804565
 21
9854644.0029514748603106
 31
0.0
1001
ACADCODEPAGEINFO
1000
CodePage
1070
    39
  0
LINE
  5
81E
  8
0A
 10
472152.7552738062804565
 20
9854644.0029514748603106
 30
0.0
 11
472150.2216313821845688
 21
9854645.5863029155880213
 31
0.0
1001
ACADCODEPAGEINFO
1000
CodePage
1070
    39
  0
LINE
  5
81F
  8
0A
 10
472150.2216313821845688
 20
9854645.5863029155880213
 30
0.0
 11
472147.6929402656969614
 21
9854647.1764228902757168
 31
0.0
1001
ACADCODEPAGEINFO
1000
CodePage
1070
    39
  0
LINE
  5
820
  8
0A
 10
472147.6929402656969614
 20
9854647.1764228902757168
 30
0.0
 11
472145.1694314351771027
 21
9854648.7736325636506081
 31
0.0
1001
ACADCODEPAGEINFO
1000
CodePage
1070
    39
  0
LINE
  5
821
  8
0A
 10
472145.1694314351771027
 20
9854648.7736325636506081
 30
0.0
 11
472142.6513386520091444
 21
9854650.3782509807497263
 31
0.0
1001
ACADCODEPAGEINFO
1000
CodePage
1070
    39
  0
LINE
  5
822
  8
0A
 10
472142.6513386520091444
 20
9854650.3782509807497263
 30
0.0
 11
472140.138898579403758
 21
9854651.9905949402600527
 31
0.0
1001
ACADCODEPAGEINFO
1000
CodePage
1070
    39
  0
LINE
  5
823
  8
0A
 10
472140.138898579403758
 20
9854651.9905949402600527
 30
0.0
 11
472137.6323509032954462
 21
9854653.6109789256006479
 31
0.0
1001
ACADCODEPAGEINFO
1000
CodePage
1070
    39
  0
LINE
  5
824
  8
0A
 10
472137.6323509032954462
 20
9854653.6109789256006479
 30
0.0
 11
472135.1319384484086186
 21
9854655.2397149670869112
 31
0.0
1001
ACADCODEPAGEINFO
1000
CodePage
1070
    39
  0
LINE
  5
825
  8
0A
 10
472135.1319384484086186
 20
9854655.2397149670869112
 30
0.0
 11
472132.6379072940908372
 21
9854656.8771125618368387
 31
0.0
1001
ACADCODEPAGEINFO
1000
CodePage
1070
    39
  0
LINE
  5
826
  8
0A
 10
472132.6379072940908372
 20
9854656.8771125618368387
 30
0.0
 11
472130.1505068886908703
 21
9854658.523478526622057
 31
0.0
1001
ACADCODEPAGEINFO
1000
CodePage
1070
    39
  0
LINE
  5
827
  8
0A
 10
472130.1505068886908703
 20
9854658.523478526622057
 30
0.0
 11
472127.6699901610263623
 21
9854660.1791169587522745
 31
0.0
1001
ACADCODEPAGEINFO
1000
CodePage
1070
    39
  0
LINE
  5
828
  8
0A
 10
471773.3072558753192425
 20
9854982.9130030404776335
 30
0.0
 11
471771.8299523824243806
 21
9854985.56288081407547
 31
0.0
1001
ACADCODEPAGEINFO
1000
CodePage
1070
    39
  0
LINE
  5
829
  8
0A
 10
471771.8299523824243806
 20
9854985.56288081407547
 30
0.0
 11
471770.3607865836238489
 21
9854988.2164551168680191
 31
0.0
1001
ACADCODEPAGEINFO
1000
CodePage
1070
    39
  0
LINE
  5
82A
  8
0A
 10
471770.3607865836238489
 20
9854988.2164551168680191
 30
0.0
 11
471768.8995900895097293
 21
9854990.8736034873872995
 31
0.0
1001
ACADCODEPAGEINFO
1000
CodePage
1070
    39
  0
LINE
  5
82B
  8
0A
 10
471768.8995900895097293
 20
9854990.8736034873872995
 30
0.0
 11
471767.4461937248124741
 21
9854993.5342050362378359
 31
0.0
1001
ACADCODEPAGEINFO
1000
CodePage
1070
    39
  0
LINE
  5
82C
  8
0A
 10
471767.4461937248124741
 20
9854993.5342050362378359
 30
0.0
 11
471766.0004275552928448
 21
9854996.1981404256075621
 31
0.0
1001
ACADCODEPAGEINFO
1000
CodePage
1070
    39
  0
LINE
  5
82D
  8
0A
 10
471766.0004275552928448
 20
9854996.1981404256075621
 30
0.0
 11
471764.5621209177188575
 21
9854998.8652918357402086
 31
0.0
1001
ACADCODEPAGEINFO
1000
CodePage
1070
    39
  0
LINE
  5
82E
  8
0A
 10
471764.5621209177188575
 20
9854998.8652918357402086
 30
0.0
 11
471763.1311024454189464
 21
9855001.5355429090559483
 31
0.0
1001
ACADCODEPAGEINFO
1000
CodePage
1070
    39
  0
LINE
  5
82F
  8
0A
 10
471763.1311024454189464
 20
9855001.5355429090559483
 30
0.0
 11
471761.7072000980842859
 21
9855004.2087787427008152
 31
0.0
1001
ACADCODEPAGEINFO
1000
CodePage
1070
    39
  0
LINE
  5
830
  8
0A
 10
471761.7072000980842859
 20
9855004.2087787427008152
 30
0.0
 11
471760.2902411870891228
 21
9855006.884885860607028
 31
0.0
1001
ACADCODEPAGEINFO
1000
CodePage
1070
    39
  0
LINE
  5
831
  8
0A
 10
471760.2902411870891228
 20
9855006.884885860607028
 30
0.0
 11
471758.8800524024991319
 21
9855009.5637521501630545
 31
0.0
1001
ACADCODEPAGEINFO
1000
CodePage
1070
    39
  0
LINE
  5
832
  8
0A
 10
471758.8800524024991319
 20
9855009.5637521501630545
 30
0.0
 11
471757.4764598389156163
 21
9855012.2452668529003859
 31
0.0
1001
ACADCODEPAGEINFO
1000
CodePage
1070
    39
  0
LINE
  5
833
  8
0A
 10
471757.4764598389156163
 20
9855012.2452668529003859
 30
0.0
 11
471756.0792890206212178
 21
9855014.9293205197900534
 31
0.0
1001
ACADCODEPAGEINFO
1000
CodePage
1070
    39
  0
LINE
  5
834
  8
0A
 10
471756.0792890206212178
 20
9855014.9293205197900534
 30
0.0
 11
471754.6883649271912873
 21
9855017.6158049926161766
 31
0.0
1001
ACADCODEPAGEINFO
1000
CodePage
1070
    39
  0
LINE
  5
835
  8
0A
 10
471754.6883649271912873
 20
9855017.6158049926161766
 30
0.0
 11
471753.3035120174754411
 21
9855020.3046133387833834
 31
0.0
1001
ACADCODEPAGEINFO
1000
CodePage
1070
    39
  0
LINE
  5
836
  8
0A
 10
471753.3035120174754411
 20
9855020.3046133387833834
 30
0.0
 11
471751.9245542553253472
 21
9855022.9956398531794548
 31
0.0
1001
ACADCODEPAGEINFO
1000
CodePage
1070
    39
  0
LINE
  5
837
  8
0A
 10
471751.9245542553253472
 20
9855022.9956398531794548
 30
0.0
 11
471750.5513151307823136
 21
9855025.6887800004333258
 31
0.0
1001
ACADCODEPAGEINFO
1000
CodePage
1070
    39
  0
LINE
  5
838
  8
0A
 10
471750.5513151307823136
 20
9855025.6887800004333258
 30
0.0
 11
471749.1836176863871515
 21
9855028.383930392563343
 31
0.0
1001
ACADCODEPAGEINFO
1000
CodePage
1070
    39
  0
LINE
  5
839
  8
0A
 10
471749.1836176863871515
 20
9855028.383930392563343
 30
0.0
 11
471747.8212845380767249
 21
9855031.0809887405484915
 31
0.0
1001
ACADCODEPAGEINFO
1000
CodePage
1070
    39
  0
LINE
  5
83A
  8
0A
 10
471747.8212845380767249
 20
9855031.0809887405484915
 30
0.0
 11
471746.464137899398338
 21
9855033.7798538245260715
 31
0.0
1001
ACADCODEPAGEINFO
1000
CodePage
1070
    39
  0
LINE
  5
83B
  8
0A
 10
471746.464137899398338
 20
9855033.7798538245260715
 30
0.0
 11
471745.1119996025809087
 21
9855036.4804254826158285
 31
0.0
1001
ACADCODEPAGEINFO
1000
CodePage
1070
    39
  0
LINE
  5
83C
  8
0A
 10
471745.1119996025809087
 20
9855036.4804254826158285
 30
0.0
 11
471743.7646911204210483
 21
9855039.1826045326888561
 31
0.0
1001
ACADCODEPAGEINFO
1000
CodePage
1070
    39
  0
LINE
  5
83D
  8
0A
 10
471743.7646911204210483
 20
9855039.1826045326888561
 30
0.0
 11
471742.4220335906138644
 21
9855041.8862927537411451
 31
0.0
1001
ACADCODEPAGEINFO
1000
CodePage
1070
    39
  0
LINE
  5
83E
  8
0A
 10
471742.4220335906138644
 20
9855041.8862927537411451
 30
0.0
 11
471741.0838478329824284
 21
9855044.591392882168293
 31
0.0
1001
ACADCODEPAGEINFO
1000
CodePage
1070
    39
  0
LINE
  5
83F
  8
0A
 10
471741.0838478329824284
 20
9855044.591392882168293
 30
0.0
 11
471739.749954373575747
 21
9855047.2978085353970528
 31
0.0
1001
ACADCODEPAGEINFO
1000
CodePage
1070
    39
  0
LINE
  5
840
  8
0A
 10
471739.749954373575747
 20
9855047.2978085353970528
 30
0.0
 11
471738.4201734641101211
 21
9855050.0054441839456558
 31
0.0
1001
ACADCODEPAGEINFO
1000
CodePage
1070
    39
  0
LINE
  5
841
  8
0A
 10
471738.4201734641101211
 20
9855050.0054441839456558
 30
0.0
 11
471737.0943251029239036
 21
9855052.7142051327973604
 31
0.0
1001
ACADCODEPAGEINFO
1000
CodePage
1070
    39
  0
LINE
  5
842
  8
0A
 10
471737.0943251029239036
 20
9855052.7142051327973604
 30
0.0
 11
471735.7722290540114045
 21
9855055.4239974655210972
 31
0.0
1001
ACADCODEPAGEINFO
1000
CodePage
1070
    39
  0
LINE
  5
843
  8
0A
 10
471735.7722290540114045
 20
9855055.4239974655210972
 30
0.0
 11
471734.4537048692000099
 21
9855058.1347280126065016
 31
0.0
1001
ACADCODEPAGEINFO
1000
CodePage
1070
    39
  0
LINE
  5
844
  8
0A
 10
471734.4537048692000099
 20
9855058.1347280126065016
 30
0.0
 11
471733.138571904913988
 21
9855060.8463043477386236
 31
0.0
1001
ACADCODEPAGEINFO
1000
CodePage
1070
    39
  0
LINE
  5
845
  8
0A
 10
471733.138571904913988
 20
9855060.8463043477386236
 30
0.0
 11
471731.826649343885947
 21
9855063.5586346872150898
 31
0.0
1001
ACADCODEPAGEINFO
1000
CodePage
1070
    39
  0
LINE
  5
846
  8
0A
 10
471731.826649343885947
 20
9855063.5586346872150898
 30
0.0
 11
471730.5177562127937563
 21
9855066.2716279271990061
 31
0.0
1001
ACADCODEPAGEINFO
1000
CodePage
1070
    39
  0
LINE
  5
847
  8
0A
 10
471730.5177562127937563
 20
9855066.2716279271990061
 30
0.0
 11
471729.2117114029242657
 21
9855068.9851935431361198
 31
0.0
1001
ACADCODEPAGEINFO
1000
CodePage
1070
    39
  0
LINE
  5
848
  8
0A
 10
471729.2117114029242657
 20
9855068.9851935431361198
 30
0.0
 11
471727.9083336872281507
 21
9855071.6992415934801102
 31
0.0
1001
ACADCODEPAGEINFO
1000
CodePage
1070
    39
  0
LINE
  5
849
  8
0A
 10
471727.9083336872281507
 20
9855071.6992415934801102
 30
0.0
 11
471726.6074417388881557
 21
9855074.4136826600879431
 31
0.0
1001
ACADCODEPAGEINFO
1000
CodePage
1070
    39
  0
LINE
  5
84A
  8
0A
 10
471726.6074417388881557
 20
9855074.4136826600879431
 30
0.0
 11
471725.3088541520992294
 21
9855077.1284278556704521
 31
0.0
1001
ACADCODEPAGEINFO
1000
CodePage
1070
    39
  0
LINE
  5
84B
  8
0A
 10
471725.3088541520992294
 20
9855077.1284278556704521
 30
0.0
 11
471724.0123894566204399
 21
9855079.8433887101709843
 31
0.0
1001
ACADCODEPAGEINFO
1000
CodePage
1070
    39
  0
LINE
  5
84C
  8
0A
 10
471724.0123894566204399
 20
9855079.8433887101709843
 30
0.0
 11
471722.7178661390789784
 21
9855082.5584772080183029
 31
0.0
1001
ACADCODEPAGEINFO
1000
CodePage
1070
    39
  0
LINE
  5
84D
  8
0A
 10
471722.7178661390789784
 20
9855082.5584772080183029
 30
0.0
 11
471721.4251026596757583
 21
9855085.2736057117581367
 31
0.0
1001
ACADCODEPAGEINFO
1000
CodePage
1070
    39
  0
LINE
  5
84E
  8
0A
 10
471721.4251026596757583
 20
9855085.2736057117581367
 30
0.0
 11
471720.1339174691238441
 21
9855087.988686952739954
 31
0.0
1001
ACADCODEPAGEINFO
1000
CodePage
1070
    39
  0
LINE
  5
84F
  8
0A
 10
471720.1339174691238441
 20
9855087.988686952739954
 30
0.0
 11
471718.8441290272166952
 21
9855090.7036339472979307
 31
0.0
1001
ACADCODEPAGEINFO
1000
CodePage
1070
    39
  0
LINE
  5
850
  8
0A
 10
471718.8441290272166952
 20
9855090.7036339472979307
 30
0.0
 11
471717.5555558211053722
 21
9855093.4183600284159184
 31
0.0
1001
ACADCODEPAGEINFO
1000
CodePage
1070
    39
  0
LINE
  5
851
  8
0A
 10
471717.5555558211053722
 20
9855093.4183600284159184
 30
0.0
 11
471716.2680163807817735
 21
9855096.132778737694025
 31
0.0
1001
ACADCODEPAGEINFO
1000
CodePage
1070
    39
  0
LINE
  5
852
  8
0A
 10
471716.2680163807817735
 20
9855096.132778737694025
 30
0.0
 11
471714.9813292985199951
 21
9855098.8468038532882929
 31
0.0
1001
ACADCODEPAGEINFO
1000
CodePage
1070
    39
  0
LINE
  5
853
  8
0A
 10
471714.9813292985199951
 20
9855098.8468038532882929
 30
0.0
 11
471713.695313245523721
 21
9855101.5603493042290211
 31
0.0
1001
ACADCODEPAGEINFO
1000
CodePage
1070
    39
  0
LINE
  5
854
  8
0A
 10
471713.695313245523721
 20
9855101.5603493042290211
 30
0.0
 11
471712.4097869881079532
 21
9855104.2733291685581207
 31
0.0
1001
ACADCODEPAGEINFO
1000
CodePage
1070
    39
  0
LINE
  5
855
  8
0A
 10
471794.8994638855219819
 20
9854988.5911339446902275
 30
0.0
 11
471793.4067379093030468
 21
9854991.2333183083683252
 31
0.0
1001
ACADCODEPAGEINFO
1000
CodePage
1070
    39
  0
LINE
  5
856
  8
0A
 10
471793.4067379093030468
 20
9854991.2333183083683252
 30
0.0
 11
471791.921918953594286
 21
9854993.880818173289299
 31
0.0
1001
ACADCODEPAGEINFO
1000
CodePage
1070
    39
  0
LINE
  5
857
  8
0A
 10
471791.921918953594286
 20
9854993.880818173289299
 30
0.0
 11
471790.4448406114242971
 21
9854996.5335068814456463
 31
0.0
1001
ACADCODEPAGEINFO
1000
CodePage
1070
    39
  0
LINE
  5
858
  8
0A
 10
471790.4448406114242971
 20
9854996.5335068814456463
 30
0.0
 11
471788.9753353227279149
 21
9854999.1912593245506287
 31
0.0
1001
ACADCODEPAGEINFO
1000
CodePage
1070
    39
  0
LINE
  5
859
  8
0A
 10
471788.9753353227279149
 20
9854999.1912593245506287
 30
0.0
 11
471787.5132344068260863
 21
9855001.853951932862401
 31
0.0
1001
ACADCODEPAGEINFO
1000
CodePage
1070
    39
  0
LINE
  5
85A
  8
0A
 10
471787.5132344068260863
 20
9855001.853951932862401
 30
0.0
 11
471786.0583680922864005
 21
9855004.5214626379311085
 31
0.0
1001
ACADCODEPAGEINFO
1000
CodePage
1070
    39
  0
LINE
  5
85B
  8
0A
 10
471786.0583680922864005
 20
9855004.5214626379311085
 30
0.0
 11
471784.6105655467836186
 21
9855007.1936708204448223
 31
0.0
1001
ACADCODEPAGEINFO
1000
CodePage
1070
    39
  0
LINE
  5
85C
  8
0A
 10
471784.6105655467836186
 20
9855007.1936708204448223
 30
0.0
 11
471783.1696549046901055
 21
9855009.8704573046416044
 31
0.0
1001
ACADCODEPAGEINFO
1000
CodePage
1070
    39
  0
LINE
  5
85D
  8
0A
 10
471783.1696549046901055
 20
9855009.8704573046416044
 30
0.0
 11
471781.7354632978094742
 21
9855012.5517043061554432
 31
0.0
1001
ACADCODEPAGEINFO
1000
CodePage
1070
    39
  0
LINE
  5
85E
  8
0A
 10
471781.7354632978094742
 20
9855012.5517043061554432
 30
0.0
 11
471780.3078168815118261
 21
9855015.2372954152524471
 31
0.0
1001
ACADCODEPAGEINFO
1000
CodePage
1070
    39
  0
LINE
  5
85F
  8
0A
 10
471780.3078168815118261
 20
9855015.2372954152524471
 30
0.0
 11
471778.8865408644778654
 21
9855017.9271155372262001
 31
0.0
1001
ACADCODEPAGEINFO
1000
CodePage
1070
    39
  0
LINE
  5
860
  8
0A
 10
471778.8865408644778654
 20
9855017.9271155372262001
 30
0.0
 11
471777.4714595340774395
 21
9855020.6210509035736322
 31
0.0
1001
ACADCODEPAGEINFO
1000
CodePage
1070
    39
  0
LINE
  5
861
  8
0A
 10
471777.4714595340774395
 20
9855020.6210509035736322
 30
0.0
 11
471776.0623962837853469
 21
9855023.3189889844506979
 31
0.0
1001
ACADCODEPAGEINFO
1000
CodePage
1070
    39
  0
LINE
  5
862
  8
0A
 10
471776.0623962837853469
 20
9855023.3189889844506979
 30
0.0
 11
471774.6591736401896924
 21
9855026.0208184868097305
 31
0.0
1001
ACADCODEPAGEINFO
1000
CodePage
1070
    39
  0
LINE
  5
863
  8
0A
 10
471774.6591736401896924
 20
9855026.0208184868097305
 30
0.0
 11
471773.2616132876137272
 21
9855028.7264293227344751
 31
0.0
1001
ACADCODEPAGEINFO
1000
CodePage
1070
    39
  0
LINE
  5
864
  8
0A
 10
471773.2616132876137272
 20
9855028.7264293227344751
 30
0.0
 11
471771.8695360948913731
 21
9855031.4357125516980886
 31
0.0
1001
ACADCODEPAGEINFO
1000
CodePage
1070
    39
  0
LINE
  5
865
  8
0A
 10
471771.8695360948913731
 20
9855031.4357125516980886
 30
0.0
 11
471770.4827621403965168
 21
9855034.1485603675246239
 31
0.0
1001
ACADCODEPAGEINFO
1000
CodePage
1070
    39
  0
LINE
  5
866
  8
0A
 10
471770.4827621403965168
 20
9855034.1485603675246239
 30
0.0
 11
471769.1011107357917354
 21
9855036.8648660331964493
 31
0.0
1001
ACADCODEPAGEINFO
1000
CodePage
1070
    39
  0
LINE
  5
867
  8
0A
 10
471769.1011107357917354
 20
9855036.8648660331964493
 30
0.0
 11
471768.619243296503555
 21
9855037.8167835026979446
 31
0.0
1001
ACADCODEPAGEINFO
1000
CodePage
1070
    39
  0
LINE
  5
869
  8
0A
 10
474570.813342101580929
 20
9853224.3444485832005739
 30
0.0
 11
474570.5550803433870897
 21
9853224.4961720257997513
 31
0.0
  0
LINE
  5
86A
  8
0A
 10
474570.5550803433870897
 20
9853224.4961720257997513
 30
0.0
 11
474570.2968202726915479
 21
9853224.6479124873876572
 31
0.0
  0
LINE
  5
86B
  8
0A
 10
474570.2968202726915479
 20
9853224.6479124873876572
 30
0.0
 11
474570.0385618124855682
 21
9853224.7996698394417763
 31
0.0
  0
LINE
  5
86C
  8
0A
 10
474570.0385618124855682
 20
9853224.7996698394417763
 30
0.0
 11
474569.7803048865171149
 21
9853224.9514439608901739
 31
0.0
  0
LINE
  5
86D
  8
0A
 10
474569.7803048865171149
 20
9853224.9514439608901739
 30
0.0
 11
474569.5220494181266986
 21
9853225.1032347083091736
 31
0.0
  0
LINE
  5
86E
  8
0A
 10
474569.5220494181266986
 20
9853225.1032347083091736
 30
0.0
 11
474569.2637953311786987
 21
9853225.2550419606268406
 31
0.0
  0
LINE
  5
86F
  8
0A
 10
474569.2637953311786987
 20
9853225.2550419606268406
 30
0.0
 11
474569.0055425490136258
 21
9853225.4068655893206596
 31
0.0
  0
LINE
  5
870
  8
0A
 10
474569.0055425490136258
 20
9853225.4068655893206596
 30
0.0
 11
474568.7472909949137829
 21
9853225.5587054565548897
 31
0.0
  0
LINE
  5
871
  8
0A
 10
474568.7472909949137829
 20
9853225.5587054565548897
 30
0.0
 11
474568.4890405925107189
 21
9853225.7105614431202412
 31
0.0
  0
LINE
  5
872
  8
0A
 10
474568.4890405925107189
 20
9853225.7105614431202412
 30
0.0
 11
474568.2307912650867365
 21
9853225.8624334167689085
 31
0.0
  0
LINE
  5
873
  8
0A
 10
474568.2307912650867365
 20
9853225.8624334167689085
 30
0.0
 11
474567.9725429362733848
 21
9853226.0143212396651506
 31
0.0
  0
LINE
  5
874
  8
0A
 10
474567.9725429362733848
 20
9853226.0143212396651506
 30
0.0
 11
474567.714295529294759
 21
9853226.1662247870117426
 31
0.0
  0
LINE
  5
875
  8
0A
 10
474567.714295529294759
 20
9853226.1662247870117426
 30
0.0
 11
474567.4560489672003314
 21
9853226.3181439395993948
 31
0.0
  0
LINE
  5
876
  8
0A
 10
474567.4560489672003314
 20
9853226.3181439395993948
 30
0.0
 11
474567.1978031737962738
 21
9853226.4700785521417856
 31
0.0
  0
LINE
  5
877
  8
0A
 10
474567.1978031737962738
 20
9853226.4700785521417856
 30
0.0
 11
474566.9395580721902661
 21
9853226.6220284998416901
 31
0.0
  0
LINE
  5
878
  8
0A
 10
474566.9395580721902661
 20
9853226.6220284998416901
 30
0.0
 11
474566.681313585373573
 21
9853226.7739936616271734
 31
0.0
  0
LINE
  5
879
  8
0A
 10
474566.681313585373573
 20
9853226.7739936616271734
 30
0.0
 11
474566.4230696369777434
 21
9853226.9259738959372044
 31
0.0
  0
LINE
  5
87A
  8
0A
 10
474566.4230696369777434
 20
9853226.9259738959372044
 30
0.0
 11
474566.1648261504014954
 21
9853227.0779690779745579
 31
0.0
  0
LINE
  5
87B
  8
0A
 10
474566.1648261504014954
 20
9853227.0779690779745579
 30
0.0
 11
474565.9065830479958095
 21
9853227.2299790754914284
 31
0.0
  0
LINE
  5
87C
  8
0A
 10
474565.9065830479958095
 20
9853227.2299790754914284
 30
0.0
 11
474565.6483402536250651
 21
9853227.3820037674158812
 31
0.0
  0
LINE
  5
87D
  8
0A
 10
474565.6483402536250651
 20
9853227.3820037674158812
 30
0.0
 11
474565.3900976903969422
 21
9853227.5340430159121752
 31
0.0
  0
LINE
  5
87E
  8
0A
 10
474565.3900976903969422
 20
9853227.5340430159121752
 30
0.0
 11
474565.1318552814773284
 21
9853227.68609669059515
 31
0.0
  0
LINE
  5
87F
  8
0A
 10
474565.1318552814773284
 20
9853227.68609669059515
 30
0.0
 11
474564.8736129496828653
 21
9853227.8381646685302258
 31
0.0
  0
LINE
  5
880
  8
0A
 10
474564.8736129496828653
 20
9853227.8381646685302258
 30
0.0
 11
474564.6153706184122711
 21
9853227.9902468174695969
 31
0.0
  0
LINE
  5
881
  8
0A
 10
474564.6153706184122711
 20
9853227.9902468174695969
 30
0.0
 11
474564.3571282104239799
 21
9853228.1423430033028126
 31
0.0
  0
LINE
  5
882
  8
0A
 10
474564.3571282104239799
 20
9853228.1423430033028126
 30
0.0
 11
474564.0988856488256715
 21
9853228.2944531068205833
 31
0.0
  0
LINE
  5
883
  8
0A
 10
474564.0988856488256715
 20
9853228.2944531068205833
 30
0.0
 11
474563.8406428571906872
 21
9853228.446576988324523
 31
0.0
  0
LINE
  5
884
  8
0A
 10
474563.8406428571906872
 20
9853228.446576988324523
 30
0.0
 11
474563.5823997579864226
 21
9853228.5987145211547613
 31
0.0
  0
LINE
  5
885
  8
0A
 10
474563.5823997579864226
 20
9853228.5987145211547613
 30
0.0
 11
474563.3241562742041424
 21
9853228.7508655693382025
 31
0.0
  0
LINE
  5
886
  8
0A
 10
474563.3241562742041424
 20
9853228.7508655693382025
 30
0.0
 11
474563.0659123287769035
 21
9853228.9030300173908472
 31
0.0
  0
LINE
  5
887
  8
0A
 10
474563.0659123287769035
 20
9853228.9030300173908472
 30
0.0
 11
474562.807667845103424
 21
9853229.0552077293395996
 31
0.0
  0
LINE
  5
888
  8
0A
 10
474562.807667845103424
 20
9853229.0552077293395996
 30
0.0
 11
474562.5494227454182692
 21
9853229.2073985766619444
 31
0.0
  0
LINE
  5
889
  8
0A
 10
474562.5494227454182692
 20
9853229.2073985766619444
 30
0.0
 11
474562.2911769535858184
 21
9853229.3596024215221405
 31
0.0
  0
LINE
  5
88A
  8
0A
 10
474562.2911769535858184
 20
9853229.3596024215221405
 30
0.0
 11
474562.0329303913167678
 21
9853229.5118191428482533
 31
0.0
  0
LINE
  5
88B
  8
0A
 10
474562.0329303913167678
 20
9853229.5118191428482533
 30
0.0
 11
474561.7746829824172892
 21
9853229.6640486046671867
 31
0.0
  0
LINE
  5
88C
  8
0A
 10
474561.7746829824172892
 20
9853229.6640486046671867
 30
0.0
 11
474561.5164346495876089
 21
9853229.8162906896322966
 31
0.0
  0
LINE
  5
88D
  8
0A
 10
474561.5164346495876089
 20
9853229.8162906896322966
 30
0.0
 11
474561.2581853150040843
 21
9853229.9685452505946159
 31
0.0
  0
LINE
  5
88E
  8
0A
 10
474561.2581853150040843
 20
9853229.9685452505946159
 30
0.0
 11
474560.9999349022982642
 21
9853230.1208121739327908
 31
0.0
  0
LINE
  5
88F
  8
0A
 10
474560.9999349022982642
 20
9853230.1208121739327908
 30
0.0
 11
474560.7416833335882984
 21
9853230.2730913236737251
 31
0.0
  0
LINE
  5
890
  8
0A
 10
474560.7416833335882984
 20
9853230.2730913236737251
 30
0.0
 11
474560.4834305323893204
 21
9853230.4253825601190329
 31
0.0
  0
LINE
  5
891
  8
0A
 10
474560.4834305323893204
 20
9853230.4253825601190329
 30
0.0
 11
474560.225176420994103
 21
9853230.5776857696473598
 31
0.0
  0
LINE
  5
892
  8
0A
 10
474560.225176420994103
 20
9853230.5776857696473598
 30
0.0
 11
474559.9669209219282493
 21
9853230.7300008181482553
 31
0.0
  0
LINE
  5
893
  8
0A
 10
474559.9669209219282493
 20
9853230.7300008181482553
 30
0.0
 11
474559.7086639582994394
 21
9853230.8823275733739138
 31
0.0
  0
LINE
  5
894
  8
0A
 10
474559.7086639582994394
 20
9853230.8823275733739138
 30
0.0
 11
474559.4504054528078996
 21
9853231.0346659030765295
 31
0.0
  0
LINE
  5
895
  8
0A
 10
474559.4504054528078996
 20
9853231.0346659030765295
 30
0.0
 11
474559.1921453279210255
 21
9853231.1870156917721033
 31
0.0
  0
LINE
  5
896
  8
0A
 10
474559.1921453279210255
 20
9853231.1870156917721033
 30
0.0
 11
474558.9338835062226281
 21
9853231.3393767867237329
 31
0.0
  0
LINE
  5
897
  8
0A
 10
474558.9338835062226281
 20
9853231.3393767867237329
 30
0.0
 11
474558.6756199108203873
 21
9853231.4917490743100643
 31
0.0
  0
LINE
  5
898
  8
0A
 10
474558.6756199108203873
 20
9853231.4917490743100643
 30
0.0
 11
474558.4173544637742452
 21
9853231.6441324204206467
 31
0.0
  0
LINE
  5
899
  8
0A
 10
474558.4173544637742452
 20
9853231.6441324204206467
 30
0.0
 11
474558.1590870880754665
 21
9853231.7965266983956099
 31
0.0
  0
LINE
  5
89A
  8
0A
 10
474558.1590870880754665
 20
9853231.7965266983956099
 30
0.0
 11
474557.9008177061914466
 21
9853231.948931772261858
 31
0.0
  0
LINE
  5
89B
  8
0A
 10
474557.9008177061914466
 20
9853231.948931772261858
 30
0.0
 11
474557.642546241171658
 21
9853232.101347528398037
 31
0.0
  0
LINE
  5
89C
  8
0A
 10
474557.642546241171658
 20
9853232.101347528398037
 30
0.0
 11
474557.3842726147267967
 21
9853232.2537738066166639
 31
0.0
  0
LINE
  5
89D
  8
0A
 10
474557.3842726147267967
 20
9853232.2537738066166639
 30
0.0
 11
474557.125996749906335
 21
9853232.406210508197546
 31
0.0
  0
LINE
  5
89E
  8
0A
 10
474557.125996749906335
 20
9853232.406210508197546
 30
0.0
 11
474556.8677185695269145
 21
9853232.5586574878543615
 31
0.0
  0
LINE
  5
89F
  8
0A
 10
474556.8677185695269145
 20
9853232.5586574878543615
 30
0.0
 11
474556.6094379954738542
 21
9853232.7111146207898855
 31
0.0
  0
LINE
  5
8A0
  8
0A
 10
474556.6094379954738542
 20
9853232.7111146207898855
 30
0.0
 11
474556.3511549506802112
 21
9853232.8635817728936672
 31
0.0
  0
LINE
  5
8A1
  8
0A
 10
474556.3511549506802112
 20
9853232.8635817728936672
 30
0.0
 11
474556.0928693572059274
 21
9853233.0160588193684816
 31
0.0
  0
LINE
  5
8A2
  8
0A
 10
474556.0928693572059274
 20
9853233.0160588193684816
 30
0.0
 11
474555.8345811382168904
 21
9853233.1685456279665232
 31
0.0
  0
LINE
  5
8A3
  8
0A
 10
474555.8345811382168904
 20
9853233.1685456279665232
 30
0.0
 11
474555.5762902155984193
 21
9853233.3210420720279217
 31
0.0
  0
LINE
  5
8A4
  8
0A
 10
474555.5762902155984193
 20
9853233.3210420720279217
 30
0.0
 11
474555.3179965119925328
 21
9853233.4735480174422264
 31
0.0
  0
LINE
  5
8A5
  8
0A
 10
474555.3179965119925328
 20
9853233.4735480174422264
 30
0.0
 11
474555.0596999499248341
 21
9853233.6260633356869221
 31
0.0
  0
LINE
  5
8A6
  8
0A
 10
474555.0596999499248341
 20
9853233.6260633356869221
 30
0.0
 11
474554.8014004515716806
 21
9853233.7785878963768482
 31
0.0
  0
LINE
  5
8A7
  8
0A
 10
474554.8014004515716806
 20
9853233.7785878963768482
 30
0.0
 11
474554.543097939575091
 21
9853233.931121576577425
 31
0.0
  0
LINE
  5
8A8
  8
0A
 10
474554.543097939575091
 20
9853233.931121576577425
 30
0.0
 11
474554.2847923362860456
 21
9853234.0836642328649759
 31
0.0
  0
LINE
  5
8A9
  8
0A
 10
474554.2847923362860456
 20
9853234.0836642328649759
 30
0.0
 11
474554.0264835638226941
 21
9853234.236215753480792
 31
0.0
  0
LINE
  5
8AA
  8
0A
 10
474554.0264835638226941
 20
9853234.236215753480792
 30
0.0
 11
474553.7681715448852628
 21
9853234.3887759987264872
 31
0.0
  0
LINE
  5
8AB
  8
0A
 10
474553.7681715448852628
 20
9853234.3887759987264872
 30
0.0
 11
474553.5098562014172785
 21
9853234.5413448307663202
 31
0.0
  0
LINE
  5
8AC
  8
0A
 10
474553.5098562014172785
 20
9853234.5413448307663202
 30
0.0
 11
474553.251537456526421
 21
9853234.6939221322536469
 31
0.0
  0
LINE
  5
8AD
  8
0A
 10
474553.251537456526421
 20
9853234.6939221322536469
 30
0.0
 11
474552.9932152316905558
 21
9853234.8465077746659517
 31
0.0
  0
LINE
  5
8AE
  8
0A
 10
474552.9932152316905558
 20
9853234.8465077746659517
 30
0.0
 11
474552.7348894494934939
 21
9853234.9991016164422035
 31
0.0
  0
LINE
  5
8AF
  8
0A
 10
474552.7348894494934939
 20
9853234.9991016164422035
 30
0.0
 11
474552.4765600324026309
 21
9853235.1517035383731127
 31
0.0
  0
LINE
  5
8B0
  8
0A
 10
474552.4765600324026309
 20
9853235.1517035383731127
 30
0.0
 11
474552.2182269027107395
 21
9853235.3043134063482285
 31
0.0
  0
LINE
  5
8B1
  8
0A
 10
474552.2182269027107395
 20
9853235.3043134063482285
 30
0.0
 11
474551.9598899825941771
 21
9853235.4569310899823904
 31
0.0
  0
LINE
  5
8B2
  8
0A
 10
474551.9598899825941771
 20
9853235.4569310899823904
 30
0.0
 11
474551.7015491941710934
 21
9853235.6095564644783735
 31
0.0
  0
LINE
  5
8B3
  8
0A
 10
474551.7015491941710934
 20
9853235.6095564644783735
 30
0.0
 11
474551.4432044600252993
 21
9853235.7621893957257271
 31
0.0
  0
LINE
  5
8B4
  8
0A
 10
474551.4432044600252993
 20
9853235.7621893957257271
 30
0.0
 11
474551.1848557018092833
 21
9853235.9148297533392906
 31
0.0
  0
LINE
  5
8B5
  8
0A
 10
474551.1848557018092833
 20
9853235.9148297533392906
 30
0.0
 11
474550.9265028423978947
 21
9853236.0674774069339037
 31
0.0
  0
LINE
  5
8B6
  8
0A
 10
474550.9265028423978947
 20
9853236.0674774069339037
 30
0.0
 11
474550.6681458037928678
 21
9853236.2201322261244059
 31
0.0
  0
LINE
  5
8B7
  8
0A
 10
474550.6681458037928678
 20
9853236.2201322261244059
 30
0.0
 11
474550.409784507995937
 21
9853236.3727940954267979
 31
0.0
  0
LINE
  5
8B8
  8
0A
 10
474550.409784507995937
 20
9853236.3727940954267979
 30
0.0
 11
474550.1514188775909133
 21
9853236.5254628602415323
 31
0.0
  0
LINE
  5
8B9
  8
0A
 10
474550.1514188775909133
 20
9853236.5254628602415323
 30
0.0
 11
474549.8930488342884928
 21
9853236.6781384125351906
 31
0.0
  0
LINE
  5
8BA
  8
0A
 10
474549.8930488342884928
 20
9853236.6781384125351906
 30
0.0
 11
474549.6346743007889017
 21
9853236.8308206126093864
 31
0.0
  0
LINE
  5
8BB
  8
0A
 10
474549.6346743007889017
 20
9853236.8308206126093864
 30
0.0
 11
474549.3762951988028362
 21
9853236.9835093263536692
 31
0.0
  0
LINE
  5
8BC
  8
0A
 10
474549.3762951988028362
 20
9853236.9835093263536692
 30
0.0
 11
474549.1179114507976919
 21
9853237.1362044401466846
 31
0.0
  0
LINE
  5
8BD
  8
0A
 10
474549.1179114507976919
 20
9853237.1362044401466846
 30
0.0
 11
474548.8595229787752032
 21
9853237.2889058031141758
 31
0.0
  0
LINE
  5
8BE
  8
0A
 10
474548.8595229787752032
 20
9853237.2889058031141758
 30
0.0
 11
474548.6011297047953121
 21
9853237.4416133016347885
 31
0.0
  0
LINE
  5
8BF
  8
0A
 10
474548.6011297047953121
 20
9853237.4416133016347885
 30
0.0
 11
474548.3427315510925837
 21
9853237.5943267941474915
 31
0.0
  0
LINE
  5
8C0
  8
0A
 10
474548.3427315510925837
 20
9853237.5943267941474915
 30
0.0
 11
474548.0843284396105446
 21
9853237.7470461670309305
 31
0.0
  0
LINE
  5
8C1
  8
0A
 10
474548.0843284396105446
 20
9853237.7470461670309305
 30
0.0
 11
474547.8259202928165905
 21
9853237.8997712694108486
 31
0.0
  0
LINE
  5
8C2
  8
0A
 10
474547.8259202928165905
 20
9853237.8997712694108486
 30
0.0
 11
474547.5675070325960405
 21
9853238.0525019932538271
 31
0.0
  0
LINE
  5
8C3
  8
0A
 10
474547.5675070325960405
 20
9853238.0525019932538271
 30
0.0
 11
474547.3090885811834596
 21
9853238.205238189548254
 31
0.0
  0
LINE
  5
8C4
  8
0A
 10
474547.3090885811834596
 20
9853238.205238189548254
 30
0.0
 11
474547.0506648604059592
 21
9853238.3579797334969044
 31
0.0
  0
LINE
  5
8C5
  8
0A
 10
474547.0506648604059592
 20
9853238.3579797334969044
 30
0.0
 11
474546.792235792381689
 21
9853238.5107265114784241
 31
0.0
  0
LINE
  5
8C6
  8
0A
 10
474546.792235792381689
 20
9853238.5107265114784241
 30
0.0
 11
474546.5338012992870063
 21
9853238.6634783633053303
 31
0.0
  0
LINE
  5
8C7
  8
0A
 10
474546.5338012992870063
 20
9853238.6634783633053303
 30
0.0
 11
474546.2753613034146838
 21
9853238.8162351921200752
 31
0.0
  0
LINE
  5
8C8
  8
0A
 10
474546.2753613034146838
 20
9853238.8162351921200752
 30
0.0
 11
474546.01691572641721
 21
9853238.9689968395978212
 31
0.0
  0
LINE
  5
8C9
  8
0A
 10
474546.01691572641721
 20
9853238.9689968395978212
 30
0.0
 11
474545.7584644902963191
 21
9853239.1217631958425045
 31
0.0
  0
LINE
  5
8CA
  8
0A
 10
474545.7584644902963191
 20
9853239.1217631958425045
 30
0.0
 11
474545.5000075174029917
 21
9853239.2745341155678034
 31
0.0
  0
LINE
  5
8CB
  8
0A
 10
474545.5000075174029917
 20
9853239.2745341155678034
 30
0.0
 11
474545.2415447297971696
 21
9853239.4273094832897186
 31
0.0
  0
LINE
  5
8CC
  8
0A
 10
474545.2415447297971696
 20
9853239.4273094832897186
 30
0.0
 11
474544.983076049014926
 21
9853239.5800891648977995
 31
0.0
  0
LINE
  5
8CD
  8
0A
 10
474544.983076049014926
 20
9853239.5800891648977995
 30
0.0
 11
474544.7246013975818641
 21
9853239.7328730169683695
 31
0.0
  0
LINE
  5
8CE
  8
0A
 10
474544.7246013975818641
 20
9853239.7328730169683695
 30
0.0
 11
474544.4661206976161338
 21
9853239.8856609277427197
 31
0.0
  0
LINE
  5
8CF
  8
0A
 10
474544.4661206976161338
 20
9853239.8856609277427197
 30
0.0
 11
474544.2076338703045622
 21
9853240.0384527593851089
 31
0.0
  0
LINE
  5
8D0
  8
0A
 10
474544.2076338703045622
 20
9853240.0384527593851089
 30
0.0
 11
474543.9491408978938125
 21
9853240.1912483479827642
 31
0.0
  0
LINE
  5
8D1
  8
0A
 10
474543.9491408978938125
 20
9853240.1912483479827642
 30
0.0
 11
474543.6906456006108783
 21
9853240.3440453205257654
 31
0.0
  0
LINE
  5
8D2
  8
0A
 10
474543.6906456006108783
 20
9853240.3440453205257654
 30
0.0
 11
474543.4321503036189824
 21
9853240.4968422874808311
 31
0.0
  0
LINE
  5
8D3
  8
0A
 10
474543.4321503036189824
 20
9853240.4968422874808311
 30
0.0
 11
474543.1736550066270865
 21
9853240.6496392618864775
 31
0.0
  0
LINE
  5
8D4
  8
0A
 10
474543.1736550066270865
 20
9853240.6496392618864775
 30
0.0
 11
474542.9151597095187753
 21
9853240.8024362325668335
 31
0.0
  0
LINE
  5
8D5
  8
0A
 10
474542.9151597095187753
 20
9853240.8024362325668335
 30
0.0
 11
474542.6566644121776335
 21
9853240.9552331976592541
 31
0.0
  0
LINE
  5
8D6
  8
0A
 10
474542.6566644121776335
 20
9853240.9552331976592541
 30
0.0
 11
474542.3981691151857376
 21
9853241.1080301776528358
 31
0.0
  0
LINE
  5
8D7
  8
0A
 10
474542.3981691151857376
 20
9853241.1080301776528358
 30
0.0
 11
474542.1396738179028034
 21
9853241.2608271446079016
 31
0.0
  0
LINE
  5
8D8
  8
0A
 10
474542.1396738179028034
 20
9853241.2608271446079016
 30
0.0
 11
474541.8811785209109075
 21
9853241.4136241152882576
 31
0.0
  0
LINE
  5
8D9
  8
0A
 10
474541.8811785209109075
 20
9853241.4136241152882576
 30
0.0
 11
474541.622683223686181
 21
9853241.5664210841059685
 31
0.0
  0
LINE
  5
8DA
  8
0A
 10
474541.622683223686181
 20
9853241.5664210841059685
 30
0.0
 11
474541.3641879265196621
 21
9853241.7192180585116148
 31
0.0
  0
LINE
  5
8DB
  8
0A
 10
474541.3641879265196621
 20
9853241.7192180585116148
 30
0.0
 11
474541.1056926291785203
 21
9853241.8720150254666805
 31
0.0
  0
LINE
  5
8DC
  8
0A
 10
474541.1056926291785203
 20
9853241.8720150254666805
 30
0.0
 11
474540.8471973321866244
 21
9853242.0248119942843914
 31
0.0
  0
LINE
  5
8DD
  8
0A
 10
474540.8471973321866244
 20
9853242.0248119942843914
 30
0.0
 11
474540.5887020353111438
 21
9853242.1776089668273926
 31
0.0
  0
LINE
  5
8DE
  8
0A
 10
474540.5887020353111438
 20
9853242.1776089668273926
 30
0.0
 11
474540.3302067379117943
 21
9853242.3304059375077486
 31
0.0
  0
LINE
  5
8DF
  8
0A
 10
474540.3302067379117943
 20
9853242.3304059375077486
 30
0.0
 11
474540.0717114409198985
 21
9853242.4832029081881046
 31
0.0
  0
LINE
  5
8E0
  8
0A
 10
474540.0717114409198985
 20
9853242.4832029081881046
 30
0.0
 11
474539.8132161439280026
 21
9853242.6359998807311058
 31
0.0
  0
LINE
  5
8E1
  8
0A
 10
474539.8132161439280026
 20
9853242.6359998807311058
 30
0.0
 11
474539.5547208465868607
 21
9853242.7887968476861715
 31
0.0
  0
LINE
  5
8E2
  8
0A
 10
474539.5547208465868607
 20
9853242.7887968476861715
 30
0.0
 11
474539.2962255495949648
 21
9853242.9415938165038824
 31
0.0
  0
LINE
  5
8E3
  8
0A
 10
474539.2962255495949648
 20
9853242.9415938165038824
 30
0.0
 11
474539.0377302521956153
 21
9853243.0943907927721739
 31
0.0
  0
LINE
  5
8E4
  8
0A
 10
474539.0377302521956153
 20
9853243.0943907927721739
 30
0.0
 11
474538.7792349553201348
 21
9853243.2471877615898848
 31
0.0
  0
LINE
  5
8E5
  8
0A
 10
474538.7792349553201348
 20
9853243.2471877615898848
 30
0.0
 11
474538.5207396583282389
 21
9853243.3999847341328859
 31
0.0
  0
LINE
  5
8E6
  8
0A
 10
474538.5207396583282389
 20
9853243.3999847341328859
 30
0.0
 11
474538.2622443609288894
 21
9853243.5527817029505968
 31
0.0
  0
LINE
  5
8E7
  8
0A
 10
474538.2622443609288894
 20
9853243.5527817029505968
 30
0.0
 11
474538.0037490638205782
 21
9853243.705578675493598
 31
0.0
  0
LINE
  5
8E8
  8
0A
 10
474538.0037490638205782
 20
9853243.705578675493598
 30
0.0
 11
474537.7452537665958516
 21
9853243.8583756443113089
 31
0.0
  0
LINE
  5
8E9
  8
0A
 10
474537.7452537665958516
 20
9853243.8583756443113089
 30
0.0
 11
474537.4867584696039557
 21
9853244.01117261685431
 31
0.0
  0
LINE
  5
8EA
  8
0A
 10
474537.4867584696039557
 20
9853244.01117261685431
 30
0.0
 11
474537.2282631723210216
 21
9853244.1639695875346661
 31
0.0
  0
LINE
  5
8EB
  8
0A
 10
474537.2282631723210216
 20
9853244.1639695875346661
 30
0.0
 11
474536.969767875270918
 21
9853244.3167665563523769
 31
0.0
  0
LINE
  5
8EC
  8
0A
 10
474536.969767875270918
 20
9853244.3167665563523769
 30
0.0
 11
474536.7112725778715685
 21
9853244.469563527032733
 31
0.0
  0
LINE
  5
8ED
  8
0A
 10
474536.7112725778715685
 20
9853244.469563527032733
 30
0.0
 11
474536.4527772808796726
 21
9853244.6223604995757341
 31
0.0
  0
LINE
  5
8EE
  8
0A
 10
474536.4527772808796726
 20
9853244.6223604995757341
 30
0.0
 11
474536.1942819838877767
 21
9853244.775157468393445
 31
0.0
  0
LINE
  5
8EF
  8
0A
 10
474536.1942819838877767
 20
9853244.775157468393445
 30
0.0
 11
474535.9357866864884272
 21
9853244.9279544353485107
 31
0.0
  0
LINE
  5
8F0
  8
0A
 10
474535.9357866864884272
 20
9853244.9279544353485107
 30
0.0
 11
474535.6772913896129467
 21
9853245.0807514116168022
 31
0.0
  0
LINE
  5
8F1
  8
0A
 10
474535.6772913896129467
 20
9853245.0807514116168022
 30
0.0
 11
474535.4187960923882201
 21
9853245.2335483804345131
 31
0.0
  0
LINE
  5
8F2
  8
0A
 10
474535.4187960923882201
 20
9853245.2335483804345131
 30
0.0
 11
474535.1603007952799089
 21
9853245.3863453473895788
 31
0.0
  0
LINE
  5
8F3
  8
0A
 10
474535.1603007952799089
 20
9853245.3863453473895788
 30
0.0
 11
474534.901805498288013
 21
9853245.5391423217952251
 31
0.0
  0
LINE
  5
8F4
  8
0A
 10
474534.901805498288013
 20
9853245.5391423217952251
 30
0.0
 11
474534.6433102008886635
 21
9853245.6919392924755812
 31
0.0
  0
LINE
  5
8F5
  8
0A
 10
474534.6433102008886635
 20
9853245.6919392924755812
 30
0.0
 11
474534.3848149038967676
 21
9853245.8447362668812275
 31
0.0
  0
LINE
  5
8F6
  8
0A
 10
474534.3848149038967676
 20
9853245.8447362668812275
 30
0.0
 11
474534.1263196066138335
 21
9853245.9975332338362932
 31
0.0
  0
LINE
  5
8F7
  8
0A
 10
474534.1263196066138335
 20
9853245.9975332338362932
 30
0.0
 11
474533.8678243096219376
 21
9853246.1503302045166492
 31
0.0
  0
LINE
  5
8F8
  8
0A
 10
474533.8678243096219376
 20
9853246.1503302045166492
 30
0.0
 11
474533.609329012397211
 21
9853246.3031271770596504
 31
0.0
  0
LINE
  5
8F9
  8
0A
 10
474533.609329012397211
 20
9853246.3031271770596504
 30
0.0
 11
474533.3508337152888998
 21
9853246.4559241458773613
 31
0.0
  0
LINE
  5
8FA
  8
0A
 10
474533.3508337152888998
 20
9853246.4559241458773613
 30
0.0
 11
474533.092338418297004
 21
9853246.6087211184203625
 31
0.0
  0
LINE
  5
8FB
  8
0A
 10
474533.092338418297004
 20
9853246.6087211184203625
 30
0.0
 11
474532.8338431208976544
 21
9853246.7615180872380733
 31
0.0
  0
LINE
  5
8FC
  8
0A
 10
474532.8338431208976544
 20
9853246.7615180872380733
 30
0.0
 11
474532.5753478240221739
 21
9853246.9143150579184294
 31
0.0
  0
LINE
  5
8FD
  8
0A
 10
474532.5753478240221739
 20
9853246.9143150579184294
 30
0.0
 11
474532.316852526681032
 21
9853247.0671120267361403
 31
0.0
  0
LINE
  5
8FE
  8
0A
 10
474532.316852526681032
 20
9853247.0671120267361403
 30
0.0
 11
474532.0583572295145132
 21
9853247.2199089992791414
 31
0.0
  0
LINE
  5
8FF
  8
0A
 10
474532.0583572295145132
 20
9853247.2199089992791414
 30
0.0
 11
474531.7998619325226173
 21
9853247.3727059680968523
 31
0.0
  0
LINE
  5
900
  8
0A
 10
474531.7998619325226173
 20
9853247.3727059680968523
 30
0.0
 11
474531.5413666352978908
 21
9853247.5255029406398535
 31
0.0
  0
LINE
  5
901
  8
0A
 10
474531.5413666352978908
 20
9853247.5255029406398535
 30
0.0
 11
474531.2828713381895795
 21
9853247.6782999131828547
 31
0.0
  0
LINE
  5
902
  8
0A
 10
474531.2828713381895795
 20
9853247.6782999131828547
 30
0.0
 11
474530.5073854469228536
 21
9853248.1366908214986324
 31
0.0
  0
LINE
  5
903
  8
0A
 10
474530.5073854469228536
 20
9853248.1366908214986324
 30
0.0
 11
474529.9903948524734005
 21
9853248.4422847647219896
 31
0.0
  0
LINE
  5
904
  8
0A
 10
474529.9903948524734005
 20
9853248.4422847647219896
 30
0.0
 11
474529.7318995553068817
 21
9853248.5950817354023457
 31
0.0
  0
LINE
  5
905
  8
0A
 10
474529.7318995553068817
 20
9853248.5950817354023457
 30
0.0
 11
474529.4734042583149858
 21
9853248.7478787042200565
 31
0.0
  0
LINE
  5
906
  8
0A
 10
474529.4734042583149858
 20
9853248.7478787042200565
 30
0.0
 11
474529.2149089609738439
 21
9853248.9006756767630577
 31
0.0
  0
LINE
  5
907
  8
0A
 10
474529.2149089609738439
 20
9853248.9006756767630577
 30
0.0
 11
474528.956413663981948
 21
9853249.0534726455807686
 31
0.0
  0
LINE
  5
908
  8
0A
 10
474528.956413663981948
 20
9853249.0534726455807686
 30
0.0
 11
474528.6979183668154292
 21
9853249.2062696162611246
 31
0.0
  0
LINE
  5
909
  8
0A
 10
474528.6979183668154292
 20
9853249.2062696162611246
 30
0.0
 11
474528.4394230695907027
 21
9853249.3590665869414806
 31
0.0
  0
LINE
  5
90A
  8
0A
 10
474528.4394230695907027
 20
9853249.3590665869414806
 30
0.0
 11
474528.1809277725988068
 21
9853249.5118635632097721
 31
0.0
  0
LINE
  5
90B
  8
0A
 10
474528.1809277725988068
 20
9853249.5118635632097721
 30
0.0
 11
474527.9224324753158726
 21
9853249.6646605283021927
 31
0.0
  0
LINE
  5
90C
  8
0A
 10
474527.9224324753158726
 20
9853249.6646605283021927
 30
0.0
 11
474527.6639371783239767
 21
9853249.817457502707839
 31
0.0
  0
LINE
  5
90D
  8
0A
 10
474527.6639371783239767
 20
9853249.817457502707839
 30
0.0
 11
474527.4054418809828348
 21
9853249.9702544678002596
 31
0.0
  0
LINE
  5
90E
  8
0A
 10
474527.4054418809828348
 20
9853249.9702544678002596
 30
0.0
 11
474527.146946583990939
 21
9853250.1230514403432608
 31
0.0
  0
LINE
  5
90F
  8
0A
 10
474527.146946583990939
 20
9853250.1230514403432608
 30
0.0
 11
474526.8884512869990431
 21
9853250.2758484166115522
 31
0.0
  0
LINE
  5
910
  8
0A
 10
474526.8884512869990431
 20
9853250.2758484166115522
 30
0.0
 11
474526.6299559895996936
 21
9853250.4286453761160374
 31
0.0
  0
LINE
  5
911
  8
0A
 10
474526.6299559895996936
 20
9853250.4286453761160374
 30
0.0
 11
474526.3714606926077977
 21
9853250.581442354246974
 31
0.0
  0
LINE
  5
912
  8
0A
 10
474526.3714606926077977
 20
9853250.581442354246974
 30
0.0
 11
474526.1129653953830712
 21
9853250.7342393286526203
 31
0.0
  0
LINE
  5
913
  8
0A
 10
474526.1129653953830712
 20
9853250.7342393286526203
 30
0.0
 11
474525.8544700982165523
 21
9853250.887036295607686
 31
0.0
  0
LINE
  5
914
  8
0A
 10
474525.8544700982165523
 20
9853250.887036295607686
 30
0.0
 11
474525.5959748011082411
 21
9853251.0398332662880421
 31
0.0
  0
LINE
  5
915
  8
0A
 10
474525.5959748011082411
 20
9853251.0398332662880421
 30
0.0
 11
474525.3374795039999299
 21
9853251.1926302406936884
 31
0.0
  0
LINE
  5
916
  8
0A
 10
474525.3374795039999299
 20
9853251.1926302406936884
 30
0.0
 11
474525.0789842071244493
 21
9853251.3454272076487541
 31
0.0
  0
LINE
  5
917
  8
0A
 10
474525.0789842071244493
 20
9853251.3454272076487541
 30
0.0
 11
474524.8204889096086845
 21
9853251.498224176466465
 31
0.0
  0
LINE
  5
918
  8
0A
 10
474524.8204889096086845
 20
9853251.498224176466465
 30
0.0
 11
474524.5619936126749963
 21
9853251.6510211527347565
 31
0.0
  0
LINE
  5
919
  8
0A
 10
474524.5619936126749963
 20
9853251.6510211527347565
 30
0.0
 11
474524.3034983156831004
 21
9853251.8038181215524673
 31
0.0
  0
LINE
  5
91A
  8
0A
 10
474524.3034983156831004
 20
9853251.8038181215524673
 30
0.0
 11
474524.0450030182837509
 21
9853251.9566150866448879
 31
0.0
  0
LINE
  5
91B
  8
0A
 10
474524.0450030182837509
 20
9853251.9566150866448879
 30
0.0
 11
474523.7865077211754397
 21
9853252.1094120591878891
 31
0.0
  0
LINE
  5
91C
  8
0A
 10
474523.7865077211754397
 20
9853252.1094120591878891
 30
0.0
 11
474523.5280124241253361
 21
9853252.2622090335935354
 31
0.0
  0
LINE
  5
91D
  8
0A
 10
474523.5280124241253361
 20
9853252.2622090335935354
 30
0.0
 11
474523.2695171270752326
 21
9853252.4150060005486012
 31
0.0
  0
LINE
  5
91E
  8
0A
 10
474523.2695171270752326
 20
9853252.4150060005486012
 30
0.0
 11
474523.0110218296176754
 21
9853252.5678029730916023
 31
0.0
  0
LINE
  5
91F
  8
0A
 10
474523.0110218296176754
 20
9853252.5678029730916023
 30
0.0
 11
474522.7525265326839872
 21
9853252.7205999437719584
 31
0.0
  0
LINE
  5
920
  8
0A
 10
474522.7525265326839872
 20
9853252.7205999437719584
 30
0.0
 11
474522.494031235401053
 21
9853252.8733969125896692
 31
0.0
  0
LINE
  5
921
  8
0A
 10
474522.494031235401053
 20
9853252.8733969125896692
 30
0.0
 11
474522.2355359384091571
 21
9853253.0261938814073801
 31
0.0
  0
LINE
  5
922
  8
0A
 10
474522.2355359384091571
 20
9853253.0261938814073801
 30
0.0
 11
474521.9770406411844306
 21
9853253.1789908576756716
 31
0.0
  0
LINE
  5
923
  8
0A
 10
474521.9770406411844306
 20
9853253.1789908576756716
 30
0.0
 11
474521.7185453440761194
 21
9853253.3317878264933825
 31
0.0
  0
LINE
  5
924
  8
0A
 10
474521.7185453440761194
 20
9853253.3317878264933825
 30
0.0
 11
474521.4600500470842235
 21
9853253.4845847971737385
 31
0.0
  0
LINE
  5
925
  8
0A
 10
474521.4600500470842235
 20
9853253.4845847971737385
 30
0.0
 11
474521.201554749684874
 21
9853253.6373817697167397
 31
0.0
  0
LINE
  5
926
  8
0A
 10
474521.201554749684874
 20
9853253.6373817697167397
 30
0.0
 11
474520.9430594528093934
 21
9853253.7901787366718054
 31
0.0
  0
LINE
  5
927
  8
0A
 10
474520.9430594528093934
 20
9853253.7901787366718054
 30
0.0
 11
474520.6845641557010822
 21
9853253.9429757092148066
 31
0.0
  0
LINE
  5
928
  8
0A
 10
474520.6845641557010822
 20
9853253.9429757092148066
 30
0.0
 11
474520.4260688583017327
 21
9853254.0957726798951626
 31
0.0
  0
LINE
  5
929
  8
0A
 10
474520.4260688583017327
 20
9853254.0957726798951626
 30
0.0
 11
474520.1675735613098368
 21
9853254.2485696487128735
 31
0.0
  0
LINE
  5
92A
  8
0A
 10
474520.1675735613098368
 20
9853254.2485696487128735
 30
0.0
 11
474519.9090782640851103
 21
9853254.4013666193932295
 31
0.0
  0
LINE
  5
92B
  8
0A
 10
474519.9090782640851103
 20
9853254.4013666193932295
 30
0.0
 11
474519.6505829669767991
 21
9853254.554163595661521
 31
0.0
  0
LINE
  5
92C
  8
0A
 10
474519.6505829669767991
 20
9853254.554163595661521
 30
0.0
 11
474519.3920876698102802
 21
9853254.7069605626165867
 31
0.0
  0
LINE
  5
92D
  8
0A
 10
474519.3920876698102802
 20
9853254.7069605626165867
 30
0.0
 11
474519.1335923728183843
 21
9853254.8597575332969427
 31
0.0
  0
LINE
  5
92E
  8
0A
 10
474519.1335923728183843
 20
9853254.8597575332969427
 30
0.0
 11
474518.8750970757100731
 21
9853255.0125545095652342
 31
0.0
  0
LINE
  5
92F
  8
0A
 10
474518.8750970757100731
 20
9853255.0125545095652342
 30
0.0
 11
474518.6166017784271389
 21
9853255.1653514727950096
 31
0.0
  0
LINE
  5
930
  8
0A
 10
474518.6166017784271389
 20
9853255.1653514727950096
 30
0.0
 11
474518.3581064813188277
 21
9853255.3181484434753656
 31
0.0
  0
LINE
  5
931
  8
0A
 10
474518.3581064813188277
 20
9853255.3181484434753656
 30
0.0
 11
474518.0996111839776859
 21
9853255.4709454160183668
 31
0.0
  0
LINE
  5
932
  8
0A
 10
474518.0996111839776859
 20
9853255.4709454160183668
 30
0.0
 11
474517.84111588698579
 21
9853255.623742388561368
 31
0.0
  0
LINE
  5
933
  8
0A
 10
474517.84111588698579
 20
9853255.623742388561368
 30
0.0
 11
474517.5826205898192711
 21
9853255.7765393573790789
 31
0.0
  0
LINE
  5
934
  8
0A
 10
474517.5826205898192711
 20
9853255.7765393573790789
 30
0.0
 11
474517.3241252928273752
 21
9853255.9293363261967897
 31
0.0
  0
LINE
  5
935
  8
0A
 10
474517.3241252928273752
 20
9853255.9293363261967897
 30
0.0
 11
474517.0656299956026487
 21
9853256.0821333006024361
 31
0.0
  0
LINE
  5
936
  8
0A
 10
474517.0656299956026487
 20
9853256.0821333006024361
 30
0.0
 11
474516.8071346983779222
 21
9853256.2349302694201469
 31
0.0
  0
LINE
  5
937
  8
0A
 10
474516.8071346983779222
 20
9853256.2349302694201469
 30
0.0
 11
474516.5486394013860263
 21
9853256.3877272382378578
 31
0.0
  0
LINE
  5
938
  8
0A
 10
474516.5486394013860263
 20
9853256.3877272382378578
 30
0.0
 11
474516.2901441042195074
 21
9853256.5405242126435041
 31
0.0
  0
LINE
  5
939
  8
0A
 10
474516.2901441042195074
 20
9853256.5405242126435041
 30
0.0
 11
474516.0316488071111962
 21
9853256.6933211795985699
 31
0.0
  0
LINE
  5
93A
  8
0A
 10
474516.0316488071111962
 20
9853256.6933211795985699
 30
0.0
 11
474515.773153510002885
 21
9853256.846118152141571
 31
0.0
  0
LINE
  5
93B
  8
0A
 10
474515.773153510002885
 20
9853256.846118152141571
 30
0.0
 11
474515.5146582128945738
 21
9853256.9989151246845722
 31
0.0
  0
LINE
  5
93C
  8
0A
 10
474515.5146582128945738
 20
9853256.9989151246845722
 30
0.0
 11
474515.2561629157862626
 21
9853257.1517120935022831
 31
0.0
  0
LINE
  5
93D
  8
0A
 10
474515.2561629157862626
 20
9853257.1517120935022831
 30
0.0
 11
474514.9976676185033284
 21
9853257.3045090641826391
 31
0.0
  0
LINE
  5
93E
  8
0A
 10
474514.9976676185033284
 20
9853257.3045090641826391
 30
0.0
 11
474514.7391723213950172
 21
9853257.4573060367256403
 31
0.0
  0
LINE
  5
93F
  8
0A
 10
474514.7391723213950172
 20
9853257.4573060367256403
 30
0.0
 11
474514.4806770242284983
 21
9853257.6101030074059963
 31
0.0
  0
LINE
  5
940
  8
0A
 10
474514.4806770242284983
 20
9853257.6101030074059963
 30
0.0
 11
474514.2221817271783948
 21
9853257.7628999762237072
 31
0.0
  0
LINE
  5
941
  8
0A
 10
474514.2221817271783948
 20
9853257.7628999762237072
 30
0.0
 11
474513.9636864298954606
 21
9853257.9156969469040632
 31
0.0
  0
LINE
  5
942
  8
0A
 10
474513.9636864298954606
 20
9853257.9156969469040632
 30
0.0
 11
474513.7051911329035647
 21
9853258.0684939157217741
 31
0.0
  0
LINE
  5
943
  8
0A
 10
474513.7051911329035647
 20
9853258.0684939157217741
 30
0.0
 11
474513.4466958356206305
 21
9853258.2212908864021301
 31
0.0
  0
LINE
  5
944
  8
0A
 10
474513.4466958356206305
 20
9853258.2212908864021301
 30
0.0
 11
474513.1882005385123193
 21
9853258.3740878570824862
 31
0.0
  0
LINE
  5
945
  8
0A
 10
474513.1882005385123193
 20
9853258.3740878570824862
 30
0.0
 11
474512.9297052415204234
 21
9853258.5268848277628422
 31
0.0
  0
LINE
  5
946
  8
0A
 10
474512.9297052415204234
 20
9853258.5268848277628422
 30
0.0
 11
474512.6712099441792816
 21
9853258.6796818003058434
 31
0.0
  0
LINE
  5
947
  8
0A
 10
474512.6712099441792816
 20
9853258.6796818003058434
 30
0.0
 11
474512.4127146471873857
 21
9853258.8324787691235542
 31
0.0
  0
LINE
  5
948
  8
0A
 10
474512.4127146471873857
 20
9853258.8324787691235542
 30
0.0
 11
474512.1542193500208668
 21
9853258.9852757398039103
 31
0.0
  0
LINE
  5
949
  8
0A
 10
474512.1542193500208668
 20
9853258.9852757398039103
 30
0.0
 11
474511.8957240529125556
 21
9853259.1380727123469114
 31
0.0
  0
LINE
  5
94A
  8
0A
 10
474511.8957240529125556
 20
9853259.1380727123469114
 30
0.0
 11
474511.6372287556878291
 21
9853259.2908696793019772
 31
0.0
  0
LINE
  5
94B
  8
0A
 10
474511.6372287556878291
 20
9853259.2908696793019772
 30
0.0
 11
474511.3787334584048949
 21
9853259.4436666537076235
 31
0.0
  0
LINE
  5
94C
  8
0A
 10
474511.3787334584048949
 20
9853259.4436666537076235
 30
0.0
 11
474511.1202381614712067
 21
9853259.5964636225253344
 31
0.0
  0
LINE
  5
94D
  8
0A
 10
474511.1202381614712067
 20
9853259.5964636225253344
 30
0.0
 11
474510.8617428644211031
 21
9853259.7492605932056904
 31
0.0
  0
LINE
  5
94E
  8
0A
 10
474510.8617428644211031
 20
9853259.7492605932056904
 30
0.0
 11
474510.6032475671963766
 21
9853259.9020575638860464
 31
0.0
  0
LINE
  5
94F
  8
0A
 10
474510.6032475671963766
 20
9853259.9020575638860464
 30
0.0
 11
474510.3447522699716501
 21
9853260.0548545364290476
 31
0.0
  0
LINE
  5
950
  8
0A
 10
474510.3447522699716501
 20
9853260.0548545364290476
 30
0.0
 11
474510.0862569729215465
 21
9853260.2076515033841133
 31
0.0
  0
LINE
  5
951
  8
0A
 10
474510.0862569729215465
 20
9853260.2076515033841133
 30
0.0
 11
474509.827761675871443
 21
9853260.3604484759271145
 31
0.0
  0
LINE
  5
952
  8
0A
 10
474509.827761675871443
 20
9853260.3604484759271145
 30
0.0
 11
474509.5692663784720935
 21
9853260.5132454466074705
 31
0.0
  0
LINE
  5
953
  8
0A
 10
474509.5692663784720935
 20
9853260.5132454466074705
 30
0.0
 11
474509.3107710815966129
 21
9853260.6660424172878265
 31
0.0
  0
LINE
  5
954
  8
0A
 10
474509.3107710815966129
 20
9853260.6660424172878265
 30
0.0
 11
474509.0522757843718864
 21
9853260.8188393861055374
 31
0.0
  0
LINE
  5
955
  8
0A
 10
474509.0522757843718864
 20
9853260.8188393861055374
 30
0.0
 11
474508.7937804869725369
 21
9853260.9716363605111837
 31
0.0
  0
LINE
  5
956
  8
0A
 10
474508.7937804869725369
 20
9853260.9716363605111837
 30
0.0
 11
474508.535285189980641
 21
9853261.1244333293288946
 31
0.0
  0
LINE
  5
957
  8
0A
 10
474508.535285189980641
 20
9853261.1244333293288946
 30
0.0
 11
474508.2767898931051604
 21
9853261.2772303018718958
 31
0.0
  0
LINE
  5
958
  8
0A
 10
474508.2767898931051604
 20
9853261.2772303018718958
 30
0.0
 11
474508.0182945957058109
 21
9853261.430027274414897
 31
0.0
  0
LINE
  5
959
  8
0A
 10
474508.0182945957058109
 20
9853261.430027274414897
 30
0.0
 11
474507.7597992985974997
 21
9853261.5828242432326078
 31
0.0
  0
LINE
  5
95A
  8
0A
 10
474507.7597992985974997
 20
9853261.5828242432326078
 30
0.0
 11
474507.5013040017220192
 21
9853261.7356212101876736
 31
0.0
  0
LINE
  5
95B
  8
0A
 10
474507.5013040017220192
 20
9853261.7356212101876736
 30
0.0
 11
474507.2428087043226697
 21
9853261.8884181845933199
 31
0.0
  0
LINE
  5
95C
  8
0A
 10
474507.2428087043226697
 20
9853261.8884181845933199
 30
0.0
 11
474506.9843134072725661
 21
9853262.0412151534110308
 31
0.0
  0
LINE
  5
95D
  8
0A
 10
474506.9843134072725661
 20
9853262.0412151534110308
 30
0.0
 11
474506.7258181101060472
 21
9853262.1940121259540319
 31
0.0
  0
LINE
  5
95E
  8
0A
 10
474506.7258181101060472
 20
9853262.1940121259540319
 30
0.0
 11
474506.4673228128813207
 21
9853262.346809096634388
 31
0.0
  0
LINE
  5
95F
  8
0A
 10
474506.4673228128813207
 20
9853262.346809096634388
 30
0.0
 11
474506.2088275157148018
 21
9853262.4996060635894537
 31
0.0
  0
LINE
  5
960
  8
0A
 10
474506.2088275157148018
 20
9853262.4996060635894537
 30
0.0
 11
474505.9503322186064906
 21
9853262.6524030361324549
 31
0.0
  0
LINE
  5
961
  8
0A
 10
474505.9503322186064906
 20
9853262.6524030361324549
 30
0.0
 11
474505.6918369216145948
 21
9853262.8052000068128109
 31
0.0
  0
LINE
  5
962
  8
0A
 10
474505.6918369216145948
 20
9853262.8052000068128109
 30
0.0
 11
474505.4333416243898682
 21
9853262.9579969756305218
 31
0.0
  0
LINE
  5
963
  8
0A
 10
474505.4333416243898682
 20
9853262.9579969756305218
 30
0.0
 11
474505.174846327281557
 21
9853263.1107939500361681
 31
0.0
  0
LINE
  5
964
  8
0A
 10
474505.174846327281557
 20
9853263.1107939500361681
 30
0.0
 11
474504.9163510301150382
 21
9853263.2635909151285887
 31
0.0
  0
LINE
  5
965
  8
0A
 10
474504.9163510301150382
 20
9853263.2635909151285887
 30
0.0
 11
474504.6578557328903116
 21
9853263.4163878876715899
 31
0.0
  0
LINE
  5
966
  8
0A
 10
474504.6578557328903116
 20
9853263.4163878876715899
 30
0.0
 11
474504.3993604357237928
 21
9853263.569184860214591
 31
0.0
  0
LINE
  5
967
  8
0A
 10
474504.3993604357237928
 20
9853263.569184860214591
 30
0.0
 11
474504.1408651386736892
 21
9853263.7219818308949471
 31
0.0
  0
LINE
  5
968
  8
0A
 10
474504.1408651386736892
 20
9853263.7219818308949471
 30
0.0
 11
474503.3653792472905479
 21
9853264.1803727429360151
 31
0.0
  0
LINE
  5
969
  8
0A
 10
474503.3653792472905479
 20
9853264.1803727429360151
 30
0.0
 11
474503.1068839501822367
 21
9853264.3331697136163712
 31
0.0
  0
LINE
  5
96A
  8
0A
 10
474503.1068839501822367
 20
9853264.3331697136163712
 30
0.0
 11
474502.8483886530739255
 21
9853264.4859666842967272
 31
0.0
  0
LINE
  5
96B
  8
0A
 10
474502.8483886530739255
 20
9853264.4859666842967272
 30
0.0
 11
474502.589893356023822
 21
9853264.6387636605650187
 31
0.0
  0
LINE
  5
96C
  8
0A
 10
474502.589893356023822
 20
9853264.6387636605650187
 30
0.0
 11
474502.3313980586826801
 21
9853264.7915606256574392
 31
0.0
  0
LINE
  5
96D
  8
0A
 10
474502.3313980586826801
 20
9853264.7915606256574392
 30
0.0
 11
474502.0729027618071996
 21
9853264.944357592612505
 31
0.0
  0
LINE
  5
96E
  8
0A
 10
474502.0729027618071996
 20
9853264.944357592612505
 30
0.0
 11
474501.814407464582473
 21
9853265.0971545670181513
 31
0.0
  0
LINE
  5
96F
  8
0A
 10
474501.814407464582473
 20
9853265.0971545670181513
 30
0.0
 11
474501.297416870307643
 21
9853265.4027485083788633
 31
0.0
  0
LINE
  5
970
  8
0A
 10
474501.297416870307643
 20
9853265.4027485083788633
 30
0.0
 11
474501.0389215730247088
 21
9853265.5555454846471548
 31
0.0
  0
LINE
  5
971
  8
0A
 10
474501.0389215730247088
 20
9853265.5555454846471548
 30
0.0
 11
474500.7804262759746052
 21
9853265.7083424460142851
 31
0.0
  0
LINE
  5
972
  8
0A
 10
474500.7804262759746052
 20
9853265.7083424460142851
 30
0.0
 11
474500.5219309788080864
 21
9853265.8611394166946411
 31
0.0
  0
LINE
  5
973
  8
0A
 10
474500.5219309788080864
 20
9853265.8611394166946411
 30
0.0
 11
474500.2634356816997752
 21
9853266.0139363929629326
 31
0.0
  0
LINE
  5
974
  8
0A
 10
474500.2634356816997752
 20
9853266.0139363929629326
 30
0.0
 11
474500.004940384591464
 21
9853266.1667333599179983
 31
0.0
  0
LINE
  5
975
  8
0A
 10
474500.004940384591464
 20
9853266.1667333599179983
 30
0.0
 11
474499.7464450873085298
 21
9853266.3195303324609995
 31
0.0
  0
LINE
  5
976
  8
0A
 10
474499.7464450873085298
 20
9853266.3195303324609995
 30
0.0
 11
474499.4879497903166339
 21
9853266.4723273031413555
 31
0.0
  0
LINE
  5
977
  8
0A
 10
474499.4879497903166339
 20
9853266.4723273031413555
 30
0.0
 11
474499.2294544930919074
 21
9853266.6251242756843567
 31
0.0
  0
LINE
  5
978
  8
0A
 10
474499.2294544930919074
 20
9853266.6251242756843567
 30
0.0
 11
474498.9709591961000115
 21
9853266.7779212445020676
 31
0.0
  0
LINE
  5
979
  8
0A
 10
474498.9709591961000115
 20
9853266.7779212445020676
 30
0.0
 11
474498.7124638988170773
 21
9853266.9307182189077139
 31
0.0
  0
LINE
  5
97A
  8
0A
 10
474498.7124638988170773
 20
9853266.9307182189077139
 30
0.0
 11
474498.4539686018251814
 21
9853267.0835151858627796
 31
0.0
  0
LINE
  5
97B
  8
0A
 10
474498.4539686018251814
 20
9853267.0835151858627796
 30
0.0
 11
474498.1954733047750778
 21
9853267.2363121546804905
 31
0.0
  0
LINE
  5
97C
  8
0A
 10
474498.1954733047750778
 20
9853267.2363121546804905
 30
0.0
 11
474497.9369780073175207
 21
9853267.3891091253608465
 31
0.0
  0
LINE
  5
97D
  8
0A
 10
474497.9369780073175207
 20
9853267.3891091253608465
 30
0.0
 11
474497.6784827103838325
 21
9853267.5419060979038477
 31
0.0
  0
LINE
  5
97E
  8
0A
 10
474497.6784827103838325
 20
9853267.5419060979038477
 30
0.0
 11
474497.4199874132173136
 21
9853267.6947030629962683
 31
0.0
  0
LINE
  5
97F
  8
0A
 10
474497.4199874132173136
 20
9853267.6947030629962683
 30
0.0
 11
474497.1614921161090024
 21
9853267.8475000392645597
 31
0.0
  0
LINE
  5
980
  8
0A
 10
474497.1614921161090024
 20
9853267.8475000392645597
 30
0.0
 11
474496.9029968188260682
 21
9853268.0002970099449158
 31
0.0
  0
LINE
  5
981
  8
0A
 10
474496.9029968188260682
 20
9853268.0002970099449158
 30
0.0
 11
474496.6445015217759646
 21
9853268.1530939806252718
 31
0.0
  0
LINE
  5
982
  8
0A
 10
474496.6445015217759646
 20
9853268.1530939806252718
 30
0.0
 11
474496.3860062247840688
 21
9853268.305890953168273
 31
0.0
  0
LINE
  5
983
  8
0A
 10
474496.3860062247840688
 20
9853268.305890953168273
 30
0.0
 11
474495.8690156305092387
 21
9853268.6114848926663399
 31
0.0
  0
LINE
  5
984
  8
0A
 10
474495.8690156305092387
 20
9853268.6114848926663399
 30
0.0
 11
474495.6105203331098892
 21
9853268.7642818633466959
 31
0.0
  0
LINE
  5
985
  8
0A
 10
474495.6105203331098892
 20
9853268.7642818633466959
 30
0.0
 11
474495.3520250361179933
 21
9853268.9170788340270519
 31
0.0
  0
LINE
  5
986
  8
0A
 10
474495.3520250361179933
 20
9853268.9170788340270519
 30
0.0
 11
474495.0935297388932668
 21
9853269.0698758065700531
 31
0.0
  0
LINE
  5
987
  8
0A
 10
474495.0935297388932668
 20
9853269.0698758065700531
 30
0.0
 11
474494.8350344417849556
 21
9853269.2226727735251188
 31
0.0
  0
LINE
  5
988
  8
0A
 10
474494.8350344417849556
 20
9853269.2226727735251188
 30
0.0
 11
474494.5765391447930597
 21
9853269.37546974606812
 31
0.0
  0
LINE
  5
989
  8
0A
 10
474494.5765391447930597
 20
9853269.37546974606812
 30
0.0
 11
474494.3180438473937102
 21
9853269.528266716748476
 31
0.0
  0
LINE
  5
98A
  8
0A
 10
474494.3180438473937102
 20
9853269.528266716748476
 30
0.0
 11
474494.0595485505182296
 21
9853269.6810636818408966
 31
0.0
  0
LINE
  5
98B
  8
0A
 10
474494.0595485505182296
 20
9853269.6810636818408966
 30
0.0
 11
474493.8010532531188801
 21
9853269.8338606581091881
 31
0.0
  0
LINE
  5
98C
  8
0A
 10
474493.8010532531188801
 20
9853269.8338606581091881
 30
0.0
 11
474493.5425579561269842
 21
9853269.9866576325148344
 31
0.0
  0
LINE
  5
98D
  8
0A
 10
474493.5425579561269842
 20
9853269.9866576325148344
 30
0.0
 11
474493.2840626590768807
 21
9853270.1394545994699001
 31
0.0
  0
LINE
  5
98E
  8
0A
 10
474493.2840626590768807
 20
9853270.1394545994699001
 30
0.0
 11
474493.0255673617939465
 21
9853270.2922515701502562
 31
0.0
  0
LINE
  5
98F
  8
0A
 10
474493.0255673617939465
 20
9853270.2922515701502562
 30
0.0
 11
474492.7670720646856353
 21
9853270.4450485445559025
 31
0.0
  0
LINE
  5
990
  8
0A
 10
474492.7670720646856353
 20
9853270.4450485445559025
 30
0.0
 11
474492.5085767675191164
 21
9853270.5978455059230328
 31
0.0
  0
LINE
  5
991
  8
0A
 10
474492.5085767675191164
 20
9853270.5978455059230328
 30
0.0
 11
474492.2500814705272205
 21
9853270.7506424766033888
 31
0.0
  0
LINE
  5
992
  8
0A
 10
474492.2500814705272205
 20
9853270.7506424766033888
 30
0.0
 11
474491.991586173302494
 21
9853270.9034394528716803
 31
0.0
  0
LINE
  5
993
  8
0A
 10
474491.991586173302494
 20
9853270.9034394528716803
 30
0.0
 11
474491.7330908760777675
 21
9853271.0562364216893911
 31
0.0
  0
LINE
  5
994
  8
0A
 10
474491.7330908760777675
 20
9853271.0562364216893911
 30
0.0
 11
474491.4745955790858716
 21
9853271.2090333923697472
 31
0.0
  0
LINE
  5
995
  8
0A
 10
474491.4745955790858716
 20
9853271.2090333923697472
 30
0.0
 11
474491.2161002818029374
 21
9853271.3618303667753935
 31
0.0
  0
LINE
  5
996
  8
0A
 10
474491.2161002818029374
 20
9853271.3618303667753935
 30
0.0
 11
474490.9576049848110415
 21
9853271.5146273355931044
 31
0.0
  0
LINE
  5
997
  8
0A
 10
474490.9576049848110415
 20
9853271.5146273355931044
 30
0.0
 11
474490.6991096875281073
 21
9853271.6674243044108152
 31
0.0
  0
LINE
  5
998
  8
0A
 10
474490.6991096875281073
 20
9853271.6674243044108152
 30
0.0
 11
474490.4406143904780038
 21
9853271.820221284404397
 31
0.0
  0
LINE
  5
999
  8
0A
 10
474490.4406143904780038
 20
9853271.820221284404397
 30
0.0
 11
474490.1821190934861079
 21
9853271.9730182457715273
 31
0.0
  0
LINE
  5
99A
  8
0A
 10
474490.1821190934861079
 20
9853271.9730182457715273
 30
0.0
 11
474489.9236237960867584
 21
9853272.1258152183145285
 31
0.0
  0
LINE
  5
99B
  8
0A
 10
474489.9236237960867584
 20
9853272.1258152183145285
 30
0.0
 11
474489.6651284990948625
 21
9853272.2786121927201748
 31
0.0
  0
LINE
  5
99C
  8
0A
 10
474489.6651284990948625
 20
9853272.2786121927201748
 30
0.0
 11
474489.4066332018119283
 21
9853272.4314091615378857
 31
0.0
  0
LINE
  5
99D
  8
0A
 10
474489.4066332018119283
 20
9853272.4314091615378857
 30
0.0
 11
474489.1481379045289941
 21
9853272.5842061266303062
 31
0.0
  0
LINE
  5
99E
  8
0A
 10
474489.1481379045289941
 20
9853272.5842061266303062
 30
0.0
 11
474488.8896426075953059
 21
9853272.7370030991733074
 31
0.0
  0
LINE
  5
99F
  8
0A
 10
474488.8896426075953059
 20
9853272.7370030991733074
 30
0.0
 11
474488.6311473104869947
 21
9853272.8898000717163086
 31
0.0
  0
LINE
  5
9A0
  8
0A
 10
474488.6311473104869947
 20
9853272.8898000717163086
 30
0.0
 11
474488.3726520130876452
 21
9853273.0425970405340195
 31
0.0
  0
LINE
  5
9A1
  8
0A
 10
474488.3726520130876452
 20
9853273.0425970405340195
 30
0.0
 11
474488.1141567160957493
 21
9853273.1953940130770206
 31
0.0
  0
LINE
  5
9A2
  8
0A
 10
474488.1141567160957493
 20
9853273.1953940130770206
 30
0.0
 11
474487.8556614192202687
 21
9853273.3481909856200218
 31
0.0
  0
LINE
  5
9A3
  8
0A
 10
474487.8556614192202687
 20
9853273.3481909856200218
 30
0.0
 11
474487.5971661222283728
 21
9853273.5009879525750875
 31
0.0
  0
LINE
  5
9A4
  8
0A
 10
474487.5971661222283728
 20
9853273.5009879525750875
 30
0.0
 11
474487.3386708248290233
 21
9853273.6537849213927984
 31
0.0
  0
LINE
  5
9A5
  8
0A
 10
474487.3386708248290233
 20
9853273.6537849213927984
 30
0.0
 11
474487.0801755276042968
 21
9853273.8065818957984447
 31
0.0
  0
LINE
  5
9A6
  8
0A
 10
474487.0801755276042968
 20
9853273.8065818957984447
 30
0.0
 11
474486.8216802304959856
 21
9853273.9593788646161556
 31
0.0
  0
LINE
  5
9A7
  8
0A
 10
474486.8216802304959856
 20
9853273.9593788646161556
 30
0.0
 11
474486.5631849335040897
 21
9853274.1121758371591568
 31
0.0
  0
LINE
  5
9A8
  8
0A
 10
474486.5631849335040897
 20
9853274.1121758371591568
 30
0.0
 11
474486.3046896361047402
 21
9853274.264972809702158
 31
0.0
  0
LINE
  5
9A9
  8
0A
 10
474486.3046896361047402
 20
9853274.264972809702158
 30
0.0
 11
474486.046194339171052
 21
9853274.4177697766572237
 31
0.0
  0
LINE
  5
9AA
  8
0A
 10
474486.046194339171052
 20
9853274.4177697766572237
 30
0.0
 11
474485.7876990417717025
 21
9853274.5705667473375797
 31
0.0
  0
LINE
  5
9AB
  8
0A
 10
474485.7876990417717025
 20
9853274.5705667473375797
 30
0.0
 11
474485.5292037447798066
 21
9853274.7233637198805809
 31
0.0
  0
LINE
  5
9AC
  8
0A
 10
474485.5292037447798066
 20
9853274.7233637198805809
 30
0.0
 11
474485.2707084474968724
 21
9853274.8761606924235821
 31
0.0
  0
LINE
  5
9AD
  8
0A
 10
474485.2707084474968724
 20
9853274.8761606924235821
 30
0.0
 11
474485.0122131506213918
 21
9853275.0289576556533575
 31
0.0
  0
LINE
  5
9AE
  8
0A
 10
474485.0122131506213918
 20
9853275.0289576556533575
 30
0.0
 11
474484.7537178535130806
 21
9853275.181754631921649
 31
0.0
  0
LINE
  5
9AF
  8
0A
 10
474484.7537178535130806
 20
9853275.181754631921649
 30
0.0
 11
474484.4952225561719388
 21
9853275.334551602602005
 31
0.0
  0
LINE
  5
9B0
  8
0A
 10
474484.4952225561719388
 20
9853275.334551602602005
 30
0.0
 11
474484.2367272591800429
 21
9853275.487348573282361
 31
0.0
  0
LINE
  5
9B1
  8
0A
 10
474484.2367272591800429
 20
9853275.487348573282361
 30
0.0
 11
474483.9782319617806934
 21
9853275.6401455383747816
 31
0.0
  0
LINE
  5
9B2
  8
0A
 10
474483.9782319617806934
 20
9853275.6401455383747816
 30
0.0
 11
474483.7197366647887975
 21
9853275.7929425127804279
 31
0.0
  0
LINE
  5
9B3
  8
0A
 10
474483.7197366647887975
 20
9853275.7929425127804279
 30
0.0
 11
474483.4612413676804863
 21
9853275.945739483460784
 31
0.0
  0
LINE
  5
9B4
  8
0A
 10
474483.4612413676804863
 20
9853275.945739483460784
 30
0.0
 11
474483.2027460705139674
 21
9853276.09853645414114
 31
0.0
  0
LINE
  5
9B5
  8
0A
 10
474483.2027460705139674
 20
9853276.09853645414114
 30
0.0
 11
474482.9442507735220715
 21
9853276.2513334266841412
 31
0.0
  0
LINE
  5
9B6
  8
0A
 10
474482.9442507735220715
 20
9853276.2513334266841412
 30
0.0
 11
474482.6857554761809297
 21
9853276.4041303936392069
 31
0.0
  0
LINE
  5
9B7
  8
0A
 10
474482.6857554761809297
 20
9853276.4041303936392069
 30
0.0
 11
474482.4272601791890338
 21
9853276.5569273661822081
 31
0.0
  0
LINE
  5
9B8
  8
0A
 10
474482.4272601791890338
 20
9853276.5569273661822081
 30
0.0
 11
474482.1687648820225149
 21
9853276.7097243368625641
 31
0.0
  0
LINE
  5
9B9
  8
0A
 10
474482.1687648820225149
 20
9853276.7097243368625641
 30
0.0
 11
474481.9102695849142037
 21
9853276.8625213075429201
 31
0.0
  0
LINE
  5
9BA
  8
0A
 10
474481.9102695849142037
 20
9853276.8625213075429201
 30
0.0
 11
474481.6517742878058925
 21
9853277.0153182819485664
 31
0.0
  0
LINE
  5
9BB
  8
0A
 10
474481.6517742878058925
 20
9853277.0153182819485664
 30
0.0
 11
474481.393278990581166
 21
9853277.1681152526289225
 31
0.0
  0
LINE
  5
9BC
  8
0A
 10
474481.393278990581166
 20
9853277.1681152526289225
 30
0.0
 11
474481.1347836934728548
 21
9853277.3209122214466333
 31
0.0
  0
LINE
  5
9BD
  8
0A
 10
474481.1347836934728548
 20
9853277.3209122214466333
 30
0.0
 11
474480.8762883963063359
 21
9853277.4737091939896345
 31
0.0
  0
LINE
  5
9BE
  8
0A
 10
474480.8762883963063359
 20
9853277.4737091939896345
 30
0.0
 11
474480.61779309931444
 21
9853277.6265061646699905
 31
0.0
  0
LINE
  5
9BF
  8
0A
 10
474480.61779309931444
 20
9853277.6265061646699905
 30
0.0
 11
474480.3592978022061288
 21
9853277.7793031334877014
 31
0.0
  0
LINE
  5
9C0
  8
0A
 10
474480.3592978022061288
 20
9853277.7793031334877014
 30
0.0
 11
474480.1008025049231946
 21
9853277.9321001041680574
 31
0.0
  0
LINE
  5
9C1
  8
0A
 10
474480.1008025049231946
 20
9853277.9321001041680574
 30
0.0
 11
474479.8423072078148834
 21
9853278.0848970729857683
 31
0.0
  0
LINE
  5
9C2
  8
0A
 10
474479.8423072078148834
 20
9853278.0848970729857683
 30
0.0
 11
474479.5838119108229876
 21
9853278.2376940492540598
 31
0.0
  0
LINE
  5
9C3
  8
0A
 10
474479.5838119108229876
 20
9853278.2376940492540598
 30
0.0
 11
474479.3253166134818457
 21
9853278.3904910162091255
 31
0.0
  0
LINE
  5
9C4
  8
0A
 10
474479.3253166134818457
 20
9853278.3904910162091255
 30
0.0
 11
474479.0668213164899498
 21
9853278.543287992477417
 31
0.0
  0
LINE
  5
9C5
  8
0A
 10
474479.0668213164899498
 20
9853278.543287992477417
 30
0.0
 11
474478.808326019323431
 21
9853278.6960849557071924
 31
0.0
  0
LINE
  5
9C6
  8
0A
 10
474478.808326019323431
 20
9853278.6960849557071924
 30
0.0
 11
474478.5498307218076661
 21
9853278.8488819245249033
 31
0.0
  0
LINE
  5
9C7
  8
0A
 10
474478.5498307218076661
 20
9853278.8488819245249033
 30
0.0
 11
474478.2913354248739779
 21
9853279.0016788970679045
 31
0.0
  0
LINE
  5
9C8
  8
0A
 10
474478.2913354248739779
 20
9853279.0016788970679045
 30
0.0
 11
474478.032840127882082
 21
9853279.1544758696109056
 31
0.0
  0
LINE
  5
9C9
  8
0A
 10
474478.032840127882082
 20
9853279.1544758696109056
 30
0.0
 11
474477.7743448310066015
 21
9853279.3072728384286165
 31
0.0
  0
LINE
  5
9CA
  8
0A
 10
474477.7743448310066015
 20
9853279.3072728384286165
 30
0.0
 11
474477.5158495334908366
 21
9853279.4600698072463274
 31
0.0
  0
LINE
  5
9CB
  8
0A
 10
474477.5158495334908366
 20
9853279.4600698072463274
 30
0.0
 11
474477.2573542363825254
 21
9853279.6128667835146189
 31
0.0
  0
LINE
  5
9CC
  8
0A
 10
474477.2573542363825254
 20
9853279.6128667835146189
 30
0.0
 11
474476.9988589392742142
 21
9853279.7656637523323298
 31
0.0
  0
LINE
  5
9CD
  8
0A
 10
474476.9988589392742142
 20
9853279.7656637523323298
 30
0.0
 11
474476.7403636422823183
 21
9853279.9184607192873955
 31
0.0
  0
LINE
  5
9CE
  8
0A
 10
474476.7403636422823183
 20
9853279.9184607192873955
 30
0.0
 11
474476.4818683448829688
 21
9853280.0712576918303967
 31
0.0
  0
LINE
  5
9CF
  8
0A
 10
474476.4818683448829688
 20
9853280.0712576918303967
 30
0.0
 11
474476.2233730480074883
 21
9853280.2240546625107527
 31
0.0
  0
LINE
  5
9D0
  8
0A
 10
474476.2233730480074883
 20
9853280.2240546625107527
 30
0.0
 11
474475.9648777510155924
 21
9853280.3768516331911087
 31
0.0
  0
LINE
  5
9D1
  8
0A
 10
474475.9648777510155924
 20
9853280.3768516331911087
 30
0.0
 11
474475.7063824536162429
 21
9853280.5296486057341099
 31
0.0
  0
LINE
  5
9D2
  8
0A
 10
474475.7063824536162429
 20
9853280.5296486057341099
 30
0.0
 11
474475.4478871563915163
 21
9853280.6824455726891756
 31
0.0
  0
LINE
  5
9D3
  8
0A
 10
474475.4478871563915163
 20
9853280.6824455726891756
 30
0.0
 11
474475.1893918592832051
 21
9853280.8352425433695316
 31
0.0
  0
LINE
  5
9D4
  8
0A
 10
474475.1893918592832051
 20
9853280.8352425433695316
 30
0.0
 11
474474.9308965621166863
 21
9853280.9880395196378231
 31
0.0
  0
LINE
  5
9D5
  8
0A
 10
474474.9308965621166863
 20
9853280.9880395196378231
 30
0.0
 11
474474.6724012648919597
 21
9853281.140836488455534
 31
0.0
  0
LINE
  5
9D6
  8
0A
 10
474474.6724012648919597
 20
9853281.140836488455534
 30
0.0
 11
474474.4139059680164792
 21
9853281.2936334554105997
 31
0.0
  0
LINE
  5
9D7
  8
0A
 10
474474.4139059680164792
 20
9853281.2936334554105997
 30
0.0
 11
474474.1554106707917526
 21
9853281.4464304242283106
 31
0.0
  0
LINE
  5
9D8
  8
0A
 10
474474.1554106707917526
 20
9853281.4464304242283106
 30
0.0
 11
474473.8969153735088184
 21
9853281.5992274004966021
 31
0.0
  0
LINE
  5
9D9
  8
0A
 10
474473.8969153735088184
 20
9853281.5992274004966021
 30
0.0
 11
474473.6384200764005072
 21
9853281.7520243693143129
 31
0.0
  0
LINE
  5
9DA
  8
0A
 10
474473.6384200764005072
 20
9853281.7520243693143129
 30
0.0
 11
474473.3799247794086114
 21
9853281.904821339994669
 31
0.0
  0
LINE
  5
9DB
  8
0A
 10
474473.3799247794086114
 20
9853281.904821339994669
 30
0.0
 11
474473.1214294821838848
 21
9853282.0576183125376701
 31
0.0
  0
LINE
  5
9DC
  8
0A
 10
474473.1214294821838848
 20
9853282.0576183125376701
 30
0.0
 11
474472.862934185017366
 21
9853282.2104152794927359
 31
0.0
  0
LINE
  5
9DD
  8
0A
 10
474472.862934185017366
 20
9853282.2104152794927359
 30
0.0
 11
474472.6044388880836777
 21
9853282.3632122538983822
 31
0.0
  0
LINE
  5
9DE
  8
0A
 10
474472.6044388880836777
 20
9853282.3632122538983822
 30
0.0
 11
474472.3459435909171589
 21
9853282.5160092245787382
 31
0.0
  0
LINE
  5
9DF
  8
0A
 10
474472.3459435909171589
 20
9853282.5160092245787382
 30
0.0
 11
474472.0874482936924323
 21
9853282.6688061933964491
 31
0.0
  0
LINE
  5
9E0
  8
0A
 10
474472.0874482936924323
 20
9853282.6688061933964491
 30
0.0
 11
474471.8289529964094982
 21
9853282.8216031640768051
 31
0.0
  0
LINE
  5
9E1
  8
0A
 10
474471.8289529964094982
 20
9853282.8216031640768051
 30
0.0
 11
474471.5704576991847716
 21
9853282.9744001366198063
 31
0.0
  0
LINE
  5
9E2
  8
0A
 10
474471.5704576991847716
 20
9853282.9744001366198063
 30
0.0
 11
474471.3119624021928757
 21
9853283.127197103574872
 31
0.0
  0
LINE
  5
9E3
  8
0A
 10
474471.3119624021928757
 20
9853283.127197103574872
 30
0.0
 11
474471.0534671050263569
 21
9853283.2799940779805183
 31
0.0
  0
LINE
  5
9E4
  8
0A
 10
474471.0534671050263569
 20
9853283.2799940779805183
 30
0.0
 11
474470.7949718080926687
 21
9853283.4327910467982292
 31
0.0
  0
LINE
  5
9E5
  8
0A
 10
474470.7949718080926687
 20
9853283.4327910467982292
 30
0.0
 11
474470.5364765106933191
 21
9853283.5855880174785852
 31
0.0
  0
LINE
  5
9E6
  8
0A
 10
474470.5364765106933191
 20
9853283.5855880174785852
 30
0.0
 11
474470.2779812135268003
 21
9853283.7383849881589413
 31
0.0
  0
LINE
  5
9E7
  8
0A
 10
474470.2779812135268003
 20
9853283.7383849881589413
 30
0.0
 11
474470.0194859165931121
 21
9853283.8911819607019424
 31
0.0
  0
LINE
  5
9E8
  8
0A
 10
474470.0194859165931121
 20
9853283.8911819607019424
 30
0.0
 11
474469.7609906194265932
 21
9853284.0439789276570082
 31
0.0
  0
LINE
  5
9E9
  8
0A
 10
474469.7609906194265932
 20
9853284.0439789276570082
 30
0.0
 11
474469.5024953222018667
 21
9853284.1967759002000093
 31
0.0
  0
LINE
  5
9EA
  8
0A
 10
474469.5024953222018667
 20
9853284.1967759002000093
 30
0.0
 11
474469.2440000250935555
 21
9853284.3495728746056557
 31
0.0
  0
LINE
  5
9EB
  8
0A
 10
474469.2440000250935555
 20
9853284.3495728746056557
 30
0.0
 11
474468.9855047279852442
 21
9853284.5023698434233665
 31
0.0
  0
LINE
  5
9EC
  8
0A
 10
474468.9855047279852442
 20
9853284.5023698434233665
 30
0.0
 11
474468.727009430876933
 21
9853284.6551668122410774
 31
0.0
  0
LINE
  5
9ED
  8
0A
 10
474468.727009430876933
 20
9853284.6551668122410774
 30
0.0
 11
474468.4685141335939988
 21
9853284.8079637829214334
 31
0.0
  0
LINE
  5
9EE
  8
0A
 10
474468.4685141335939988
 20
9853284.8079637829214334
 30
0.0
 11
474468.2100188367185183
 21
9853284.9607607536017895
 31
0.0
  0
LINE
  5
9EF
  8
0A
 10
474468.2100188367185183
 20
9853284.9607607536017895
 30
0.0
 11
474467.9515235393773764
 21
9853285.1135577298700809
 31
0.0
  0
LINE
  5
9F0
  8
0A
 10
474467.9515235393773764
 20
9853285.1135577298700809
 30
0.0
 11
474467.6930282423854806
 21
9853285.266354700550437
 31
0.0
  0
LINE
  5
9F1
  8
0A
 10
474467.6930282423854806
 20
9853285.266354700550437
 30
0.0
 11
474467.1760376481106505
 21
9853285.5719486363232136
 31
0.0
  0
LINE
  5
9F2
  8
0A
 10
474467.1760376481106505
 20
9853285.5719486363232136
 30
0.0
 11
474466.917542350885924
 21
9853285.7247456032782793
 31
0.0
  0
LINE
  5
9F3
  8
0A
 10
474466.917542350885924
 20
9853285.7247456032782793
 30
0.0
 11
474466.6590470536029898
 21
9853285.8775425776839256
 31
0.0
  0
LINE
  5
9F4
  8
0A
 10
474466.6590470536029898
 20
9853285.8775425776839256
 30
0.0
 11
474466.4005517567275092
 21
9853286.0303395465016365
 31
0.0
  0
LINE
  5
9F5
  8
0A
 10
474466.4005517567275092
 20
9853286.0303395465016365
 30
0.0
 11
474466.1420564595027827
 21
9853286.1831365209072828
 31
0.0
  0
LINE
  5
9F6
  8
0A
 10
474466.1420564595027827
 20
9853286.1831365209072828
 30
0.0
 11
474465.8835611621034332
 21
9853286.3359334878623486
 31
0.0
  0
LINE
  5
9F7
  8
0A
 10
474465.8835611621034332
 20
9853286.3359334878623486
 30
0.0
 11
474465.6250658652279526
 21
9853286.4887304604053497
 31
0.0
  0
LINE
  5
9F8
  8
0A
 10
474465.6250658652279526
 20
9853286.4887304604053497
 30
0.0
 11
474465.3665705681196414
 21
9853286.6415274236351252
 31
0.0
  0
LINE
  5
9F9
  8
0A
 10
474465.3665705681196414
 20
9853286.6415274236351252
 30
0.0
 11
474465.1080752710113302
 21
9853286.7943243980407715
 31
0.0
  0
LINE
  5
9FA
  8
0A
 10
474465.1080752710113302
 20
9853286.7943243980407715
 30
0.0
 11
474464.849579973728396
 21
9853286.9471213724464178
 31
0.0
  0
LINE
  5
9FB
  8
0A
 10
474464.849579973728396
 20
9853286.9471213724464178
 30
0.0
 11
474464.5910846767947078
 21
9853287.0999183431267738
 31
0.0
  0
LINE
  5
9FC
  8
0A
 10
474464.5910846767947078
 20
9853287.0999183431267738
 30
0.0
 11
474464.3325893796281889
 21
9853287.2527153175324202
 31
0.0
  0
LINE
  5
9FD
  8
0A
 10
474464.3325893796281889
 20
9853287.2527153175324202
 30
0.0
 11
474464.0740940824034624
 21
9853287.4055122844874859
 31
0.0
  0
LINE
  5
9FE
  8
0A
 10
474464.0740940824034624
 20
9853287.4055122844874859
 30
0.0
 11
474463.8155987851787359
 21
9853287.5583092588931322
 31
0.0
  0
LINE
  5
9FF
  8
0A
 10
474463.8155987851787359
 20
9853287.5583092588931322
 30
0.0
 11
474463.55710348818684
 21
9853287.7111062239855528
 31
0.0
  0
LINE
  5
A00
  8
0A
 10
474463.55710348818684
 20
9853287.7111062239855528
 30
0.0
 11
474463.2986081910785288
 21
9853287.8639031890779734
 31
0.0
  0
LINE
  5
A01
  8
0A
 10
474463.2986081910785288
 20
9853287.8639031890779734
 30
0.0
 11
474463.0401128939120099
 21
9853288.01670016720891
 31
0.0
  0
LINE
  5
A02
  8
0A
 10
474463.0401128939120099
 20
9853288.01670016720891
 30
0.0
 11
474462.7816175968036987
 21
9853288.1694971397519112
 31
0.0
  0
LINE
  5
A03
  8
0A
 10
474462.7816175968036987
 20
9853288.1694971397519112
 30
0.0
 11
474462.5231222995789722
 21
9853288.3222941067069769
 31
0.0
  0
LINE
  5
A04
  8
0A
 10
474462.5231222995789722
 20
9853288.3222941067069769
 30
0.0
 11
474462.2646270025288686
 21
9853288.4750910755246878
 31
0.0
  0
LINE
  5
A05
  8
0A
 10
474462.2646270025288686
 20
9853288.4750910755246878
 30
0.0
 11
474462.0061317053041421
 21
9853288.6278880480676889
 31
0.0
  0
LINE
  5
A06
  8
0A
 10
474462.0061317053041421
 20
9853288.6278880480676889
 30
0.0
 11
474461.7476364083122462
 21
9853288.7806850206106901
 31
0.0
  0
LINE
  5
A07
  8
0A
 10
474461.7476364083122462
 20
9853288.7806850206106901
 30
0.0
 11
474461.489141111203935
 21
9853288.9334819875657558
 31
0.0
  0
LINE
  5
A08
  8
0A
 10
474461.489141111203935
 20
9853288.9334819875657558
 30
0.0
 11
474461.2306458139210008
 21
9853289.0862789619714022
 31
0.0
  0
LINE
  5
A09
  8
0A
 10
474461.2306458139210008
 20
9853289.0862789619714022
 30
0.0
 11
474460.9721505168708973
 21
9853289.239075930789113
 31
0.0
  0
LINE
  5
A0A
  8
0A
 10
474460.9721505168708973
 20
9853289.239075930789113
 30
0.0
 11
474460.7136552195879631
 21
9853289.3918728996068239
 31
0.0
  0
LINE
  5
A0B
  8
0A
 10
474460.7136552195879631
 20
9853289.3918728996068239
 30
0.0
 11
474460.4551599225960672
 21
9853289.5446698702871799
 31
0.0
  0
LINE
  5
A0C
  8
0A
 10
474460.4551599225960672
 20
9853289.5446698702871799
 30
0.0
 11
474460.196664625313133
 21
9853289.6974668428301811
 31
0.0
  0
LINE
  5
A0D
  8
0A
 10
474460.196664625313133
 20
9853289.6974668428301811
 30
0.0
 11
474459.9381693283794448
 21
9853289.8502638135105371
 31
0.0
  0
LINE
  5
A0E
  8
0A
 10
474459.9381693283794448
 20
9853289.8502638135105371
 30
0.0
 11
474459.6796740312129259
 21
9853290.0030607860535383
 31
0.0
  0
LINE
  5
A0F
  8
0A
 10
474459.6796740312129259
 20
9853290.0030607860535383
 30
0.0
 11
474459.4211787338135764
 21
9853290.1558577567338943
 31
0.0
  0
LINE
  5
A10
  8
0A
 10
474459.4211787338135764
 20
9853290.1558577567338943
 30
0.0
 11
474459.1626834368798882
 21
9853290.3086547236889601
 31
0.0
  0
LINE
  5
A11
  8
0A
 10
474459.1626834368798882
 20
9853290.3086547236889601
 30
0.0
 11
474458.904188139596954
 21
9853290.4614517018198967
 31
0.0
  0
LINE
  5
A12
  8
0A
 10
474458.904188139596954
 20
9853290.4614517018198967
 30
0.0
 11
474458.6456928424886428
 21
9853290.6142486669123173
 31
0.0
  0
LINE
  5
A13
  8
0A
 10
474458.6456928424886428
 20
9853290.6142486669123173
 30
0.0
 11
474458.3871975453221239
 21
9853290.7670456357300282
 31
0.0
  0
LINE
  5
A14
  8
0A
 10
474458.3871975453221239
 20
9853290.7670456357300282
 30
0.0
 11
474458.1287022482138127
 21
9853290.9198426119983196
 31
0.0
  0
LINE
  5
A15
  8
0A
 10
474458.1287022482138127
 20
9853290.9198426119983196
 30
0.0
 11
474457.8702069512219168
 21
9853291.0726395808160305
 31
0.0
  0
LINE
  5
A16
  8
0A
 10
474457.8702069512219168
 20
9853291.0726395808160305
 30
0.0
 11
474457.611711653880775
 21
9853291.2254365477710962
 31
0.0
  0
LINE
  5
A17
  8
0A
 10
474457.611711653880775
 20
9853291.2254365477710962
 30
0.0
 11
474457.3532163568888791
 21
9853291.3782335203140974
 31
0.0
  0
LINE
  5
A18
  8
0A
 10
474457.3532163568888791
 20
9853291.3782335203140974
 30
0.0
 11
474457.0947210596059449
 21
9853291.5310304928570986
 31
0.0
  0
LINE
  5
A19
  8
0A
 10
474457.0947210596059449
 20
9853291.5310304928570986
 30
0.0
 11
474456.8362257624976337
 21
9853291.683827456086874
 31
0.0
  0
LINE
  5
A1A
  8
0A
 10
474456.8362257624976337
 20
9853291.683827456086874
 30
0.0
 11
474456.5777304656221531
 21
9853291.8366244323551655
 31
0.0
  0
LINE
  5
A1B
  8
0A
 10
474456.5777304656221531
 20
9853291.8366244323551655
 30
0.0
 11
474456.3192351682810113
 21
9853291.9894214067608118
 31
0.0
  0
LINE
  5
A1C
  8
0A
 10
474456.3192351682810113
 20
9853291.9894214067608118
 30
0.0
 11
474456.0607398711727001
 21
9853292.1422183755785227
 31
0.0
  0
LINE
  5
A1D
  8
0A
 10
474456.0607398711727001
 20
9853292.1422183755785227
 30
0.0
 11
474455.8022445738897659
 21
9853292.2950153443962336
 31
0.0
  0
LINE
  5
A1E
  8
0A
 10
474455.8022445738897659
 20
9853292.2950153443962336
 30
0.0
 11
474455.5437492767814547
 21
9853292.447812320664525
 31
0.0
  0
LINE
  5
A1F
  8
0A
 10
474455.5437492767814547
 20
9853292.447812320664525
 30
0.0
 11
474455.2852539796149358
 21
9853292.6006092876195908
 31
0.0
  0
LINE
  5
A20
  8
0A
 10
474455.2852539796149358
 20
9853292.6006092876195908
 30
0.0
 11
474455.0267586825066246
 21
9853292.7534062564373016
 31
0.0
  0
LINE
  5
A21
  8
0A
 10
474455.0267586825066246
 20
9853292.7534062564373016
 30
0.0
 11
474454.7682633855147287
 21
9853292.9062032327055931
 31
0.0
  0
LINE
  5
A22
  8
0A
 10
474454.7682633855147287
 20
9853292.9062032327055931
 30
0.0
 11
474454.5097680882900022
 21
9853293.059000201523304
 31
0.0
  0
LINE
  5
A23
  8
0A
 10
474454.5097680882900022
 20
9853293.059000201523304
 30
0.0
 11
474454.251272791181691
 21
9853293.2117971666157246
 31
0.0
  0
LINE
  5
A24
  8
0A
 10
474454.251272791181691
 20
9853293.2117971666157246
 30
0.0
 11
474453.9927774940151721
 21
9853293.3645941391587257
 31
0.0
  0
LINE
  5
A25
  8
0A
 10
474453.9927774940151721
 20
9853293.3645941391587257
 30
0.0
 11
474453.7342821970232762
 21
9853293.5173911117017269
 31
0.0
  0
LINE
  5
A26
  8
0A
 10
474453.7342821970232762
 20
9853293.5173911117017269
 30
0.0
 11
474453.4757868996239267
 21
9853293.6701880805194378
 31
0.0
  0
LINE
  5
A27
  8
0A
 10
474453.4757868996239267
 20
9853293.6701880805194378
 30
0.0
 11
474453.2172916025156155
 21
9853293.822985053062439
 31
0.0
  0
LINE
  5
A28
  8
0A
 10
474453.2172916025156155
 20
9853293.822985053062439
 30
0.0
 11
474452.9587963055819273
 21
9853293.975782023742795
 31
0.0
  0
LINE
  5
A29
  8
0A
 10
474452.9587963055819273
 20
9853293.975782023742795
 30
0.0
 11
474452.7003010081825778
 21
9853294.1285789925605059
 31
0.0
  0
LINE
  5
A2A
  8
0A
 10
474452.7003010081825778
 20
9853294.1285789925605059
 30
0.0
 11
474452.4418057113070972
 21
9853294.2813759669661522
 31
0.0
  0
LINE
  5
A2B
  8
0A
 10
474452.4418057113070972
 20
9853294.2813759669661522
 30
0.0
 11
474452.183310414024163
 21
9853294.4341729357838631
 31
0.0
  0
LINE
  5
A2C
  8
0A
 10
474452.183310414024163
 20
9853294.4341729357838631
 30
0.0
 11
474451.9248151169158518
 21
9853294.5869699046015739
 31
0.0
  0
LINE
  5
A2D
  8
0A
 10
474451.9248151169158518
 20
9853294.5869699046015739
 30
0.0
 11
474451.6663198199821636
 21
9853294.7397668771445751
 31
0.0
  0
LINE
  5
A2E
  8
0A
 10
474451.6663198199821636
 20
9853294.7397668771445751
 30
0.0
 11
474451.4078245225246064
 21
9853294.8925638496875763
 31
0.0
  0
LINE
  5
A2F
  8
0A
 10
474451.4078245225246064
 20
9853294.8925638496875763
 30
0.0
 11
474451.1493292255909182
 21
9853295.0453608129173517
 31
0.0
  0
LINE
  5
A30
  8
0A
 10
474451.1493292255909182
 20
9853295.0453608129173517
 30
0.0
 11
474450.890833928307984
 21
9853295.198157787322998
 31
0.0
  0
LINE
  5
A31
  8
0A
 10
474450.890833928307984
 20
9853295.198157787322998
 30
0.0
 11
474450.6323386313160881
 21
9853295.3509547635912895
 31
0.0
  0
LINE
  5
A32
  8
0A
 10
474450.6323386313160881
 20
9853295.3509547635912895
 30
0.0
 11
474450.3738433339749463
 21
9853295.5037517268210649
 31
0.0
  0
LINE
  5
A33
  8
0A
 10
474450.3738433339749463
 20
9853295.5037517268210649
 30
0.0
 11
474450.1153480369830504
 21
9853295.6565486993640661
 31
0.0
  0
LINE
  5
A34
  8
0A
 10
474450.1153480369830504
 20
9853295.6565486993640661
 30
0.0
 11
474449.8568527399911545
 21
9853295.8093456719070673
 31
0.0
  0
LINE
  5
A35
  8
0A
 10
474449.8568527399911545
 20
9853295.8093456719070673
 30
0.0
 11
474449.598357442591805
 21
9853295.9621426425874233
 31
0.0
  0
LINE
  5
A36
  8
0A
 10
474449.598357442591805
 20
9853295.9621426425874233
 30
0.0
 11
474449.3398621454834938
 21
9853296.1149396132677794
 31
0.0
  0
LINE
  5
A37
  8
0A
 10
474449.3398621454834938
 20
9853296.1149396132677794
 30
0.0
 11
474449.0813668484915979
 21
9853296.2677365802228451
 31
0.0
  0
LINE
  5
A38
  8
0A
 10
474449.0813668484915979
 20
9853296.2677365802228451
 30
0.0
 11
474448.8228715510922484
 21
9853296.4205335527658463
 31
0.0
  0
LINE
  5
A39
  8
0A
 10
474448.8228715510922484
 20
9853296.4205335527658463
 30
0.0
 11
474448.5643762542167678
 21
9853296.5733305234462023
 31
0.0
  0
LINE
  5
A3A
  8
0A
 10
474448.5643762542167678
 20
9853296.5733305234462023
 30
0.0
 11
474448.3058809569920413
 21
9853296.7261274959892035
 31
0.0
  0
LINE
  5
A3B
  8
0A
 10
474448.3058809569920413
 20
9853296.7261274959892035
 30
0.0
 11
474448.0473856600001454
 21
9853296.8789244648069143
 31
0.0
  0
LINE
  5
A3C
  8
0A
 10
474448.0473856600001454
 20
9853296.8789244648069143
 30
0.0
 11
474447.7888903626007959
 21
9853297.0317214354872704
 31
0.0
  0
LINE
  5
A3D
  8
0A
 10
474447.7888903626007959
 20
9853297.0317214354872704
 30
0.0
 11
474447.5303950657253154
 21
9853297.1845184043049812
 31
0.0
  0
LINE
  5
A3E
  8
0A
 10
474447.5303950657253154
 20
9853297.1845184043049812
 30
0.0
 11
474447.2718997683841735
 21
9853297.3373153787106276
 31
0.0
  0
LINE
  5
A3F
  8
0A
 10
474447.2718997683841735
 20
9853297.3373153787106276
 30
0.0
 11
474447.0134044712758623
 21
9853297.4901123475283384
 31
0.0
  0
LINE
  5
A40
  8
0A
 10
474447.0134044712758623
 20
9853297.4901123475283384
 30
0.0
 11
474446.7549091742839664
 21
9853297.6429093200713396
 31
0.0
  0
LINE
  5
A41
  8
0A
 10
474446.7549091742839664
 20
9853297.6429093200713396
 30
0.0
 11
474446.4964138771174476
 21
9853297.7957062870264053
 31
0.0
  0
LINE
  5
A42
  8
0A
 10
474446.4964138771174476
 20
9853297.7957062870264053
 30
0.0
 11
474446.2379185800091363
 21
9853297.9485032614320517
 31
0.0
  0
LINE
  5
A43
  8
0A
 10
474446.2379185800091363
 20
9853297.9485032614320517
 30
0.0
 11
474445.9794232827262022
 21
9853298.1013002302497625
 31
0.0
  0
LINE
  5
A44
  8
0A
 10
474445.9794232827262022
 20
9853298.1013002302497625
 30
0.0
 11
474445.7209279856760986
 21
9853298.2540972009301186
 31
0.0
  0
LINE
  5
A45
  8
0A
 10
474445.7209279856760986
 20
9853298.2540972009301186
 30
0.0
 11
474445.4624326886842027
 21
9853298.4068941716104746
 31
0.0
  0
LINE
  5
A46
  8
0A
 10
474445.4624326886842027
 20
9853298.4068941716104746
 30
0.0
 11
474445.2039373912848532
 21
9853298.5596911422908306
 31
0.0
  0
LINE
  5
A47
  8
0A
 10
474445.2039373912848532
 20
9853298.5596911422908306
 30
0.0
 11
474444.9454420942929573
 21
9853298.7124881166964769
 31
0.0
  0
LINE
  5
A48
  8
0A
 10
474444.9454420942929573
 20
9853298.7124881166964769
 30
0.0
 11
474444.6869467971846461
 21
9853298.8652850855141878
 31
0.0
  0
LINE
  5
A49
  8
0A
 10
474444.6869467971846461
 20
9853298.8652850855141878
 30
0.0
 11
474444.4284515000181273
 21
9853299.0180820543318987
 31
0.0
  0
LINE
  5
A4A
  8
0A
 10
474444.4284515000181273
 20
9853299.0180820543318987
 30
0.0
 11
474444.1699562026769854
 21
9853299.1708790268748999
 31
0.0
  0
LINE
  5
A4B
  8
0A
 10
474444.1699562026769854
 20
9853299.1708790268748999
 30
0.0
 11
474443.9114609056850895
 21
9853299.3236759956926107
 31
0.0
  0
LINE
  5
A4C
  8
0A
 10
474443.9114609056850895
 20
9853299.3236759956926107
 30
0.0
 11
474443.6529656086931936
 21
9853299.4764729682356119
 31
0.0
  0
LINE
  5
A4D
  8
0A
 10
474443.6529656086931936
 20
9853299.4764729682356119
 30
0.0
 11
474443.3944703112938441
 21
9853299.6292699370533228
 31
0.0
  0
LINE
  5
A4E
  8
0A
 10
474443.3944703112938441
 20
9853299.6292699370533228
 30
0.0
 11
474443.1359750143019482
 21
9853299.782066909596324
 31
0.0
  0
LINE
  5
A4F
  8
0A
 10
474443.1359750143019482
 20
9853299.782066909596324
 30
0.0
 11
474442.8774797170190141
 21
9853299.9348638821393251
 31
0.0
  0
LINE
  5
A50
  8
0A
 10
474442.8774797170190141
 20
9853299.9348638821393251
 30
0.0
 11
474442.6189844199107029
 21
9853300.0876608472317457
 31
0.0
  0
LINE
  5
A51
  8
0A
 10
474442.6189844199107029
 20
9853300.0876608472317457
 30
0.0
 11
474442.3604891228023916
 21
9853300.2404578197747469
 31
0.0
  0
LINE
  5
A52
  8
0A
 10
474442.3604891228023916
 20
9853300.2404578197747469
 30
0.0
 11
474442.1019938256940804
 21
9853300.3932547923177481
 31
0.0
  0
LINE
  5
A53
  8
0A
 10
474442.1019938256940804
 20
9853300.3932547923177481
 30
0.0
 11
474441.8434985285857692
 21
9853300.5460517592728138
 31
0.0
  0
LINE
  5
A54
  8
0A
 10
474441.8434985285857692
 20
9853300.5460517592728138
 30
0.0
 11
474179.1207679465878755
 21
9853463.625707833096385
 31
0.0
  0
LINE
  5
A55
  8
0A
 10
474650.304691880592145
 20
9853147.3841848820447922
 30
0.0
 11
474650.0337325491709635
 21
9853147.5219467505812645
 31
0.0
  0
LINE
  5
A56
  8
0A
 10
474650.0337325491709635
 20
9853147.5219467505812645
 30
0.0
 11
474649.7628111311933026
 21
9853147.6597682926803827
 31
0.0
  0
LINE
  5
A57
  8
0A
 10
474649.7628111311933026
 20
9853147.6597682926803827
 30
0.0
 11
474649.4919275714782998
 21
9853147.7976493500173092
 31
0.0
  0
LINE
  5
A58
  8
0A
 10
474649.4919275714782998
 20
9853147.7976493500173092
 30
0.0
 11
474649.2210818154853769
 21
9853147.9355897922068834
 31
0.0
  0
LINE
  5
A59
  8
0A
 10
474649.2210818154853769
 20
9853147.9355897922068834
 30
0.0
 11
474648.9502738079754636
 21
9853148.0735894553363323
 31
0.0
  0
LINE
  5
A5A
  8
0A
 10
474648.9502738079754636
 20
9853148.0735894553363323
 30
0.0
 11
474648.679503494000528
 21
9853148.2116482015699148
 31
0.0
  0
LINE
  5
A5B
  8
0A
 10
474648.679503494000528
 20
9853148.2116482015699148
 30
0.0
 11
474648.408770818496123
 21
9853148.3497658856213093
 31
0.0
  0
LINE
  5
A5C
  8
0A
 10
474648.408770818496123
 20
9853148.3497658856213093
 30
0.0
 11
474648.1380757265142165
 21
9853148.4879423454403877
 31
0.0
  0
LINE
  5
A5D
  8
0A
 10
474648.1380757265142165
 20
9853148.4879423454403877
 30
0.0
 11
474647.8674181618844159
 21
9853148.6261774394661188
 31
0.0
  0
LINE
  5
A5E
  8
0A
 10
474647.8674181618844159
 20
9853148.6261774394661188
 30
0.0
 11
474647.5967980701825581
 21
9853148.7644710261374712
 31
0.0
  0
LINE
  5
A5F
  8
0A
 10
474647.5967980701825581
 20
9853148.7644710261374712
 30
0.0
 11
474647.3262153954128735
 21
9853148.9028229527175426
 31
0.0
  0
LINE
  5
A60
  8
0A
 10
474647.3262153954128735
 20
9853148.9028229527175426
 30
0.0
 11
474647.055670082278084
 21
9853149.0412330683320761
 31
0.0
  0
LINE
  5
A61
  8
0A
 10
474647.055670082278084
 20
9853149.0412330683320761
 30
0.0
 11
474646.7851620744913816
 21
9853149.1797012332826853
 31
0.0
  0
LINE
  5
A62
  8
0A
 10
474646.7851620744913816
 20
9853149.1797012332826853
 30
0.0
 11
474646.5146913168719038
 21
9853149.3182272929698229
 31
0.0
  0
LINE
  5
A63
  8
0A
 10
474646.5146913168719038
 20
9853149.3182272929698229
 30
0.0
 11
474646.2442577533074655
 21
9853149.4568111002445221
 31
0.0
  0
LINE
  5
A64
  8
0A
 10
474646.2442577533074655
 20
9853149.4568111002445221
 30
0.0
 11
474645.9738613279769197
 21
9853149.5954525079578161
 31
0.0
  0
LINE
  5
A65
  8
0A
 10
474645.9738613279769197
 20
9853149.5954525079578161
 30
0.0
 11
474645.7035019845934585
 21
9853149.7341513708233833
 31
0.0
  0
LINE
  5
A66
  8
0A
 10
474645.7035019845934585
 20
9853149.7341513708233833
 30
0.0
 11
474645.4331796671031043
 21
9853149.8729075361043215
 31
0.0
  0
LINE
  5
A67
  8
0A
 10
474645.4331796671031043
 20
9853149.8729075361043215
 30
0.0
 11
474645.1628943196265027
 21
9853150.0117208696901798
 31
0.0
  0
LINE
  5
A68
  8
0A
 10
474645.1628943196265027
 20
9853150.0117208696901798
 30
0.0
 11
474644.8926458850037307
 21
9853150.1505912076681852
 31
0.0
  0
LINE
  5
A69
  8
0A
 10
474644.8926458850037307
 20
9853150.1505912076681852
 30
0.0
 11
474644.622434307995718
 21
9853150.2895184122025967
 31
0.0
  0
LINE
  5
A6A
  8
0A
 10
474644.622434307995718
 20
9853150.2895184122025967
 30
0.0
 11
474644.352259531209711
 21
9853150.4285023380070925
 31
0.0
  0
LINE
  5
A6B
  8
0A
 10
474644.352259531209711
 20
9853150.4285023380070925
 30
0.0
 11
474644.0821214984171093
 21
9853150.5675428323447704
 31
0.0
  0
LINE
  5
A6C
  8
0A
 10
474644.0821214984171093
 20
9853150.5675428323447704
 30
0.0
 11
474643.812020152923651
 21
9853150.7066397443413734
 31
0.0
  0
LINE
  5
A6D
  8
0A
 10
474643.812020152923651
 20
9853150.7066397443413734
 30
0.0
 11
474643.541955437627621
 21
9853150.8457929361611605
 31
0.0
  0
LINE
  5
A6E
  8
0A
 10
474643.541955437627621
 20
9853150.8457929361611605
 30
0.0
 11
474643.2719272960093804
 21
9853150.9850022569298744
 31
0.0
  0
LINE
  5
A6F
  8
0A
 10
474643.2719272960093804
 20
9853150.9850022569298744
 30
0.0
 11
474643.0019356713746674
 21
9853151.1242675594985485
 31
0.0
  0
LINE
  5
A70
  8
0A
 10
474643.0019356713746674
 20
9853151.1242675594985485
 30
0.0
 11
474642.7319805062725209
 21
9853151.2635886967182159
 31
0.0
  0
LINE
  5
A71
  8
0A
 10
474642.7319805062725209
 20
9853151.2635886967182159
 30
0.0
 11
474642.4620617436012253
 21
9853151.4029655195772648
 31
0.0
  0
LINE
  5
A72
  8
0A
 10
474642.4620617436012253
 20
9853151.4029655195772648
 30
0.0
 11
474642.1921793263754807
 21
9853151.5423978846520185
 31
0.0
  0
LINE
  5
A73
  8
0A
 10
474642.1921793263754807
 20
9853151.5423978846520185
 30
0.0
 11
474641.9223331970861182
 21
9853151.6818856429308653
 31
0.0
  0
LINE
  5
A74
  8
0A
 10
474641.9223331970861182
 20
9853151.6818856429308653
 30
0.0
 11
474641.6525232985150069
 21
9853151.8214286528527737
 31
0.0
  0
LINE
  5
A75
  8
0A
 10
474641.6525232985150069
 20
9853151.8214286528527737
 30
0.0
 11
474641.3827495730947703
 21
9853151.9610267598181963
 31
0.0
  0
LINE
  5
A76
  8
0A
 10
474641.3827495730947703
 20
9853151.9610267598181963
 30
0.0
 11
474641.113011963723693
 21
9853152.100679824128747
 31
0.0
  0
LINE
  5
A77
  8
0A
 10
474641.113011963723693
 20
9853152.100679824128747
 30
0.0
 11
474640.8433104120776989
 21
9853152.2403876986354589
 31
0.0
  0
LINE
  5
A78
  8
0A
 10
474640.8433104120776989
 20
9853152.2403876986354589
 30
0.0
 11
474640.5736448607058264
 21
9853152.3801502231508493
 31
0.0
  0
LINE
  5
A79
  8
0A
 10
474640.5736448607058264
 20
9853152.3801502231508493
 30
0.0
 11
474640.3040152518078685
 21
9853152.5199672766029835
 31
0.0
  0
LINE
  5
A7A
  8
0A
 10
474640.3040152518078685
 20
9853152.5199672766029835
 30
0.0
 11
474640.0344215275254101
 21
9853152.6598386839032173
 31
0.0
  0
LINE
  5
A7B
  8
0A
 10
474640.0344215275254101
 20
9853152.6598386839032173
 30
0.0
 11
474639.7648636298836209
 21
9853152.7997643183916807
 31
0.0
  0
LINE
  5
A7C
  8
0A
 10
474639.7648636298836209
 20
9853152.7997643183916807
 30
0.0
 11
474639.4953415006166324
 21
9853152.9397440329194069
 31
0.0
  0
LINE
  5
A7D
  8
0A
 10
474639.4953415006166324
 20
9853152.9397440329194069
 30
0.0
 11
474639.2258550819242373
 21
9853153.0797776766121387
 31
0.0
  0
LINE
  5
A7E
  8
0A
 10
474639.2258550819242373
 20
9853153.0797776766121387
 30
0.0
 11
474638.9564043154823594
 21
9853153.2198651004582644
 31
0.0
  0
LINE
  5
A7F
  8
0A
 10
474638.9564043154823594
 20
9853153.2198651004582644
 30
0.0
 11
474638.6869891426176764
 21
9853153.3600061628967524
 31
0.0
  0
LINE
  5
A80
  8
0A
 10
474638.6869891426176764
 20
9853153.3600061628967524
 30
0.0
 11
474638.4176095052971505
 21
9853153.5002007130533457
 31
0.0
  0
LINE
  5
A81
  8
0A
 10
474638.4176095052971505
 20
9853153.5002007130533457
 30
0.0
 11
474638.1482653450220823
 21
9853153.640448609367013
 31
0.0
  0
LINE
  5
A82
  8
0A
 10
474638.1482653450220823
 20
9853153.640448609367013
 30
0.0
 11
474637.8789566031773575
 21
9853153.7807497028261423
 31
0.0
  0
LINE
  5
A83
  8
0A
 10
474637.8789566031773575
 20
9853153.7807497028261423
 30
0.0
 11
474637.6096832207986154
 21
9853153.9211038555949926
 31
0.0
  0
LINE
  5
A84
  8
0A
 10
474637.6096832207986154
 20
9853153.9211038555949926
 30
0.0
 11
474637.3404451396199875
 21
9853154.0615109037607908
 31
0.0
  0
LINE
  5
A85
  8
0A
 10
474637.3404451396199875
 20
9853154.0615109037607908
 30
0.0
 11
474637.0712423003278673
 21
9853154.2019707225263119
 31
0.0
  0
LINE
  5
A86
  8
0A
 10
474637.0712423003278673
 20
9853154.2019707225263119
 30
0.0
 11
474636.8020746444235556
 21
9853154.342483151704073
 31
0.0
  0
LINE
  5
A87
  8
0A
 10
474636.8020746444235556
 20
9853154.342483151704073
 30
0.0
 11
474636.5329421130008996
 21
9853154.4830480515956879
 31
0.0
  0
LINE
  5
A88
  8
0A
 10
474636.5329421130008996
 20
9853154.4830480515956879
 30
0.0
 11
474636.2638446465134621
 21
9853154.623665276914835
 31
0.0
  0
LINE
  5
A89
  8
0A
 10
474636.2638446465134621
 20
9853154.623665276914835
 30
0.0
 11
474635.9947821859968826
 21
9853154.7643346767872572
 31
0.0
  0
LINE
  5
A8A
  8
0A
 10
474635.9947821859968826
 20
9853154.7643346767872572
 30
0.0
 11
474635.7257546727196313
 21
9853154.905056107789278
 31
0.0
  0
LINE
  5
A8B
  8
0A
 10
474635.7257546727196313
 20
9853154.905056107789278
 30
0.0
 11
474635.4567620467860252
 21
9853155.0458294302225113
 31
0.0
  0
LINE
  5
A8C
  8
0A
 10
474635.4567620467860252
 20
9853155.0458294302225113
 30
0.0
 11
474635.1878042489988729
 21
9853155.1866544932126999
 31
0.0
  0
LINE
  5
A8D
  8
0A
 10
474635.1878042489988729
 20
9853155.1866544932126999
 30
0.0
 11
474634.9188812195206992
 21
9853155.3275311477482319
 31
0.0
  0
LINE
  5
A8E
  8
0A
 10
474634.9188812195206992
 20
9853155.3275311477482319
 30
0.0
 11
474634.6499928995035589
 21
9853155.4684592541307211
 31
0.0
  0
LINE
  5
A8F
  8
0A
 10
474634.6499928995035589
 20
9853155.4684592541307211
 30
0.0
 11
474634.3811392288189381
 21
9853155.6094386670738459
 31
0.0
  0
LINE
  5
A90
  8
0A
 10
474634.3811392288189381
 20
9853155.6094386670738459
 30
0.0
 11
474634.1123201475129463
 21
9853155.7504692394286394
 31
0.0
  0
LINE
  5
A91
  8
0A
 10
474634.1123201475129463
 20
9853155.7504692394286394
 30
0.0
 11
474633.8435355966794305
 21
9853155.8915508259087801
 31
0.0
  0
LINE
  5
A92
  8
0A
 10
474633.8435355966794305
 20
9853155.8915508259087801
 30
0.0
 11
474633.574785515316762
 21
9853156.0326832793653011
 31
0.0
  0
LINE
  5
A93
  8
0A
 10
474633.574785515316762
 20
9853156.0326832793653011
 30
0.0
 11
474633.3060698445769958
 21
9853156.1738664600998163
 31
0.0
  0
LINE
  5
A94
  8
0A
 10
474633.3060698445769958
 20
9853156.1738664600998163
 30
0.0
 11
474633.0373885235749185
 21
9853156.3151002153754234
 31
0.0
  0
LINE
  5
A95
  8
0A
 10
474633.0373885235749185
 20
9853156.3151002153754234
 30
0.0
 11
474632.768741492414847
 21
9853156.4563844129443169
 31
0.0
  0
LINE
  5
A96
  8
0A
 10
474632.768741492414847
 20
9853156.4563844129443169
 30
0.0
 11
474632.5001286910846829
 21
9853156.5977188926190138
 31
0.0
  0
LINE
  5
A97
  8
0A
 10
474632.5001286910846829
 20
9853156.5977188926190138
 30
0.0
 11
474632.2315500593977049
 21
9853156.7391035128384829
 31
0.0
  0
LINE
  5
A98
  8
0A
 10
474632.2315500593977049
 20
9853156.7391035128384829
 30
0.0
 11
474631.9630055364104919
 21
9853156.8805381394922733
 31
0.0
  0
LINE
  5
A99
  8
0A
 10
474631.9630055364104919
 20
9853156.8805381394922733
 30
0.0
 11
474631.6944950625766069
 21
9853157.0220226161181927
 31
0.0
  0
LINE
  5
A9A
  8
0A
 10
474631.6944950625766069
 20
9853157.0220226161181927
 30
0.0
 11
474631.4260185767780058
 21
9853157.1635567992925644
 31
0.0
  0
LINE
  5
A9B
  8
0A
 10
474631.4260185767780058
 20
9853157.1635567992925644
 30
0.0
 11
474631.1575760183040984
 21
9853157.3051405549049377
 31
0.0
  0
LINE
  5
A9C
  8
0A
 10
474631.1575760183040984
 20
9853157.3051405549049377
 30
0.0
 11
474630.8891673270845786
 21
9853157.4467737209051847
 31
0.0
  0
LINE
  5
A9D
  8
0A
 10
474630.8891673270845786
 20
9853157.4467737209051847
 30
0.0
 11
474630.6207924417103641
 21
9853157.5884561687707901
 31
0.0
  0
LINE
  5
A9E
  8
0A
 10
474630.6207924417103641
 20
9853157.5884561687707901
 30
0.0
 11
474630.3524513018783182
 21
9853157.7301877457648516
 31
0.0
  0
LINE
  5
A9F
  8
0A
 10
474630.3524513018783182
 20
9853157.7301877457648516
 30
0.0
 11
474630.084143846121151
 21
9853157.8719683066010475
 31
0.0
  0
LINE
  5
AA0
  8
0A
 10
474630.084143846121151
 20
9853157.8719683066010475
 30
0.0
 11
474629.8158700143103488
 21
9853158.0137977041304111
 31
0.0
  0
LINE
  5
AA1
  8
0A
 10
474629.8158700143103488
 20
9853158.0137977041304111
 30
0.0
 11
474629.5476297445129603
 21
9853158.1556758042424917
 31
0.0
  0
LINE
  5
AA2
  8
0A
 10
474629.5476297445129603
 20
9853158.1556758042424917
 30
0.0
 11
474629.2794229764840566
 21
9853158.2976024560630322
 31
0.0
  0
LINE
  5
AA3
  8
0A
 10
474629.2794229764840566
 20
9853158.2976024560630322
 30
0.0
 11
474629.0112496481160633
 21
9853158.4395775161683559
 31
0.0
  0
LINE
  5
AA4
  8
0A
 10
474629.0112496481160633
 20
9853158.4395775161683559
 30
0.0
 11
474628.7431096988148056
 21
9853158.581600833684206
 31
0.0
  0
LINE
  5
AA5
  8
0A
 10
474628.7431096988148056
 20
9853158.581600833684206
 30
0.0
 11
474628.4750030667055398
 21
9853158.7236722782254219
 31
0.0
  0
LINE
  5
AA6
  8
0A
 10
474628.4750030667055398
 20
9853158.7236722782254219
 30
0.0
 11
474628.2069296907284297
 21
9853158.8657916951924562
 31
0.0
  0
LINE
  5
AA7
  8
0A
 10
474628.2069296907284297
 20
9853158.8657916951924562
 30
0.0
 11
474627.9388895094161853
 21
9853159.0079589430242777
 31
0.0
  0
LINE
  5
AA8
  8
0A
 10
474627.9388895094161853
 20
9853159.0079589430242777
 30
0.0
 11
474627.6708824607776478
 21
9853159.1501738801598549
 31
0.0
  0
LINE
  5
AA9
  8
0A
 10
474627.6708824607776478
 20
9853159.1501738801598549
 30
0.0
 11
474627.4029084836947732
 21
9853159.2924363519996405
 31
0.0
  0
LINE
  5
AAA
  8
0A
 10
474627.4029084836947732
 20
9853159.2924363519996405
 30
0.0
 11
474627.1349675160017796
 21
9853159.434746228158474
 31
0.0
  0
LINE
  5
AAB
  8
0A
 10
474627.1349675160017796
 20
9853159.434746228158474
 30
0.0
 11
474626.8670594961731695
 21
9853159.5771033577620983
 31
0.0
  0
LINE
  5
AAC
  8
0A
 10
474626.8670594961731695
 20
9853159.5771033577620983
 30
0.0
 11
474626.5991843622759916
 21
9853159.719507597386837
 31
0.0
  0
LINE
  5
AAD
  8
0A
 10
474626.5991843622759916
 20
9853159.719507597386837
 30
0.0
 11
474626.3313420523772947
 21
9853159.8619588036090136
 31
0.0
  0
LINE
  5
AAE
  8
0A
 10
474626.3313420523772947
 20
9853159.8619588036090136
 30
0.0
 11
474626.0635325040202588
 21
9853160.0044568367302418
 31
0.0
  0
LINE
  5
AAF
  8
0A
 10
474626.0635325040202588
 20
9853160.0044568367302418
 30
0.0
 11
474625.7957556557958014
 21
9853160.147001538425684
 31
0.0
  0
LINE
  5
AB0
  8
0A
 10
474625.7957556557958014
 20
9853160.147001538425684
 30
0.0
 11
474625.5280114450142719
 21
9853160.2895927838981152
 31
0.0
  0
LINE
  5
AB1
  8
0A
 10
474625.5280114450142719
 20
9853160.2895927838981152
 30
0.0
 11
474625.2602998096263036
 21
9853160.4322304166853428
 31
0.0
  0
LINE
  5
AB2
  8
0A
 10
474625.2602998096263036
 20
9853160.4322304166853428
 30
0.0
 11
474624.9926206875243224
 21
9853160.5749143045395613
 31
0.0
  0
LINE
  5
AB3
  8
0A
 10
474624.9926206875243224
 20
9853160.5749143045395613
 30
0.0
 11
474624.7249740160186775
 21
9853160.7176442872732878
 31
0.0
  0
LINE
  5
AB4
  8
0A
 10
474624.7249740160186775
 20
9853160.7176442872732878
 30
0.0
 11
474624.4573597327107564
 21
9853160.8604202382266521
 31
0.0
  0
LINE
  5
AB5
  8
0A
 10
474624.4573597327107564
 20
9853160.8604202382266521
 30
0.0
 11
474624.1897777752019465
 21
9853161.0032420046627522
 31
0.0
  0
LINE
  5
AB6
  8
0A
 10
474624.1897777752019465
 20
9853161.0032420046627522
 30
0.0
 11
474623.9222280806861818
 21
9853161.146109439432621
 31
0.0
  0
LINE
  5
AB7
  8
0A
 10
474623.9222280806861818
 20
9853161.146109439432621
 30
0.0
 11
474623.6547105865902267
 21
9853161.2890224028378725
 31
0.0
  0
LINE
  5
AB8
  8
0A
 10
474623.6547105865902267
 20
9853161.2890224028378725
 30
0.0
 11
474623.3872252302244306
 21
9853161.4319807589054108
 31
0.0
  0
LINE
  5
AB9
  8
0A
 10
474623.3872252302244306
 20
9853161.4319807589054108
 30
0.0
 11
474623.1197719487245195
 21
9853161.5749843530356884
 31
0.0
  0
LINE
  5
ABA
  8
0A
 10
474623.1197719487245195
 20
9853161.5749843530356884
 30
0.0
 11
474622.8523506792262197
 21
9853161.7180330473929644
 31
0.0
  0
LINE
  5
ABB
  8
0A
 10
474622.8523506792262197
 20
9853161.7180330473929644
 30
0.0
 11
474622.5849613586906344
 21
9853161.8611267060041428
 31
0.0
  0
LINE
  5
ABC
  8
0A
 10
474622.5849613586906344
 20
9853161.8611267060041428
 30
0.0
 11
474622.3176039240788668
 21
9853162.0042651705443859
 31
0.0
  0
LINE
  5
ABD
  8
0A
 10
474622.3176039240788668
 20
9853162.0042651705443859
 30
0.0
 11
474622.0502783122938126
 21
9853162.1474483106285334
 31
0.0
  0
LINE
  5
ABE
  8
0A
 10
474622.0502783122938126
 20
9853162.1474483106285334
 30
0.0
 11
474621.782984460471198
 21
9853162.2906759716570377
 31
0.0
  0
LINE
  5
ABF
  8
0A
 10
474621.782984460471198
 20
9853162.2906759716570377
 30
0.0
 11
474621.5157223048736341
 21
9853162.4339480176568031
 31
0.0
  0
LINE
  5
AC0
  8
0A
 10
474621.5157223048736341
 20
9853162.4339480176568031
 30
0.0
 11
474621.2484917828114703
 21
9853162.5772643126547337
 31
0.0
  0
LINE
  5
AC1
  8
0A
 10
474621.2484917828114703
 20
9853162.5772643126547337
 30
0.0
 11
474620.9812928303144872
 21
9853162.7206246964633465
 31
0.0
  0
LINE
  5
AC2
  8
0A
 10
474620.9812928303144872
 20
9853162.7206246964633465
 30
0.0
 11
474620.7141253842855804
 21
9853162.8640290405601263
 31
0.0
  0
LINE
  5
AC3
  8
0A
 10
474620.7141253842855804
 20
9853162.8640290405601263
 30
0.0
 11
474620.4469893809873611
 21
9853163.0074771996587515
 31
0.0
  0
LINE
  5
AC4
  8
0A
 10
474620.4469893809873611
 20
9853163.0074771996587515
 30
0.0
 11
474620.1798847570898943
 21
9853163.1509690266102552
 31
0.0
  0
LINE
  5
AC5
  8
0A
 10
474620.1798847570898943
 20
9853163.1509690266102552
 30
0.0
 11
474619.9128114485065453
 21
9853163.2945043761283159
 31
0.0
  0
LINE
  5
AC6
  8
0A
 10
474619.9128114485065453
 20
9853163.2945043761283159
 30
0.0
 11
474619.6457693920237944
 21
9853163.4380831066519022
 31
0.0
  0
LINE
  5
AC7
  8
0A
 10
474619.6457693920237944
 20
9853163.4380831066519022
 30
0.0
 11
474619.3787585236132145
 21
9853163.5817050877958536
 31
0.0
  0
LINE
  5
AC8
  8
0A
 10
474619.3787585236132145
 20
9853163.5817050877958536
 30
0.0
 11
474619.1117787795956247
 21
9853163.7253701630979776
 31
0.0
  0
LINE
  5
AC9
  8
0A
 10
474619.1117787795956247
 20
9853163.7253701630979776
 30
0.0
 11
474618.8448300958261825
 21
9853163.8690781872719526
 31
0.0
  0
LINE
  5
ACA
  8
0A
 10
474618.8448300958261825
 20
9853163.8690781872719526
 30
0.0
 11
474618.5779124083928764
 21
9853164.0128290336579084
 31
0.0
  0
LINE
  5
ACB
  8
0A
 10
474618.5779124083928764
 20
9853164.0128290336579084
 30
0.0
 11
474618.3110256533254869
 21
9853164.1566225457936525
 31
0.0
  0
LINE
  5
ACC
  8
0A
 10
474618.3110256533254869
 20
9853164.1566225457936525
 30
0.0
 11
474618.0441697660717182
 21
9853164.3004585932940245
 31
0.0
  0
LINE
  5
ACD
  8
0A
 10
474618.0441697660717182
 20
9853164.3004585932940245
 30
0.0
 11
474617.7773446831852198
 21
9853164.4443370196968317
 31
0.0
  0
LINE
  5
ACE
  8
0A
 10
474617.7773446831852198
 20
9853164.4443370196968317
 30
0.0
 11
474617.5105503398808651
 21
9853164.5882576946169138
 31
0.0
  0
LINE
  5
ACF
  8
0A
 10
474617.5105503398808651
 20
9853164.5882576946169138
 30
0.0
 11
474617.2437866720720194
 21
9853164.7322204653173685
 31
0.0
  0
LINE
  5
AD0
  8
0A
 10
474617.2437866720720194
 20
9853164.7322204653173685
 30
0.0
 11
474616.9770536153810099
 21
9853164.8762251976877451
 31
0.0
  0
LINE
  5
AD1
  8
0A
 10
474616.9770536153810099
 20
9853164.8762251976877451
 30
0.0
 11
474616.7103511047898792
 21
9853165.0202717483043671
 31
0.0
  0
LINE
  5
AD2
  8
0A
 10
474616.7103511047898792
 20
9853165.0202717483043671
 30
0.0
 11
474616.4436790767940693
 21
9853165.1643599718809128
 31
0.0
  0
LINE
  5
AD3
  8
0A
 10
474616.4436790767940693
 20
9853165.1643599718809128
 30
0.0
 11
474616.1770374659099616
 21
9853165.308489728718996
 31
0.0
  0
LINE
  5
AD4
  8
0A
 10
474616.1770374659099616
 20
9853165.308489728718996
 30
0.0
 11
474615.9104262082255445
 21
9853165.4526608716696501
 31
0.0
  0
LINE
  5
AD5
  8
0A
 10
474615.9104262082255445
 20
9853165.4526608716696501
 30
0.0
 11
474615.6438452381989919
 21
9853165.596873264759779
 31
0.0
  0
LINE
  5
AD6
  8
0A
 10
474615.6438452381989919
 20
9853165.596873264759779
 30
0.0
 11
474615.3772944920929149
 21
9853165.7411267645657063
 31
0.0
  0
LINE
  5
AD7
  8
0A
 10
474615.3772944920929149
 20
9853165.7411267645657063
 30
0.0
 11
474615.1107739040162414
 21
9853165.8854212239384651
 31
0.0
  0
LINE
  5
AD8
  8
0A
 10
474615.1107739040162414
 20
9853165.8854212239384651
 30
0.0
 11
474614.8442834094748832
 21
9853166.0297565124928951
 31
0.0
  0
LINE
  5
AD9
  8
0A
 10
474614.8442834094748832
 20
9853166.0297565124928951
 30
0.0
 11
474614.5778229440911673
 21
9853166.174132477492094
 31
0.0
  0
LINE
  5
ADA
  8
0A
 10
474614.5778229440911673
 20
9853166.174132477492094
 30
0.0
 11
474614.3113924419158138
 21
9853166.3185489773750305
 31
0.0
  0
LINE
  5
ADB
  8
0A
 10
474614.3113924419158138
 20
9853166.3185489773750305
 30
0.0
 11
474614.0449918382801116
 21
9853166.4630058817565441
 31
0.0
  0
LINE
  5
ADC
  8
0A
 10
474614.0449918382801116
 20
9853166.4630058817565441
 30
0.0
 11
474613.7786210681078956
 21
9853166.6075030323117971
 31
0.0
  0
LINE
  5
ADD
  8
0A
 10
474613.7786210681078956
 20
9853166.6075030323117971
 30
0.0
 11
474613.512280065973755
 21
9853166.7520403042435646
 31
0.0
  0
LINE
  5
ADE
  8
0A
 10
474613.512280065973755
 20
9853166.7520403042435646
 30
0.0
 11
474613.2459687666851096
 21
9853166.8966175355017185
 31
0.0
  0
LINE
  5
ADF
  8
0A
 10
474613.2459687666851096
 20
9853166.8966175355017185
 30
0.0
 11
474612.9796871049911715
 21
9853167.0412346068769693
 31
0.0
  0
LINE
  5
AE0
  8
0A
 10
474612.9796871049911715
 20
9853167.0412346068769693
 30
0.0
 11
474612.7134350155829452
 21
9853167.1858913637697697
 31
0.0
  0
LINE
  5
AE1
  8
0A
 10
474612.7134350155829452
 20
9853167.1858913637697697
 30
0.0
 11
474612.4472124328021891
 21
9853167.3305876664817333
 31
0.0
  0
LINE
  5
AE2
  8
0A
 10
474612.4472124328021891
 20
9853167.3305876664817333
 30
0.0
 11
474612.1810192908742465
 21
9853167.475323373451829
 31
0.0
  0
LINE
  5
AE3
  8
0A
 10
474612.1810192908742465
 20
9853167.475323373451829
 30
0.0
 11
474611.9148555243154988
 21
9853167.6200983449816704
 31
0.0
  0
LINE
  5
AE4
  8
0A
 10
474611.9148555243154988
 20
9853167.6200983449816704
 30
0.0
 11
474611.6487210679915734
 21
9853167.7649124320596457
 31
0.0
  0
LINE
  5
AE5
  8
0A
 10
474611.6487210679915734
 20
9853167.7649124320596457
 30
0.0
 11
474611.3826158557785675
 21
9853167.9097655061632395
 31
0.0
  0
LINE
  5
AE6
  8
0A
 10
474611.3826158557785675
 20
9853167.9097655061632395
 30
0.0
 11
474611.1165398217272013
 21
9853168.0546574201434851
 31
0.0
  0
LINE
  5
AE7
  8
0A
 10
474611.1165398217272013
 20
9853168.0546574201434851
 30
0.0
 11
474610.8504929002956487
 21
9853168.1995880324393511
 31
0.0
  0
LINE
  5
AE8
  8
0A
 10
474610.8504929002956487
 20
9853168.1995880324393511
 30
0.0
 11
474610.5844750258838758
 21
9853168.3445571977645159
 31
0.0
  0
LINE
  5
AE9
  8
0A
 10
474610.5844750258838758
 20
9853168.3445571977645159
 30
0.0
 11
474610.3184861317276955
 21
9853168.4895647764205933
 31
0.0
  0
LINE
  5
AEA
  8
0A
 10
474610.3184861317276955
 20
9853168.4895647764205933
 30
0.0
 11
474610.0525261524016969
 21
9853168.6346106342971325
 31
0.0
  0
LINE
  5
AEB
  8
0A
 10
474610.0525261524016969
 20
9853168.6346106342971325
 30
0.0
 11
474609.7865950217237696
 21
9853168.7796946242451668
 31
0.0
  0
LINE
  5
AEC
  8
0A
 10
474609.7865950217237696
 20
9853168.7796946242451668
 30
0.0
 11
474609.5206926732789725
 21
9853168.9248166028410196
 31
0.0
  0
LINE
  5
AED
  8
0A
 10
474609.5206926732789725
 20
9853168.9248166028410196
 30
0.0
 11
474609.2548190412926488
 21
9853169.0699764359742403
 31
0.0
  0
LINE
  5
AEE
  8
0A
 10
474609.2548190412926488
 20
9853169.0699764359742403
 30
0.0
 11
474608.9889740598155186
 21
9853169.2151739802211523
 31
0.0
  0
LINE
  5
AEF
  8
0A
 10
474608.9889740598155186
 20
9853169.2151739802211523
 30
0.0
 11
474608.7231576613849029
 21
9853169.3604090865701437
 31
0.0
  0
LINE
  5
AF0
  8
0A
 10
474608.7231576613849029
 20
9853169.3604090865701437
 30
0.0
 11
474608.4573697805171832
 21
9853169.5056816320866346
 31
0.0
  0
LINE
  5
AF1
  8
0A
 10
474608.4573697805171832
 20
9853169.5056816320866346
 30
0.0
 11
474608.1916103507974185
 21
9853169.6509914565831423
 31
0.0
  0
LINE
  5
AF2
  8
0A
 10
474608.1916103507974185
 20
9853169.6509914565831423
 30
0.0
 11
474607.9258793049957603
 21
9853169.7963384333997965
 31
0.0
  0
LINE
  5
AF3
  8
0A
 10
474607.9258793049957603
 20
9853169.7963384333997965
 30
0.0
 11
474607.6601765778032131
 21
9853169.9417224060744047
 31
0.0
  0
LINE
  5
AF4
  8
0A
 10
474607.6601765778032131
 20
9853169.9417224060744047
 30
0.0
 11
474607.394502101582475
 21
9853170.087143249809742
 31
0.0
  0
LINE
  5
AF5
  8
0A
 10
474607.394502101582475
 20
9853170.087143249809742
 30
0.0
 11
474607.1288558098021895
 21
9853170.2326008193194866
 31
0.0
  0
LINE
  5
AF6
  8
0A
 10
474607.1288558098021895
 20
9853170.2326008193194866
 30
0.0
 11
474606.8632376361056231
 21
9853170.378094969317317
 31
0.0
  0
LINE
  5
AF7
  8
0A
 10
474606.8632376361056231
 20
9853170.378094969317317
 30
0.0
 11
474606.5976475136121735
 21
9853170.523625560104847
 31
0.0
  0
LINE
  5
AF8
  8
0A
 10
474606.5976475136121735
 20
9853170.523625560104847
 30
0.0
 11
474606.332085375324823
 21
9853170.6691924557089806
 31
0.0
  0
LINE
  5
AF9
  8
0A
 10
474606.332085375324823
 20
9853170.6691924557089806
 30
0.0
 11
474606.0665511544211768
 21
9853170.8147955127060413
 31
0.0
  0
LINE
  5
AFA
  8
0A
 10
474606.0665511544211768
 20
9853170.8147955127060413
 30
0.0
 11
474605.8010447839042172
 21
9853170.9604345858097076
 31
0.0
  0
LINE
  5
AFB
  8
0A
 10
474605.8010447839042172
 20
9853170.9604345858097076
 30
0.0
 11
474605.5355661974754184
 21
9853171.1061095483601093
 31
0.0
  0
LINE
  5
AFC
  8
0A
 10
474605.5355661974754184
 20
9853171.1061095483601093
 30
0.0
 11
474605.2701153270900249
 21
9853171.2518202532082796
 31
0.0
  0
LINE
  5
AFD
  8
0A
 10
474605.2701153270900249
 20
9853171.2518202532082796
 30
0.0
 11
474605.0046921062166803
 21
9853171.3975665438920259
 31
0.0
  0
LINE
  5
AFE
  8
0A
 10
474605.0046921062166803
 20
9853171.3975665438920259
 30
0.0
 11
474604.7392964673927054
 21
9853171.5433483012020588
 31
0.0
  0
LINE
  5
AFF
  8
0A
 10
474604.7392964673927054
 20
9853171.5433483012020588
 30
0.0
 11
474604.4739283436210826
 21
9853171.6891653761267662
 31
0.0
  0
LINE
  5
B00
  8
0A
 10
474604.4739283436210826
 20
9853171.6891653761267662
 30
0.0
 11
474604.2085876672063023
 21
9853171.8350176364183426
 31
0.0
  0
LINE
  5
B01
  8
0A
 10
474604.2085876672063023
 20
9853171.8350176364183426
 30
0.0
 11
474603.943274371617008
 21
9853171.980904933065176
 31
0.0
  0
LINE
  5
B02
  8
0A
 10
474603.943274371617008
 20
9853171.980904933065176
 30
0.0
 11
474603.6779883888084441
 21
9853172.1268271282315254
 31
0.0
  0
LINE
  5
B03
  8
0A
 10
474603.6779883888084441
 20
9853172.1268271282315254
 30
0.0
 11
474603.4127296513179317
 21
9853172.2727840729057789
 31
0.0
  0
LINE
  5
B04
  8
0A
 10
474603.4127296513179317
 20
9853172.2727840729057789
 30
0.0
 11
474603.1474980920902453
 21
9853172.4187756478786469
 31
0.0
  0
LINE
  5
B05
  8
0A
 10
474603.1474980920902453
 20
9853172.4187756478786469
 30
0.0
 11
474602.8822936433134601
 21
9853172.5648017004132271
 31
0.0
  0
LINE
  5
B06
  8
0A
 10
474602.8822936433134601
 20
9853172.5648017004132271
 30
0.0
 11
474602.6171162375831045
 21
9853172.7108620814979076
 31
0.0
  0
LINE
  5
B07
  8
0A
 10
474602.6171162375831045
 20
9853172.7108620814979076
 30
0.0
 11
474602.3519658066798002
 21
9853172.8569566644728184
 31
0.0
  0
LINE
  5
B08
  8
0A
 10
474602.3519658066798002
 20
9853172.8569566644728184
 30
0.0
 11
474602.0868422837811522
 21
9853173.0030853077769279
 31
0.0
  0
LINE
  5
B09
  8
0A
 10
474602.0868422837811522
 20
9853173.0030853077769279
 30
0.0
 11
474601.8217456003185362
 21
9853173.149247869849205
 31
0.0
  0
LINE
  5
B0A
  8
0A
 10
474601.8217456003185362
 20
9853173.149247869849205
 30
0.0
 11
474601.5566756891203113
 21
9853173.2954442128539085
 31
0.0
  0
LINE
  5
B0B
  8
0A
 10
474601.5566756891203113
 20
9853173.2954442128539085
 30
0.0
 11
474601.2916324819088914
 21
9853173.4416741877794266
 31
0.0
  0
LINE
  5
B0C
  8
0A
 10
474601.2916324819088914
 20
9853173.4416741877794266
 30
0.0
 11
474601.0266159108723514
 21
9853173.5879376567900181
 31
0.0
  0
LINE
  5
B0D
  8
0A
 10
474601.0266159108723514
 20
9853173.5879376567900181
 30
0.0
 11
474600.7616259080241434
 21
9853173.7342344988137484
 31
0.0
  0
LINE
  5
B0E
  8
0A
 10
474600.7616259080241434
 20
9853173.7342344988137484
 30
0.0
 11
474600.4966624052030966
 21
9853173.8805645536631346
 31
0.0
  0
LINE
  5
B0F
  8
0A
 10
474600.4966624052030966
 20
9853173.8805645536631346
 30
0.0
 11
474600.2317253347137012
 21
9853174.0269276835024357
 31
0.0
  0
LINE
  5
B10
  8
0A
 10
474600.2317253347137012
 20
9853174.0269276835024357
 30
0.0
 11
474599.9668146282201633
 21
9853174.1733237579464912
 31
0.0
  0
LINE
  5
B11
  8
0A
 10
474599.9668146282201633
 20
9853174.1733237579464912
 30
0.0
 11
474599.7019302175031044
 21
9853174.3197526391595602
 31
0.0
  0
LINE
  5
B12
  8
0A
 10
474599.7019302175031044
 20
9853174.3197526391595602
 30
0.0
 11
474599.4370720345177688
 21
9853174.4662141725420952
 31
0.0
  0
LINE
  5
B13
  8
0A
 10
474599.4370720345177688
 20
9853174.4662141725420952
 30
0.0
 11
474599.1722400105791166
 21
9853174.6127082277089357
 31
0.0
  0
LINE
  5
B14
  8
0A
 10
474599.1722400105791166
 20
9853174.6127082277089357
 30
0.0
 11
474598.9074340779916383
 21
9853174.7592346630990505
 31
0.0
  0
LINE
  5
B15
  8
0A
 10
474598.9074340779916383
 20
9853174.7592346630990505
 30
0.0
 11
474598.642654167895671
 21
9853174.9057933483272791
 31
0.0
  0
LINE
  5
B16
  8
0A
 10
474598.642654167895671
 20
9853174.9057933483272791
 30
0.0
 11
474598.377900211897213
 21
9853175.0523841325193644
 31
0.0
  0
LINE
  5
B17
  8
0A
 10
474598.377900211897213
 20
9853175.0523841325193644
 30
0.0
 11
474598.1131721414858475
 21
9853175.1990068797022104
 31
0.0
  0
LINE
  5
B18
  8
0A
 10
474598.1131721414858475
 20
9853175.1990068797022104
 30
0.0
 11
474597.8484698886750266
 21
9853175.3456614539027214
 31
0.0
  0
LINE
  5
B19
  8
0A
 10
474597.8484698886750266
 20
9853175.3456614539027214
 30
0.0
 11
474597.5837933841976337
 21
9853175.4923477061092854
 31
0.0
  0
LINE
  5
B1A
  8
0A
 10
474597.5837933841976337
 20
9853175.4923477061092854
 30
0.0
 11
474597.319142559717875
 21
9853175.6390655133873224
 31
0.0
  0
LINE
  5
B1B
  8
0A
 10
474597.319142559717875
 20
9853175.6390655133873224
 30
0.0
 11
474597.0545173467253335
 21
9853175.7858147192746401
 31
0.0
  0
LINE
  5
B1C
  8
0A
 10
474597.0545173467253335
 20
9853175.7858147192746401
 30
0.0
 11
474596.7899176760111004
 21
9853175.9325952008366585
 31
0.0
  0
LINE
  5
B1D
  8
0A
 10
474596.7899176760111004
 20
9853175.9325952008366585
 30
0.0
 11
474596.5253434794140048
 21
9853176.0794068016111851
 31
0.0
  0
LINE
  5
B1E
  8
0A
 10
474596.5253434794140048
 20
9853176.0794068016111851
 30
0.0
 11
474596.2607946877833456
 21
9853176.2262494005262852
 31
0.0
  0
LINE
  5
B1F
  8
0A
 10
474596.2607946877833456
 20
9853176.2262494005262852
 30
0.0
 11
474595.9962712322012521
 21
9853176.3731228392571211
 31
0.0
  0
LINE
  5
B20
  8
0A
 10
474595.9962712322012521
 20
9853176.3731228392571211
 30
0.0
 11
474595.731773043924477
 21
9853176.5200269967317581
 31
0.0
  0
LINE
  5
B21
  8
0A
 10
474595.731773043924477
 20
9853176.5200269967317581
 30
0.0
 11
474595.4673000539187342
 21
9853176.6669617276638746
 31
0.0
  0
LINE
  5
B22
  8
0A
 10
474595.4673000539187342
 20
9853176.6669617276638746
 30
0.0
 11
474595.2028521929169074
 21
9853176.8139268886297941
 31
0.0
  0
LINE
  5
B23
  8
0A
 10
474595.2028521929169074
 20
9853176.8139268886297941
 30
0.0
 11
474594.9384293925249949
 21
9853176.9609223399311304
 31
0.0
  0
LINE
  5
B24
  8
0A
 10
474594.9384293925249949
 20
9853176.9609223399311304
 30
0.0
 11
474594.6740315828938037
 21
9853177.1079479474574327
 31
0.0
  0
LINE
  5
B25
  8
0A
 10
474594.6740315828938037
 20
9853177.1079479474574327
 30
0.0
 11
474594.4096586952218786
 21
9853177.2550035808235407
 31
0.0
  0
LINE
  5
B26
  8
0A
 10
474594.4096586952218786
 20
9853177.2550035808235407
 30
0.0
 11
474594.1453106601838954
 21
9853177.4020890817046165
 31
0.0
  0
LINE
  5
B27
  8
0A
 10
474594.1453106601838954
 20
9853177.4020890817046165
 30
0.0
 11
474593.8809874086873606
 21
9853177.5492043253034353
 31
0.0
  0
LINE
  5
B28
  8
0A
 10
474593.8809874086873606
 20
9853177.5492043253034353
 30
0.0
 11
474593.6166888716979884
 21
9853177.6963491681963205
 31
0.0
  0
LINE
  5
B29
  8
0A
 10
474593.6166888716979884
 20
9853177.6963491681963205
 30
0.0
 11
474593.3524149790755473
 21
9853177.8435234725475311
 31
0.0
  0
LINE
  5
B2A
  8
0A
 10
474593.3524149790755473
 20
9853177.8435234725475311
 30
0.0
 11
474593.0881656624260359
 21
9853177.9907271005213261
 31
0.0
  0
LINE
  5
B2B
  8
0A
 10
474593.0881656624260359
 20
9853177.9907271005213261
 30
0.0
 11
474592.8239408513763919
 21
9853178.1379599124193192
 31
0.0
  0
LINE
  5
B2C
  8
0A
 10
474592.8239408513763919
 20
9853178.1379599124193192
 30
0.0
 11
474592.5597404772997834
 21
9853178.285221766680479
 31
0.0
  0
LINE
  5
B2D
  8
0A
 10
474592.5597404772997834
 20
9853178.285221766680479
 30
0.0
 11
474592.2955644699977711
 21
9853178.4325125366449356
 31
0.0
  0
LINE
  5
B2E
  8
0A
 10
474592.2955644699977711
 20
9853178.4325125366449356
 30
0.0
 11
474592.0314127603778616
 21
9853178.5798320639878511
 31
0.0
  0
LINE
  5
B2F
  8
0A
 10
474592.0314127603778616
 20
9853178.5798320639878511
 30
0.0
 11
474591.7672852784162387
 21
9853178.7271802257746458
 31
0.0
  0
LINE
  5
B30
  8
0A
 10
474591.7672852784162387
 20
9853178.7271802257746458
 30
0.0
 11
474591.5031819547875784
 21
9853178.8745568841695786
 31
0.0
  0
LINE
  5
B31
  8
0A
 10
474591.5031819547875784
 20
9853178.8745568841695786
 30
0.0
 11
474591.2391027195844799
 21
9853179.0219618920236826
 31
0.0
  0
LINE
  5
B32
  8
0A
 10
474591.2391027195844799
 20
9853179.0219618920236826
 30
0.0
 11
474590.9750475034816191
 21
9853179.169395113363862
 31
0.0
  0
LINE
  5
B33
  8
0A
 10
474590.9750475034816191
 20
9853179.169395113363862
 30
0.0
 11
474590.7110162361059338
 21
9853179.3168564140796661
 31
0.0
  0
LINE
  5
B34
  8
0A
 10
474590.7110162361059338
 20
9853179.3168564140796661
 30
0.0
 11
474590.447008847782854
 21
9853179.4643456507474184
 31
0.0
  0
LINE
  5
B35
  8
0A
 10
474590.447008847782854
 20
9853179.4643456507474184
 30
0.0
 11
474590.1830252694198862
 21
9853179.6118626873940229
 31
0.0
  0
LINE
  5
B36
  8
0A
 10
474590.1830252694198862
 20
9853179.6118626873940229
 30
0.0
 11
474589.919065429829061
 21
9853179.7594073917716742
 31
0.0
  0
LINE
  5
B37
  8
0A
 10
474589.919065429829061
 20
9853179.7594073917716742
 30
0.0
 11
474589.6551292599178851
 21
9853179.906979613006115
 31
0.0
  0
LINE
  5
B38
  8
0A
 10
474589.6551292599178851
 20
9853179.906979613006115
 30
0.0
 11
474589.3912166890804656
 21
9853180.0545792169868946
 31
0.0
  0
LINE
  5
B39
  8
0A
 10
474589.3912166890804656
 20
9853180.0545792169868946
 30
0.0
 11
474589.1273276482825167
 21
9853180.2022060733288527
 31
0.0
  0
LINE
  5
B3A
  8
0A
 10
474589.1273276482825167
 20
9853180.2022060733288527
 30
0.0
 11
474588.8634620666853152
 21
9853180.3498600367456675
 31
0.0
  0
LINE
  5
B3B
  8
0A
 10
474588.8634620666853152
 20
9853180.3498600367456675
 30
0.0
 11
474588.599619873915799
 21
9853180.4975409768521786
 31
0.0
  0
LINE
  5
B3C
  8
0A
 10
474588.599619873915799
 20
9853180.4975409768521786
 30
0.0
 11
474588.3358010002993979
 21
9853180.6452487446367741
 31
0.0
  0
LINE
  5
B3D
  8
0A
 10
474709.6025546749006025
 20
9853150.2251220755279064
 30
0.0
 11
474706.8697406217106618
 21
9853151.4820203762501478
 31
0.0
1001
ACADCODEPAGEINFO
1000
CodePage
1070
    39
  0
LINE
  5
B3E
  8
0A
 10
474706.8697406217106618
 20
9853151.4820203762501478
 30
0.0
 11
474704.1402810470899567
 21
9853152.7479627691209316
 31
0.0
1001
ACADCODEPAGEINFO
1000
CodePage
1070
    39
  0
LINE
  5
B3F
  8
0A
 10
474704.1402810470899567
 20
9853152.7479627691209316
 30
0.0
 11
474701.4141392717137933
 21
9853154.0227982681244612
 31
0.0
1001
ACADCODEPAGEINFO
1000
CodePage
1070
    39
  0
LINE
  5
B40
  8
0A
 10
474701.4141392717137933
 20
9853154.0227982681244612
 30
0.0
 11
474698.6912772043142468
 21
9853155.3063763156533241
 31
0.0
1001
ACADCODEPAGEINFO
1000
CodePage
1070
    39
  0
LINE
  5
B41
  8
0A
 10
474698.6912772043142468
 20
9853155.3063763156533241
 30
0.0
 11
474695.971655364788603
 21
9853156.5985467843711376
 31
0.0
1001
ACADCODEPAGEINFO
1000
CodePage
1070
    39
  0
LINE
  5
B42
  8
0A
 10
474695.971655364788603
 20
9853156.5985467843711376
 30
0.0
 11
474693.2552329092868604
 21
9853157.8991599697619677
 31
0.0
1001
ACADCODEPAGEINFO
1000
CodePage
1070
    39
  0
LINE
  5
B43
  8
0A
 10
474693.2552329092868604
 20
9853157.8991599697619677
 30
0.0
 11
474690.5419676552992314
 21
9853159.2080665938556194
 31
0.0
1001
ACADCODEPAGEINFO
1000
CodePage
1070
    39
  0
LINE
  5
B44
  8
0A
 10
474690.5419676552992314
 20
9853159.2080665938556194
 30
0.0
 11
474687.8318161049974151
 21
9853160.5251177847385406
 31
0.0
1001
ACADCODEPAGEINFO
1000
CodePage
1070
    39
  0
LINE
  5
B45
  8
0A
 10
474687.8318161049974151
 20
9853160.5251177847385406
 30
0.0
 11
474685.124733469216153
 21
9853161.8501650746911764
 31
0.0
1001
ACADCODEPAGEINFO
1000
CodePage
1070
    39
  0
LINE
  5
B46
  8
0A
 10
474685.124733469216153
 20
9853161.8501650746911764
 30
0.0
 11
474682.4206736928899772
 21
9853163.183060435578227
 31
0.0
1001
ACADCODEPAGEINFO
1000
CodePage
1070
    39
  0
LINE
  5
B47
  8
0A
 10
474682.4206736928899772
 20
9853163.183060435578227
 30
0.0
 11
474679.7195894782198593
 21
9853164.5236562304198742
 31
0.0
1001
ACADCODEPAGEINFO
1000
CodePage
1070
    39
  0
LINE
  5
B48
  8
0A
 10
474679.7195894782198593
 20
9853164.5236562304198742
 30
0.0
 11
474677.0214323084219359
 21
9853165.8718052338808775
 31
0.0
1001
ACADCODEPAGEINFO
1000
CodePage
1070
    39
  0
LINE
  5
B49
  8
0A
 10
474677.0214323084219359
 20
9853165.8718052338808775
 30
0.0
 11
474674.3261524718254805
 21
9853167.2273606061935425
 31
0.0
1001
ACADCODEPAGEINFO
1000
CodePage
1070
    39
  0
LINE
  5
B4A
  8
0A
 10
474674.3261524718254805
 20
9853167.2273606061935425
 30
0.0
 11
474671.6336990863201208
 21
9853168.5901759155094624
 31
0.0
1001
ACADCODEPAGEINFO
1000
CodePage
1070
    39
  0
LINE
  5
B4B
  8
0A
 10
474671.6336990863201208
 20
9853168.5901759155094624
 30
0.0
 11
474668.9440201221732423
 21
9853169.9601051229983568
 31
0.0
1001
ACADCODEPAGEINFO
1000
CodePage
1070
    39
  0
LINE
  5
B4C
  8
0A
 10
474668.9440201221732423
 20
9853169.9601051229983568
 30
0.0
 11
474666.2570624257205054
 21
9853171.3370025642216206
 31
0.0
1001
ACADCODEPAGEINFO
1000
CodePage
1070
    39
  0
LINE
  5
B4D
  8
0A
 10
474666.2570624257205054
 20
9853171.3370025642216206
 30
0.0
 11
474663.5727717435802333
 21
9853172.7207229565829039
 31
0.0
1001
ACADCODEPAGEINFO
1000
CodePage
1070
    39
  0
LINE
  5
B4E
  8
0A
 10
474663.5727717435802333
 20
9853172.7207229565829039
 30
0.0
 11
474660.8910927450051531
 21
9853174.111121391877532
 31
0.0
1001
ACADCODEPAGEINFO
1000
CodePage
1070
    39
  0
LINE
  5
B4F
  8
0A
 10
474660.8910927450051531
 20
9853174.111121391877532
 30
0.0
 11
474658.2119690462131985
 21
9853175.5080533400177956
 31
0.0
1001
ACADCODEPAGEINFO
1000
CodePage
1070
    39
  0
LINE
  5
B50
  8
0A
 10
474658.2119690462131985
 20
9853175.5080533400177956
 30
0.0
 11
474655.5353432325064205
 21
9853176.9113746322691441
 31
0.0
1001
ACADCODEPAGEINFO
1000
CodePage
1070
    39
  0
LINE
  5
B51
  8
0A
 10
474655.5353432325064205
 20
9853176.9113746322691441
 30
0.0
 11
474652.8611568831256591
 21
9853178.3209414277225733
 31
0.0
1001
ACADCODEPAGEINFO
1000
CodePage
1070
    39
  0
LINE
  5
B52
  8
0A
 10
474652.8611568831256591
 20
9853178.3209414277225733
 30
0.0
 11
474650.1893505927873775
 21
9853179.7366102728992701
 31
0.0
1001
ACADCODEPAGEINFO
1000
CodePage
1070
    39
  0
LINE
  5
B53
  8
0A
 10
474650.1893505927873775
 20
9853179.7366102728992701
 30
0.0
 11
474647.5198639950831421
 21
9853181.1582380272448063
 31
0.0
1001
ACADCODEPAGEINFO
1000
CodePage
1070
    39
  0
LINE
  5
B54
  8
0A
 10
474647.5198639950831421
 20
9853181.1582380272448063
 30
0.0
 11
474644.8526357862865552
 21
9853182.5856819041073322
 31
0.0
1001
ACADCODEPAGEINFO
1000
CodePage
1070
    39
  0
LINE
  5
B55
  8
0A
 10
474644.8526357862865552
 20
9853182.5856819041073322
 30
0.0
 11
474642.1876037464826368
 21
9853184.0187994167208672
 31
0.0
1001
ACADCODEPAGEINFO
1000
CodePage
1070
    39
  0
LINE
  5
B56
  8
0A
 10
474642.1876037464826368
 20
9853184.0187994167208672
 30
0.0
 11
474639.524704763898626
 21
9853185.4574484303593636
 31
0.0
1001
ACADCODEPAGEINFO
1000
CodePage
1070
    39
  0
LINE
  5
B57
  8
0A
 10
474639.524704763898626
 20
9853185.4574484303593636
 30
0.0
 11
474636.8638748577213846
 21
9853186.9014870934188366
 31
0.0
1001
ACADCODEPAGEINFO
1000
CodePage
1070
    39
  0
LINE
  5
B58
  8
0A
 10
474636.8638748577213846
 20
9853186.9014870934188366
 30
0.0
 11
474634.2050491977133788
 21
9853188.3507738672196865
 31
0.0
1001
ACADCODEPAGEINFO
1000
CodePage
1070
    39
  0
LINE
  5
B59
  8
0A
 10
474634.2050491977133788
 20
9853188.3507738672196865
 30
0.0
 11
474631.5481621322105639
 21
9853189.8051675166934729
 31
0.0
1001
ACADCODEPAGEINFO
1000
CodePage
1070
    39
  0
LINE
  5
B5A
  8
0A
 10
474631.5481621322105639
 20
9853189.8051675166934729
 30
0.0
 11
474628.8931472045951523
 21
9853191.2645270712673664
 31
0.0
1001
ACADCODEPAGEINFO
1000
CodePage
1070
    39
  0
LINE
  5
B5B
  8
0A
 10
474628.8931472045951523
 20
9853191.2645270712673664
 30
0.0
 11
474626.2399371797800995
 21
9853192.7287118583917618
 31
0.0
1001
ACADCODEPAGEINFO
1000
CodePage
1070
    39
  0
LINE
  5
B5C
  8
0A
 10
474626.2399371797800995
 20
9853192.7287118583917618
 30
0.0
 11
474623.5884640656877309
 21
9853194.1975814569741488
 31
0.0
1001
ACADCODEPAGEINFO
1000
CodePage
1070
    39
  0
LINE
  5
B5D
  8
0A
 10
474623.5884640656877309
 20
9853194.1975814569741488
 30
0.0
 11
474620.9386591336806305
 21
9853195.6709956955164671
 31
0.0
1001
ACADCODEPAGEINFO
1000
CodePage
1070
    39
  0
LINE
  5
B5E
  8
0A
 10
474620.9386591336806305
 20
9853195.6709956955164671
 30
0.0
 11
474618.2904529438819736
 21
9853197.1488146930932999
 31
0.0
1001
ACADCODEPAGEINFO
1000
CodePage
1070
    39
  0
LINE
  5
B5F
  8
0A
 10
474618.2904529438819736
 20
9853197.1488146930932999
 30
0.0
 11
474615.6437753639183939
 21
9853198.6308987494558096
 31
0.0
1001
ACADCODEPAGEINFO
1000
CodePage
1070
    39
  0
LINE
  5
B60
  8
0A
 10
474615.6437753639183939
 20
9853198.6308987494558096
 30
0.0
 11
474612.9985555945895612
 21
9853200.117108441889286
 31
0.0
1001
ACADCODEPAGEINFO
1000
CodePage
1070
    39
  0
LINE
  5
B61
  8
0A
 10
474612.9985555945895612
 20
9853200.117108441889286
 30
0.0
 11
474610.354722187796142
 21
9853201.6073045264929533
 31
0.0
1001
ACADCODEPAGEINFO
1000
CodePage
1070
    39
  0
LINE
  5
B62
  8
0A
 10
474610.354722187796142
 20
9853201.6073045264929533
 30
0.0
 11
474607.7122030725004151
 21
9853203.10134800337255
 31
0.0
1001
ACADCODEPAGEINFO
1000
CodePage
1070
    39
  0
LINE
  5
B63
  8
0A
 10
474607.7122030725004151
 20
9853203.10134800337255
 30
0.0
 11
474605.0709255738183856
 21
9853204.599100049585104
 31
0.0
1001
ACADCODEPAGEINFO
1000
CodePage
1070
    39
  0
LINE
  5
B64
  8
0A
 10
474605.0709255738183856
 20
9853204.599100049585104
 30
0.0
 11
474602.4308164368267171
 21
9853206.1004220191389322
 31
0.0
1001
ACADCODEPAGEINFO
1000
CodePage
1070
    39
  0
LINE
  5
B65
  8
0A
 10
474602.4308164368267171
 20
9853206.1004220191389322
 30
0.0
 11
474599.7918018461205065
 21
9853207.6051754839718342
 31
0.0
1001
ACADCODEPAGEINFO
1000
CodePage
1070
    39
  0
LINE
  5
B66
  8
0A
 10
474599.7918018461205065
 20
9853207.6051754839718342
 30
0.0
 11
474597.153807450318709
 21
9853209.113222137093544
 31
0.0
1001
ACADCODEPAGEINFO
1000
CodePage
1070
    39
  0
LINE
  5
B67
  8
0A
 10
474597.153807450318709
 20
9853209.113222137093544
 30
0.0
 11
474594.5167583809816279
 21
9853210.6244238596409559
 31
0.0
1001
ACADCODEPAGEINFO
1000
CodePage
1070
    39
  0
LINE
  5
B68
  8
0A
 10
474594.5167583809816279
 20
9853210.6244238596409559
 30
0.0
 11
474591.8805792776984163
 21
9853212.1386426407843828
 31
0.0
1001
ACADCODEPAGEINFO
1000
CodePage
1070
    39
  0
LINE
  5
B69
  8
0A
 10
474591.8805792776984163
 20
9853212.1386426407843828
 30
0.0
 11
474589.2451943054911681
 21
9853213.6557406447827816
 31
0.0
1001
ACADCODEPAGEINFO
1000
CodePage
1070
    39
  0
LINE
  5
B6A
  8
0A
 10
474589.2451943054911681
 20
9853213.6557406447827816
 30
0.0
 11
474586.6105271807173267
 21
9853215.1755801234394312
 31
0.0
1001
ACADCODEPAGEINFO
1000
CodePage
1070
    39
  0
LINE
  5
B6B
  8
0A
 10
474586.6105271807173267
 20
9853215.1755801234394312
 30
0.0
 11
474583.9765011896961369
 21
9853216.6980234533548355
 31
0.0
1001
ACADCODEPAGEINFO
1000
CodePage
1070
    39
  0
LINE
  5
B6C
  8
0A
 10
474583.9765011896961369
 20
9853216.6980234533548355
 30
0.0
 11
474581.3430392105947249
 21
9853218.2229331061244011
 31
0.0
1001
ACADCODEPAGEINFO
1000
CodePage
1070
    39
  0
LINE
  5
B6D
  8
0A
 10
474581.3430392105947249
 20
9853218.2229331061244011
 30
0.0
 11
474578.7100637375260703
 21
9853219.7501716371625662
 31
0.0
1001
ACADCODEPAGEINFO
1000
CodePage
1070
    39
  0
LINE
  5
B6E
  8
0A
 10
474578.7100637375260703
 20
9853219.7501716371625662
 30
0.0
 11
474576.0774968981859274
 21
9853221.2796016801148653
 31
0.0
1001
ACADCODEPAGEINFO
1000
CodePage
1070
    39
  0
LINE
  5
B6F
  8
0A
 10
474576.0774968981859274
 20
9853221.2796016801148653
 30
0.0
 11
474573.4452604784164578
 21
9853222.8110859375447035
 31
0.0
1001
ACADCODEPAGEINFO
1000
CodePage
1070
    39
  0
LINE
  5
B70
  8
0A
 10
474573.4452604784164578
 20
9853222.8110859375447035
 30
0.0
 11
474570.8132759424042888
 21
9853224.3444871548563242
 31
0.0
1001
ACADCODEPAGEINFO
1000
CodePage
1070
    39
  0
LINE
  5
B71
  8
0A
 10
474697.6939954254194163
 20
9853124.2223103661090136
 30
0.0
 11
474694.8693783591734245
 21
9853125.5214467719197273
 31
0.0
1001
ACADCODEPAGEINFO
1000
CodePage
1070
    39
  0
LINE
  5
B72
  8
0A
 10
474694.8693783591734245
 20
9853125.5214467719197273
 30
0.0
 11
474692.0496219309279695
 21
9853126.8293156623840332
 31
0.0
1001
ACADCODEPAGEINFO
1000
CodePage
1070
    39
  0
LINE
  5
B73
  8
0A
 10
474692.0496219309279695
 20
9853126.8293156623840332
 30
0.0
 11
474689.2346839440288022
 21
9853128.1457513608038425
 31
0.0
1001
ACADCODEPAGEINFO
1000
CodePage
1070
    39
  0
LINE
  5
B74
  8
0A
 10
474689.2346839440288022
 20
9853128.1457513608038425
 30
0.0
 11
474686.424520792090334
 21
9853129.470588905736804
 31
0.0
1001
ACADCODEPAGEINFO
1000
CodePage
1070
    39
  0
LINE
  5
B75
  8
0A
 10
474686.424520792090334
 20
9853129.470588905736804
 30
0.0
 11
474683.6190874837921001
 21
9853130.8036639727652073
 31
0.0
1001
ACADCODEPAGEINFO
1000
CodePage
1070
    39
  0
LINE
  5
B76
  8
0A
 10
474683.6190874837921001
 20
9853130.8036639727652073
 30
0.0
 11
474680.8183376750093885
 21
9853132.1448129434138536
 31
0.0
1001
ACADCODEPAGEINFO
1000
CodePage
1070
    39
  0
LINE
  5
B77
  8
0A
 10
474680.8183376750093885
 20
9853132.1448129434138536
 30
0.0
 11
474678.0222236940753646
 21
9853133.4938728529959917
 31
0.0
1001
ACADCODEPAGEINFO
1000
CodePage
1070
    39
  0
LINE
  5
B78
  8
0A
 10
474678.0222236940753646
 20
9853133.4938728529959917
 30
0.0
 11
474675.230696571408771
 21
9853134.850681409239769
 31
0.0
1001
ACADCODEPAGEINFO
1000
CodePage
1070
    39
  0
LINE
  5
B79
  8
0A
 10
474675.230696571408771
 20
9853134.850681409239769
 30
0.0
 11
474672.4437060665222816
 21
9853136.2150769978761673
 31
0.0
1001
ACADCODEPAGEINFO
1000
CodePage
1070
    39
  0
LINE
  5
B7A
  8
0A
 10
474672.4437060665222816
 20
9853136.2150769978761673
 30
0.0
 11
474669.6612006953218952
 21
9853137.5868986323475838
 31
0.0
1001
ACADCODEPAGEINFO
1000
CodePage
1070
    39
  0
LINE
  5
B7B
  8
0A
 10
474669.6612006953218952
 20
9853137.5868986323475838
 30
0.0
 11
474666.8831277600838803
 21
9853138.9659860003739595
 31
0.0
1001
ACADCODEPAGEINFO
1000
CodePage
1070
    39
  0
LINE
  5
B7C
  8
0A
 10
474666.8831277600838803
 20
9853138.9659860003739595
 30
0.0
 11
474664.1094333730870858
 21
9853140.3521794471889734
 31
0.0
1001
ACADCODEPAGEINFO
1000
CodePage
1070
    39
  0
LINE
  5
B7D
  8
0A
 10
474664.1094333730870858
 20
9853140.3521794471889734
 30
0.0
 11
474661.3400624864734709
 21
9853141.7453199457377195
 31
0.0
1001
ACADCODEPAGEINFO
1000
CodePage
1070
    39
  0
LINE
  5
B7E
  8
0A
 10
474661.3400624864734709
 20
9853141.7453199457377195
 30
0.0
 11
474658.5749589191982523
 21
9853143.1452491078525782
 31
0.0
1001
ACADCODEPAGEINFO
1000
CodePage
1070
    39
  0
LINE
  5
B7F
  8
0A
 10
474658.5749589191982523
 20
9853143.1452491078525782
 30
0.0
 11
474655.8140653821174055
 21
9853144.5518091898411512
 31
0.0
1001
ACADCODEPAGEINFO
1000
CodePage
1070
    39
  0
LINE
  5
B80
  8
0A
 10
474655.8140653821174055
 20
9853144.5518091898411512
 30
0.0
 11
474653.0573235065094195
 21
9853145.9648430533707142
 31
0.0
1001
ACADCODEPAGEINFO
1000
CodePage
1070
    39
  0
LINE
  5
B81
  8
0A
 10
474653.0573235065094195
 20
9853145.9648430533707142
 30
0.0
 11
474650.3046738699194975
 21
9853147.3841942045837641
 31
0.0
1001
ACADCODEPAGEINFO
1000
CodePage
1070
    39
  0
LINE
  5
B82
  8
0A
 10
473141.4172375347116031
 20
9854020.8179965317249298
 30
0.0
 11
473140.7446006364771165
 21
9854021.2786359805613756
 31
0.0
  0
LINE
  5
B83
  8
0A
 10
473140.7446006364771165
 20
9854021.2786359805613756
 30
0.0
 11
473139.9173186260159127
 21
9854021.8459675926715136
 31
0.0
  0
LINE
  5
B84
  8
0A
 10
473139.9173186260159127
 20
9854021.8459675926715136
 30
0.0
 11
473139.090478153724689
 21
9854022.4137533847242594
 31
0.0
  0
LINE
  5
B85
  8
0A
 10
473139.090478153724689
 20
9854022.4137533847242594
 30
0.0
 11
473138.2640659364988096
 21
9854022.9819718599319458
 31
0.0
  0
LINE
  5
B86
  8
0A
 10
473138.2640659364988096
 20
9854022.9819718599319458
 30
0.0
 11
473137.4380686591030098
 21
9854023.5506015941500664
 31
0.0
  0
LINE
  5
B87
  8
0A
 10
473137.4380686591030098
 20
9854023.5506015941500664
 30
0.0
 11
473136.6124729738221504
 21
9854024.1196211744099855
 31
0.0
  0
LINE
  5
B88
  8
0A
 10
473136.6124729738221504
 20
9854024.1196211744099855
 30
0.0
 11
473135.7872655022074468
 21
9854024.6890092082321644
 31
0.0
  0
LINE
  5
B89
  8
0A
 10
473135.7872655022074468
 20
9854024.6890092082321644
 30
0.0
 11
473134.9624328379286453
 21
9854025.2587443478405476
 31
0.0
  0
LINE
  5
B8A
  8
0A
 10
473134.9624328379286453
 20
9854025.2587443478405476
 30
0.0
 11
473134.1379615479963832
 21
9854025.8288052566349506
 31
0.0
  0
LINE
  5
B8B
  8
0A
 10
473134.1379615479963832
 20
9854025.8288052566349506
 30
0.0
 11
473133.3138381732278503
 21
9854026.3991706278175116
 31
0.0
  0
LINE
  5
B8C
  8
0A
 10
473133.3138381732278503
 20
9854026.3991706278175116
 30
0.0
 11
473132.4900492319720797
 21
9854026.9698191937059164
 31
0.0
  0
LINE
  5
B8D
  8
0A
 10
473132.4900492319720797
 20
9854026.9698191937059164
 30
0.0
 11
473131.6665812192950398
 21
9854027.5407296940684319
 31
0.0
  0
LINE
  5
B8E
  8
0A
 10
473131.6665812192950398
 20
9854027.5407296940684319
 30
0.0
 11
473130.8434206114034168
 21
9854028.1118809059262276
 31
0.0
  0
LINE
  5
B8F
  8
0A
 10
473130.8434206114034168
 20
9854028.1118809059262276
 30
0.0
 11
473130.0205538647132926
 21
9854028.6832516118884087
 31
0.0
  0
LINE
  5
B90
  8
0A
 10
473130.0205538647132926
 20
9854028.6832516118884087
 30
0.0
 11
473129.1979674192261882
 21
9854029.2548206280916929
 31
0.0
  0
LINE
  5
B91
  8
0A
 10
473129.1979674192261882
 20
9854029.2548206280916929
 30
0.0
 11
473128.3756476988783106
 21
9854029.8265667874366045
 31
0.0
  0
LINE
  5
B92
  8
0A
 10
473128.3756476988783106
 20
9854029.8265667874366045
 30
0.0
 11
473127.5535811153240502
 21
9854030.3984689526259899
 31
0.0
  0
LINE
  5
B93
  8
0A
 10
473127.5535811153240502
 20
9854030.3984689526259899
 30
0.0
 11
473126.7317540660733357
 21
9854030.9705059770494699
 31
0.0
  0
LINE
  5
B94
  8
0A
 10
473126.7317540660733357
 20
9854030.9705059770494699
 30
0.0
 11
473125.9101529397885315
 21
9854031.5426567643880844
 31
0.0
  0
LINE
  5
B95
  8
0A
 10
473125.9101529397885315
 20
9854031.5426567643880844
 30
0.0
 11
473125.0887641150038689
 21
9854032.1149002071470022
 31
0.0
  0
LINE
  5
B96
  8
0A
 10
473119.4390864706947468
 20
9854036.1965395957231522
 30
0.0
 11
473116.9434130655135959
 21
9854038.0000704117119312
 31
0.0
1001
ACADCODEPAGEINFO
1000
CodePage
1070
    39
  0
LINE
  5
B97
  8
0A
 10
473116.9434130655135959
 20
9854038.0000704117119312
 30
0.0
 11
473114.4486284924205393
 21
9854039.8014597687870264
 31
0.0
1001
ACADCODEPAGEINFO
1000
CodePage
1070
    39
  0
LINE
  5
B98
  8
0A
 10
473114.4486284924205393
 20
9854039.8014597687870264
 30
0.0
 11
473111.9540237783221528
 21
9854041.5997236538678408
 31
0.0
1001
ACADCODEPAGEINFO
1000
CodePage
1070
    39
  0
LINE
  5
B99
  8
0A
 10
473111.9540237783221528
 20
9854041.5997236538678408
 30
0.0
 11
473109.4588936493964866
 21
9854043.3938783127814531
 31
0.0
1001
ACADCODEPAGEINFO
1000
CodePage
1070
    39
  0
LINE
  5
B9A
  8
0A
 10
473109.4588936493964866
 20
9854043.3938783127814531
 30
0.0
 11
473106.9625376972835511
 21
9854045.1829393487423658
 31
0.0
1001
ACADCODEPAGEINFO
1000
CodePage
1070
    39
  0
LINE
  5
B9B
  8
0A
 10
473106.9625376972835511
 20
9854045.1829393487423658
 30
0.0
 11
473104.4642615435877815
 21
9854046.9659209493547678
 31
0.0
1001
ACADCODEPAGEINFO
1000
CodePage
1070
    39
  0
LINE
  5
B9C
  8
0A
 10
473104.4642615435877815
 20
9854046.9659209493547678
 30
0.0
 11
473101.9633780061267316
 21
9854048.741835055872798
 31
0.0
1001
ACADCODEPAGEINFO
1000
CodePage
1070
    39
  0
LINE
  5
B9D
  8
0A
 10
473101.9633780061267316
 20
9854048.741835055872798
 30
0.0
 11
473099.4592082740273327
 21
9854050.5096905827522278
 31
0.0
1001
ACADCODEPAGEINFO
1000
CodePage
1070
    39
  0
LINE
  5
B9E
  8
0A
 10
473099.4592082740273327
 20
9854050.5096905827522278
 30
0.0
 11
473096.9510830834042281
 21
9854052.2684926148504019
 31
0.0
1001
ACADCODEPAGEINFO
1000
CodePage
1070
    39
  0
LINE
  5
B9F
  8
0A
 10
473096.9510830834042281
 20
9854052.2684926148504019
 30
0.0
 11
473094.4383439043886028
 21
9854054.017241682857275
 31
0.0
1001
ACADCODEPAGEINFO
1000
CodePage
1070
    39
  0
LINE
  5
BA0
  8
0A
 10
473094.4383439043886028
 20
9854054.017241682857275
 30
0.0
 11
473091.9203441350837238
 21
9854055.7549330126494169
 31
0.0
1001
ACADCODEPAGEINFO
1000
CodePage
1070
    39
  0
LINE
  5
BA1
  8
0A
 10
473091.9203441350837238
 20
9854055.7549330126494169
 30
0.0
 11
473089.3964503064053133
 21
9854057.4805557876825333
 31
0.0
1001
ACADCODEPAGEINFO
1000
CodePage
1070
    39
  0
LINE
  5
BA2
  8
0A
 10
473089.3964503064053133
 20
9854057.4805557876825333
 30
0.0
 11
473086.8660432972246781
 21
9854059.1930925007909536
 31
0.0
1001
ACADCODEPAGEINFO
1000
CodePage
1070
    39
  0
LINE
  5
BA3
  8
0A
 10
473125.0887641147128306
 20
9854032.1149002127349377
 30
0.0
 11
473122.2630010272259824
 21
9854034.1557355336844921
 31
0.0
1001
ACADCODEPAGEINFO
1000
CodePage
1070
    39
  0
LINE
  5
BA4
  8
0A
 10
473122.2630010272259824
 20
9854034.1557355336844921
 30
0.0
 11
473119.4390864985180087
 21
9854036.1965395770967007
 31
0.0
1001
ACADCODEPAGEINFO
1000
CodePage
1070
    39
  0
LINE
  5
BA5
  8
0A
 10
474423.657559774001129
 20
9853266.3629820737987757
 30
0.0
 11
474422.7869613657239825
 21
9853266.8580792788416147
 31
0.0
  0
LINE
  5
BA6
  8
0A
 10
474422.7869613657239825
 20
9853266.8580792788416147
 30
0.0
 11
474421.9164499035105109
 21
9853267.3533192370086908
 31
0.0
  0
LINE
  5
BA7
  8
0A
 10
474421.9164499035105109
 20
9853267.3533192370086908
 30
0.0
 11
474421.04602541110944
 21
9853267.8487019278109074
 31
0.0
  0
LINE
  5
BA8
  8
0A
 10
474421.04602541110944
 20
9853267.8487019278109074
 30
0.0
 11
474420.1756879119784571
 21
9853268.3442273456603289
 31
0.0
  0
LINE
  5
BA9
  8
0A
 10
474420.1756879119784571
 20
9853268.3442273456603289
 30
0.0
 11
474419.3054374289931729
 21
9853268.8398954663425684
 31
0.0
  0
LINE
  5
BAA
  8
0A
 10
474419.3054374289931729
 20
9853268.8398954663425684
 30
0.0
 11
474418.4352739861933514
 21
9853269.3357062805444002
 31
0.0
  0
LINE
  5
BAB
  8
0A
 10
474418.4352739861933514
 20
9853269.3357062805444002
 30
0.0
 11
474417.5651976068038493
 21
9853269.8316597733646631
 31
0.0
  0
LINE
  5
BAC
  8
0A
 10
474417.5651976068038493
 20
9853269.8316597733646631
 30
0.0
 11
474416.6952083139913157
 21
9853270.327755918726325
 31
0.0
  0
LINE
  5
BAD
  8
0A
 10
474416.6952083139913157
 20
9853270.327755918726325
 30
0.0
 11
474415.8253061312134378
 21
9853270.8239947073161602
 31
0.0
  0
LINE
  5
BAE
  8
0A
 10
474415.8253061312134378
 20
9853270.8239947073161602
 30
0.0
 11
474415.2255464689224027
 21
9853271.1662623584270477
 31
0.0
  0
LINE
  5
441A
  8
0A
 62
     2
 10
472350.858881623193156
 20
9854482.0046970117837191
 30
0.0
 11
472357.6189866355271079
 21
9854493.5284069739282131
 31
0.0
  0
LINE
  5
441E
  8
0A
 62
     2
 10
471992.6005547299282625
 20
9854721.3687154371291399
 30
0.0
 11
471985.2324870866141282
 21
9854712.4024251271039248
 31
0.0
  0
ARC
  5
441F
  8
0A
 10
472568.5361909166094847
 20
9855426.9569685775786638
 30
0.0
 40
910.7999999999999545
 50
230.7769951582525039
 51
234.8283679756536912
  0
LINE
  5
4421
  8
0A
 62
     2
 10
471778.8377106100087985
 20
9855042.9693002831190825
 30
0.0
 11
471768.619243297202047
 21
9855037.8167835026979446
 31
0.0
  0
LINE
  5
4657
  8
0A
 10
472071.9871236878097989
 20
9854701.3784784004092216
 30
0.0
 11
472066.3692431814852171
 21
9854693.124961307272315
 31
0.0
  0
LINE
  5
4658
  8
0A
 10
472066.3694083380978554
 20
9854693.1252039466053247
 30
0.0
 11
472063.9077114316169173
 21
9854694.8172769080847502
 31
0.0
1001
ACADCODEPAGEINFO
1000
CodePage
1070
    39
  0
LINE
  5
4659
  8
0A
 10
472063.9077114316169173
 20
9854694.8172769080847502
 30
0.0
 11
472061.3760936440085061
 21
9854696.5695335473865271
 31
0.0
1001
ACADCODEPAGEINFO
1000
CodePage
1070
    39
  0
LINE
  5
465A
  8
0A
 10
472061.3760936440085061
 20
9854696.5695335473865271
 30
0.0
 11
472058.8509379843017086
 21
9854698.3297332916408777
 31
0.0
1001
ACADCODEPAGEINFO
1000
CodePage
1070
    39
  0
LINE
  5
465B
  8
0A
 10
472058.8509379843017086
 20
9854698.3297332916408777
 30
0.0
 11
472056.3320399345248006
 21
9854700.0982837453484535
 31
0.0
1001
ACADCODEPAGEINFO
1000
CodePage
1070
    39
  0
ARC
  5
465C
  8
0A
 10
472568.5361908855265938
 20
9855426.9569685682654381
 30
0.0
 40
889.199999974031698
 50
233.9600382872318107
 51
234.828340300789506
1001
ACADCODEPAGEINFO
1000
CodePage
1070
    39
  0
LINE
  5
4C5D
  8
0A
 10
472350.101118290273007
 20
9854497.9385821539908648
 30
0.0
 11
472371.2471689601079561
 21
9854485.5337642543017864
 31
0.0
  0
LINE
  5
4C61
  8
0A
 10
472071.0041350682731718
 20
9854689.9688929822295904
 30
0.0
 11
472068.4957744440762326
 21
9854691.6722387466579676
 31
0.0
  0
LINE
  5
4C62
  8
0A
 10
472068.549327862507198
 20
9854691.6357548777014017
 30
0.0
 11
472066.0454941706848331
 21
9854693.3470242936164141
 31
0.0
  0
ARC
  5
4C63
  8
0A
 62
     1
 10
472568.5361909157945774
 20
9855426.9569685775786638
 30
0.0
 40
910.8000000000001819
 50
229.9522515621692094
 51
231.2243028951602071
  0
LINE
  5
4C65
  8
0A
 10
471768.4636124927783385
 20
9855038.1226058807224035
 30
0.0
 11
471767.1012793447007425
 21
9855040.8196642305701971
 31
0.0
1001
ACADCODEPAGEINFO
1000
CodePage
1070
    39
  0
LINE
  5
4C68
  8
0A
 10
471767.1187984363059513
 20
9855040.7849032804369926
 30
0.0
 11
471765.7616517976275645
 21
9855043.4837683644145727
 31
0.0
1001
ACADCODEPAGEINFO
1000
CodePage
1070
    39
  0
LINE
  5
4E67
  8
道路偏置线_A4-3
 10
472339.6532657115021721
 20
9854486.0481426175683737
 30
0.0
 11
472336.6854423072072677
 21
9854487.0871917232871056
 31
0.0
1001
ACADCODEPAGEINFO
1000
CodePage
1070
    39
  0
LINE
  5
4E68
  8
道路偏置线_A4-3
 10
472336.6854423072072677
 20
9854487.0871917232871056
 30
0.0
 11
472333.7127606677822769
 21
9854488.1168458536267281
 31
0.0
1001
ACADCODEPAGEINFO
1000
CodePage
1070
    39
  0
LINE
  5
4E69
  8
道路偏置线_A4-3
 10
472333.7127606677822769
 20
9854488.1168458536267281
 30
0.0
 11
472330.7355902921990491
 21
9854489.1380752958357334
 31
0.0
1001
ACADCODEPAGEINFO
1000
CodePage
1070
    39
  0
LINE
  5
4E6A
  8
道路偏置线_A4-3
 10
472330.7355902921990491
 20
9854489.1380752958357334
 30
0.0
 11
472327.7542923328001052
 21
9854490.1518548987805843
 31
0.0
1001
ACADCODEPAGEINFO
1000
CodePage
1070
    39
  0
LINE
  5
4E6B
  8
道路偏置线_A4-3
 10
472327.7542923328001052
 20
9854490.1518548987805843
 30
0.0
 11
472324.7692205521161668
 21
9854491.1591636594384909
 31
0.0
1001
ACADCODEPAGEINFO
1000
CodePage
1070
    39
  0
LINE
  5
4E6C
  8
道路偏置线_A4-3
 10
472324.7692205521161668
 20
9854491.1591636594384909
 30
0.0
 11
472321.7807222870178521
 21
9854492.1609843969345093
 31
0.0
1001
ACADCODEPAGEINFO
1000
CodePage
1070
    39
  0
LINE
  5
4E6D
  8
道路偏置线_A4-3
 10
472321.7807222870178521
 20
9854492.1609843969345093
 30
0.0
 11
472318.7891394188045524
 21
9854493.1583033557981253
 31
0.0
1001
ACADCODEPAGEINFO
1000
CodePage
1070
    39
  0
LINE
  5
4E6E
  8
道路偏置线_A4-3
 10
472318.7891394188045524
 20
9854493.1583033557981253
 30
0.0
 11
472315.7948093513259664
 21
9854494.1521098855882883
 31
0.0
1001
ACADCODEPAGEINFO
1000
CodePage
1070
    39
  0
LINE
  5
4E6F
  8
道路偏置线_A4-3
 10
472315.7948093513259664
 20
9854494.1521098855882883
 30
0.0
 11
472312.7980659892200492
 21
9854495.1433960702270269
 31
0.0
1001
ACADCODEPAGEINFO
1000
CodePage
1070
    39
  0
ENDSEC
  0
EOF
